<ttFont>
<head>
    <!-- Most of this table will be recalculated by the compiler -->
    <tableVersion value="1.0"/>
    <fontRevision value="1.002"/>
    <checkSumAdjustment value="0xae6644d7"/>
    <magicNumber value="0x5f0f3cf5"/>
    <flags value="00000000 00000011"/>
    <unitsPerEm value="1000"/>
    <created value="Sun Jan 10 02:33:59 2016"/>
    <modified value="Sun Jan 10 02:34:01 2016"/>
    <xMin value="-124"/>
    <yMin value="-388"/>
    <xMax value="1064"/>
    <yMax value="1197"/>
    <macStyle value="00000000 00000010"/>
    <lowestRecPPEM value="6"/>
    <fontDirectionHint value="2"/>
    <indexToLocFormat value="0"/>
    <glyphDataFormat value="0"/>
  </head>
    <TTGlyph name=".notdef" xMin="0" yMin="-200" xMax="500" yMax="800">
      <contour>
        <pt x="0" y="-200" on="1"/>
        <pt x="0" y="800" on="1"/>
        <pt x="500" y="800" on="1"/>
        <pt x="500" y="-200" on="1"/>
      </contour>
      <contour>
        <pt x="71" y="750" on="1"/>
        <pt x="250" y="360" on="1"/>
        <pt x="429" y="750" on="1"/>
      </contour>
      <contour>
        <pt x="450" y="676" on="1"/>
        <pt x="278" y="300" on="1"/>
        <pt x="450" y="-76" on="1"/>
      </contour>
      <contour>
        <pt x="50" y="-76" on="1"/>
        <pt x="222" y="300" on="1"/>
        <pt x="50" y="676" on="1"/>
      </contour>
      <contour>
        <pt x="250" y="240" on="1"/>
        <pt x="71" y="-150" on="1"/>
        <pt x="429" y="-150" on="1"/>
      </contour>
    </TTGlyph>
    <TTGlyph name="A" xMin="-39" yMin="-5" xMax="550" yMax="620">
      <contour>
        <pt x="341" y="-5" on="1"/>
        <pt x="342" y="20" on="0"/>
        <pt x="343" y="73" on="0"/>
        <pt x="344" y="99" on="1"/>
        <pt x="203" y="99" on="1"/>
        <pt x="195" y="74" on="0"/>
        <pt x="177" y="24" on="0"/>
        <pt x="169" y="0" on="1"/>
        <pt x="-39" y="0" on="1"/>
        <pt x="24" y="154" on="0"/>
        <pt x="161" y="466" on="0"/>
        <pt x="232" y="620" on="1"/>
        <pt x="518" y="620" on="1"/>
        <pt x="527" y="474" on="0"/>
        <pt x="543" y="165" on="0"/>
        <pt x="550" y="5" on="1"/>
      </contour>
      <contour>
        <pt x="333" y="459" on="1"/>
        <pt x="314" y="407" on="0"/>
        <pt x="274" y="297" on="0"/>
        <pt x="254" y="242" on="1"/>
        <pt x="347" y="242" on="1"/>
        <pt x="347" y="262" on="0"/>
        <pt x="347" y="302" on="0"/>
        <pt x="347" y="322" on="1"/>
        <pt x="347" y="356" on="0"/>
        <pt x="347" y="425" on="0"/>
        <pt x="346" y="459" on="1"/>
      </contour>
    </TTGlyph>
    <TTGlyph name="A.sc" xMin="-36" yMin="-5" xMax="523" yMax="552">
      <contour>
        <pt x="316" y="-5" on="1"/>
        <pt x="317" y="18" on="0"/>
        <pt x="318" y="65" on="0"/>
        <pt x="319" y="89" on="1"/>
        <pt x="197" y="89" on="1"/>
        <pt x="189" y="67" on="0"/>
        <pt x="172" y="22" on="0"/>
        <pt x="165" y="0" on="1"/>
        <pt x="-36" y="0" on="1"/>
        <pt x="23" y="137" on="0"/>
        <pt x="152" y="415" on="0"/>
        <pt x="218" y="552" on="1"/>
        <pt x="481" y="552" on="1"/>
        <pt x="492" y="416" on="0"/>
        <pt x="513" y="141" on="0"/>
        <pt x="523" y="5" on="1"/>
      </contour>
      <contour>
        <pt x="312" y="392" on="1"/>
        <pt x="296" y="350" on="0"/>
        <pt x="262" y="263" on="0"/>
        <pt x="246" y="219" on="1"/>
        <pt x="321" y="219" on="1"/>
        <pt x="321" y="241" on="0"/>
        <pt x="321" y="284" on="0"/>
        <pt x="321" y="305" on="1"/>
        <pt x="321" y="392" on="1"/>
      </contour>
    </TTGlyph>
    <TTGlyph name="AE" xMin="-48" yMin="0" xMax="856" yMax="620">
      <contour>
        <pt x="400" y="462" on="1"/>
        <pt x="374" y="413" on="0"/>
        <pt x="319" y="308" on="0"/>
        <pt x="292" y="256" on="1"/>
        <pt x="373" y="256" on="1"/>
        <pt x="413" y="462" on="1"/>
      </contour>
      <contour>
        <pt x="323" y="0" on="1"/>
        <pt x="345" y="114" on="1"/>
        <pt x="219" y="114" on="1"/>
        <pt x="204" y="85" on="0"/>
        <pt x="175" y="28" on="0"/>
        <pt x="161" y="0" on="1"/>
        <pt x="-48" y="0" on="1"/>
        <pt x="36" y="154" on="0"/>
        <pt x="214" y="466" on="0"/>
        <pt x="306" y="620" on="1"/>
        <pt x="856" y="620" on="1"/>
        <pt x="826" y="462" on="1"/>
        <pt x="609" y="462" on="1"/>
        <pt x="591" y="372" on="1"/>
        <pt x="762" y="372" on="1"/>
        <pt x="738" y="249" on="1"/>
        <pt x="567" y="249" on="1"/>
        <pt x="549" y="158" on="1"/>
        <pt x="775" y="158" on="1"/>
        <pt x="733" y="0" on="1"/>
      </contour>
    </TTGlyph>
    <TTGlyph name="AE.sc" xMin="-47" yMin="0" xMax="804" yMax="552">
      <contour>
        <pt x="374" y="408" on="1"/>
        <pt x="349" y="363" on="0"/>
        <pt x="298" y="272" on="0"/>
        <pt x="273" y="226" on="1"/>
        <pt x="348" y="226" on="1"/>
        <pt x="383" y="408" on="1"/>
      </contour>
      <contour>
        <pt x="305" y="0" on="1"/>
        <pt x="323" y="96" on="1"/>
        <pt x="203" y="96" on="1"/>
        <pt x="190" y="72" on="0"/>
        <pt x="165" y="23" on="0"/>
        <pt x="153" y="0" on="1"/>
        <pt x="-47" y="0" on="1"/>
        <pt x="28" y="137" on="0"/>
        <pt x="192" y="415" on="0"/>
        <pt x="276" y="552" on="1"/>
        <pt x="804" y="552" on="1"/>
        <pt x="777" y="408" on="1"/>
        <pt x="572" y="408" on="1"/>
        <pt x="557" y="332" on="1"/>
        <pt x="718" y="332" on="1"/>
        <pt x="696" y="221" on="1"/>
        <pt x="535" y="221" on="1"/>
        <pt x="520" y="144" on="1"/>
        <pt x="733" y="144" on="1"/>
        <pt x="695" y="0" on="1"/>
      </contour>
    </TTGlyph>
    <TTGlyph name="AEacute" xMin="-48" yMin="0" xMax="856" yMax="911">
      <contour>
        <pt x="427" y="736" on="1"/>
        <pt x="491" y="772" on="0"/>
        <pt x="626" y="864" on="0"/>
        <pt x="683" y="911" on="1"/>
        <pt x="777" y="765" on="1"/>
        <pt x="705" y="722" on="0"/>
        <pt x="530" y="669" on="0"/>
        <pt x="452" y="657" on="1"/>
      </contour>
      <contour>
        <pt x="400" y="462" on="1"/>
        <pt x="374" y="413" on="0"/>
        <pt x="319" y="308" on="0"/>
        <pt x="292" y="256" on="1"/>
        <pt x="373" y="256" on="1"/>
        <pt x="413" y="462" on="1"/>
      </contour>
      <contour>
        <pt x="323" y="0" on="1"/>
        <pt x="345" y="114" on="1"/>
        <pt x="219" y="114" on="1"/>
        <pt x="204" y="85" on="0"/>
        <pt x="175" y="28" on="0"/>
        <pt x="161" y="0" on="1"/>
        <pt x="-48" y="0" on="1"/>
        <pt x="36" y="154" on="0"/>
        <pt x="214" y="466" on="0"/>
        <pt x="306" y="620" on="1"/>
        <pt x="856" y="620" on="1"/>
        <pt x="826" y="462" on="1"/>
        <pt x="609" y="462" on="1"/>
        <pt x="591" y="372" on="1"/>
        <pt x="762" y="372" on="1"/>
        <pt x="738" y="249" on="1"/>
        <pt x="567" y="249" on="1"/>
        <pt x="549" y="158" on="1"/>
        <pt x="775" y="158" on="1"/>
        <pt x="733" y="0" on="1"/>
      </contour>
    </TTGlyph>
    <TTGlyph name="AEacute.sc" xMin="-47" yMin="0" xMax="804" yMax="843">
      <contour>
        <pt x="382" y="668" on="1"/>
        <pt x="446" y="704" on="0"/>
        <pt x="581" y="796" on="0"/>
        <pt x="638" y="843" on="1"/>
        <pt x="732" y="697" on="1"/>
        <pt x="660" y="654" on="0"/>
        <pt x="485" y="601" on="0"/>
        <pt x="407" y="589" on="1"/>
      </contour>
      <contour>
        <pt x="374" y="408" on="1"/>
        <pt x="349" y="363" on="0"/>
        <pt x="298" y="272" on="0"/>
        <pt x="273" y="226" on="1"/>
        <pt x="348" y="226" on="1"/>
        <pt x="383" y="408" on="1"/>
      </contour>
      <contour>
        <pt x="305" y="0" on="1"/>
        <pt x="323" y="96" on="1"/>
        <pt x="203" y="96" on="1"/>
        <pt x="190" y="72" on="0"/>
        <pt x="165" y="23" on="0"/>
        <pt x="153" y="0" on="1"/>
        <pt x="-47" y="0" on="1"/>
        <pt x="28" y="137" on="0"/>
        <pt x="192" y="415" on="0"/>
        <pt x="276" y="552" on="1"/>
        <pt x="804" y="552" on="1"/>
        <pt x="777" y="408" on="1"/>
        <pt x="572" y="408" on="1"/>
        <pt x="557" y="332" on="1"/>
        <pt x="718" y="332" on="1"/>
        <pt x="696" y="221" on="1"/>
        <pt x="535" y="221" on="1"/>
        <pt x="520" y="144" on="1"/>
        <pt x="733" y="144" on="1"/>
        <pt x="695" y="0" on="1"/>
      </contour>
    </TTGlyph>
    <TTGlyph name="Aacute" xMin="-39" yMin="-5" xMax="596" yMax="911">
      <contour>
        <pt x="246" y="736" on="1"/>
        <pt x="310" y="772" on="0"/>
        <pt x="445" y="864" on="0"/>
        <pt x="502" y="911" on="1"/>
        <pt x="596" y="765" on="1"/>
        <pt x="524" y="722" on="0"/>
        <pt x="349" y="669" on="0"/>
        <pt x="271" y="657" on="1"/>
      </contour>
      <contour>
        <pt x="341" y="-5" on="1"/>
        <pt x="342" y="20" on="0"/>
        <pt x="343" y="73" on="0"/>
        <pt x="344" y="99" on="1"/>
        <pt x="203" y="99" on="1"/>
        <pt x="195" y="74" on="0"/>
        <pt x="177" y="24" on="0"/>
        <pt x="169" y="0" on="1"/>
        <pt x="-39" y="0" on="1"/>
        <pt x="24" y="154" on="0"/>
        <pt x="161" y="466" on="0"/>
        <pt x="232" y="620" on="1"/>
        <pt x="518" y="620" on="1"/>
        <pt x="527" y="474" on="0"/>
        <pt x="543" y="165" on="0"/>
        <pt x="550" y="5" on="1"/>
      </contour>
      <contour>
        <pt x="333" y="459" on="1"/>
        <pt x="314" y="407" on="0"/>
        <pt x="274" y="297" on="0"/>
        <pt x="254" y="242" on="1"/>
        <pt x="347" y="242" on="1"/>
        <pt x="347" y="262" on="0"/>
        <pt x="347" y="302" on="0"/>
        <pt x="347" y="322" on="1"/>
        <pt x="347" y="356" on="0"/>
        <pt x="347" y="425" on="0"/>
        <pt x="346" y="459" on="1"/>
      </contour>
    </TTGlyph>
    <TTGlyph name="Aacute.sc" xMin="-36" yMin="-5" xMax="568" yMax="843">
      <contour>
        <pt x="218" y="668" on="1"/>
        <pt x="282" y="704" on="0"/>
        <pt x="417" y="796" on="0"/>
        <pt x="474" y="843" on="1"/>
        <pt x="568" y="697" on="1"/>
        <pt x="496" y="654" on="0"/>
        <pt x="321" y="601" on="0"/>
        <pt x="243" y="589" on="1"/>
      </contour>
      <contour>
        <pt x="316" y="-5" on="1"/>
        <pt x="317" y="18" on="0"/>
        <pt x="318" y="65" on="0"/>
        <pt x="319" y="89" on="1"/>
        <pt x="197" y="89" on="1"/>
        <pt x="189" y="67" on="0"/>
        <pt x="172" y="22" on="0"/>
        <pt x="165" y="0" on="1"/>
        <pt x="-36" y="0" on="1"/>
        <pt x="23" y="137" on="0"/>
        <pt x="152" y="415" on="0"/>
        <pt x="218" y="552" on="1"/>
        <pt x="481" y="552" on="1"/>
        <pt x="492" y="416" on="0"/>
        <pt x="513" y="141" on="0"/>
        <pt x="523" y="5" on="1"/>
      </contour>
      <contour>
        <pt x="312" y="392" on="1"/>
        <pt x="296" y="350" on="0"/>
        <pt x="262" y="263" on="0"/>
        <pt x="246" y="219" on="1"/>
        <pt x="321" y="219" on="1"/>
        <pt x="321" y="241" on="0"/>
        <pt x="321" y="284" on="0"/>
        <pt x="321" y="305" on="1"/>
        <pt x="321" y="392" on="1"/>
      </contour>
    </TTGlyph>
    <TTGlyph name="Abreve" xMin="-39" yMin="-5" xMax="622" yMax="885">
      <contour>
        <pt x="531" y="882" on="1"/>
        <pt x="622" y="819" on="1"/>
        <pt x="573" y="752" on="0"/>
        <pt x="450" y="661" on="0"/>
        <pt x="382" y="661" on="1"/>
        <pt x="318" y="661" on="0"/>
        <pt x="224" y="749" on="0"/>
        <pt x="200" y="820" on="1"/>
        <pt x="324" y="885" on="1"/>
        <pt x="342" y="848" on="0"/>
        <pt x="386" y="808" on="0"/>
        <pt x="414" y="808" on="1"/>
        <pt x="441" y="808" on="0"/>
        <pt x="499" y="848" on="0"/>
      </contour>
      <contour>
        <pt x="341" y="-5" on="1"/>
        <pt x="342" y="20" on="0"/>
        <pt x="343" y="73" on="0"/>
        <pt x="344" y="99" on="1"/>
        <pt x="203" y="99" on="1"/>
        <pt x="195" y="74" on="0"/>
        <pt x="177" y="24" on="0"/>
        <pt x="169" y="0" on="1"/>
        <pt x="-39" y="0" on="1"/>
        <pt x="24" y="154" on="0"/>
        <pt x="161" y="466" on="0"/>
        <pt x="232" y="620" on="1"/>
        <pt x="518" y="620" on="1"/>
        <pt x="527" y="474" on="0"/>
        <pt x="543" y="165" on="0"/>
        <pt x="550" y="5" on="1"/>
      </contour>
      <contour>
        <pt x="333" y="459" on="1"/>
        <pt x="314" y="407" on="0"/>
        <pt x="274" y="297" on="0"/>
        <pt x="254" y="242" on="1"/>
        <pt x="347" y="242" on="1"/>
        <pt x="347" y="262" on="0"/>
        <pt x="347" y="302" on="0"/>
        <pt x="347" y="322" on="1"/>
        <pt x="347" y="356" on="0"/>
        <pt x="347" y="425" on="0"/>
        <pt x="346" y="459" on="1"/>
      </contour>
    </TTGlyph>
    <TTGlyph name="Abreve.sc" xMin="-36" yMin="-5" xMax="595" yMax="817">
      <contour>
        <pt x="504" y="814" on="1"/>
        <pt x="595" y="751" on="1"/>
        <pt x="546" y="684" on="0"/>
        <pt x="423" y="593" on="0"/>
        <pt x="355" y="593" on="1"/>
        <pt x="291" y="593" on="0"/>
        <pt x="197" y="681" on="0"/>
        <pt x="173" y="752" on="1"/>
        <pt x="297" y="817" on="1"/>
        <pt x="315" y="780" on="0"/>
        <pt x="359" y="740" on="0"/>
        <pt x="387" y="740" on="1"/>
        <pt x="414" y="740" on="0"/>
        <pt x="472" y="780" on="0"/>
      </contour>
      <contour>
        <pt x="316" y="-5" on="1"/>
        <pt x="317" y="18" on="0"/>
        <pt x="318" y="65" on="0"/>
        <pt x="319" y="89" on="1"/>
        <pt x="197" y="89" on="1"/>
        <pt x="189" y="67" on="0"/>
        <pt x="172" y="22" on="0"/>
        <pt x="165" y="0" on="1"/>
        <pt x="-36" y="0" on="1"/>
        <pt x="23" y="137" on="0"/>
        <pt x="152" y="415" on="0"/>
        <pt x="218" y="552" on="1"/>
        <pt x="481" y="552" on="1"/>
        <pt x="492" y="416" on="0"/>
        <pt x="513" y="141" on="0"/>
        <pt x="523" y="5" on="1"/>
      </contour>
      <contour>
        <pt x="312" y="392" on="1"/>
        <pt x="296" y="350" on="0"/>
        <pt x="262" y="263" on="0"/>
        <pt x="246" y="219" on="1"/>
        <pt x="321" y="219" on="1"/>
        <pt x="321" y="241" on="0"/>
        <pt x="321" y="284" on="0"/>
        <pt x="321" y="305" on="1"/>
        <pt x="321" y="392" on="1"/>
      </contour>
    </TTGlyph>
    <TTGlyph name="Acircumflex" xMin="-39" yMin="-5" xMax="601" yMax="893">
      <contour>
        <pt x="490" y="653" on="1"/>
        <pt x="397" y="745" on="1"/>
        <pt x="260" y="656" on="1"/>
        <pt x="189" y="753" on="1"/>
        <pt x="405" y="893" on="1"/>
        <pt x="443" y="893" on="1"/>
        <pt x="601" y="741" on="1"/>
      </contour>
      <contour>
        <pt x="341" y="-5" on="1"/>
        <pt x="342" y="20" on="0"/>
        <pt x="343" y="73" on="0"/>
        <pt x="344" y="99" on="1"/>
        <pt x="203" y="99" on="1"/>
        <pt x="195" y="74" on="0"/>
        <pt x="177" y="24" on="0"/>
        <pt x="169" y="0" on="1"/>
        <pt x="-39" y="0" on="1"/>
        <pt x="24" y="154" on="0"/>
        <pt x="161" y="466" on="0"/>
        <pt x="232" y="620" on="1"/>
        <pt x="518" y="620" on="1"/>
        <pt x="527" y="474" on="0"/>
        <pt x="543" y="165" on="0"/>
        <pt x="550" y="5" on="1"/>
      </contour>
      <contour>
        <pt x="333" y="459" on="1"/>
        <pt x="314" y="407" on="0"/>
        <pt x="274" y="297" on="0"/>
        <pt x="254" y="242" on="1"/>
        <pt x="347" y="242" on="1"/>
        <pt x="347" y="262" on="0"/>
        <pt x="347" y="302" on="0"/>
        <pt x="347" y="322" on="1"/>
        <pt x="347" y="356" on="0"/>
        <pt x="347" y="425" on="0"/>
        <pt x="346" y="459" on="1"/>
      </contour>
    </TTGlyph>
    <TTGlyph name="Acircumflex.sc" xMin="-36" yMin="-5" xMax="574" yMax="825">
      <contour>
        <pt x="463" y="585" on="1"/>
        <pt x="370" y="677" on="1"/>
        <pt x="233" y="588" on="1"/>
        <pt x="162" y="685" on="1"/>
        <pt x="378" y="825" on="1"/>
        <pt x="416" y="825" on="1"/>
        <pt x="574" y="673" on="1"/>
      </contour>
      <contour>
        <pt x="316" y="-5" on="1"/>
        <pt x="317" y="18" on="0"/>
        <pt x="318" y="65" on="0"/>
        <pt x="319" y="89" on="1"/>
        <pt x="197" y="89" on="1"/>
        <pt x="189" y="67" on="0"/>
        <pt x="172" y="22" on="0"/>
        <pt x="165" y="0" on="1"/>
        <pt x="-36" y="0" on="1"/>
        <pt x="23" y="137" on="0"/>
        <pt x="152" y="415" on="0"/>
        <pt x="218" y="552" on="1"/>
        <pt x="481" y="552" on="1"/>
        <pt x="492" y="416" on="0"/>
        <pt x="513" y="141" on="0"/>
        <pt x="523" y="5" on="1"/>
      </contour>
      <contour>
        <pt x="312" y="392" on="1"/>
        <pt x="296" y="350" on="0"/>
        <pt x="262" y="263" on="0"/>
        <pt x="246" y="219" on="1"/>
        <pt x="321" y="219" on="1"/>
        <pt x="321" y="241" on="0"/>
        <pt x="321" y="284" on="0"/>
        <pt x="321" y="305" on="1"/>
        <pt x="321" y="392" on="1"/>
      </contour>
    </TTGlyph>
    <TTGlyph name="Adieresis" xMin="-39" yMin="-5" xMax="630" yMax="841">
      <contour>
        <pt x="584" y="677" on="1"/>
        <pt x="405" y="677" on="1"/>
        <pt x="442" y="838" on="1"/>
        <pt x="630" y="841" on="1"/>
      </contour>
      <contour>
        <pt x="347" y="677" on="1"/>
        <pt x="168" y="676" on="1"/>
        <pt x="205" y="836" on="1"/>
        <pt x="393" y="839" on="1"/>
      </contour>
      <contour>
        <pt x="341" y="-5" on="1"/>
        <pt x="342" y="20" on="0"/>
        <pt x="343" y="73" on="0"/>
        <pt x="344" y="99" on="1"/>
        <pt x="203" y="99" on="1"/>
        <pt x="195" y="74" on="0"/>
        <pt x="177" y="24" on="0"/>
        <pt x="169" y="0" on="1"/>
        <pt x="-39" y="0" on="1"/>
        <pt x="24" y="154" on="0"/>
        <pt x="161" y="466" on="0"/>
        <pt x="232" y="620" on="1"/>
        <pt x="518" y="620" on="1"/>
        <pt x="527" y="474" on="0"/>
        <pt x="543" y="165" on="0"/>
        <pt x="550" y="5" on="1"/>
      </contour>
      <contour>
        <pt x="333" y="459" on="1"/>
        <pt x="314" y="407" on="0"/>
        <pt x="274" y="297" on="0"/>
        <pt x="254" y="242" on="1"/>
        <pt x="347" y="242" on="1"/>
        <pt x="347" y="262" on="0"/>
        <pt x="347" y="302" on="0"/>
        <pt x="347" y="322" on="1"/>
        <pt x="347" y="356" on="0"/>
        <pt x="347" y="425" on="0"/>
        <pt x="346" y="459" on="1"/>
      </contour>
    </TTGlyph>
    <TTGlyph name="Adieresis.sc" xMin="-36" yMin="-5" xMax="603" yMax="773">
      <contour>
        <pt x="557" y="609" on="1"/>
        <pt x="378" y="609" on="1"/>
        <pt x="415" y="770" on="1"/>
        <pt x="603" y="773" on="1"/>
      </contour>
      <contour>
        <pt x="320" y="609" on="1"/>
        <pt x="141" y="608" on="1"/>
        <pt x="178" y="768" on="1"/>
        <pt x="366" y="771" on="1"/>
      </contour>
      <contour>
        <pt x="316" y="-5" on="1"/>
        <pt x="317" y="18" on="0"/>
        <pt x="318" y="65" on="0"/>
        <pt x="319" y="89" on="1"/>
        <pt x="197" y="89" on="1"/>
        <pt x="189" y="67" on="0"/>
        <pt x="172" y="22" on="0"/>
        <pt x="165" y="0" on="1"/>
        <pt x="-36" y="0" on="1"/>
        <pt x="23" y="137" on="0"/>
        <pt x="152" y="415" on="0"/>
        <pt x="218" y="552" on="1"/>
        <pt x="481" y="552" on="1"/>
        <pt x="492" y="416" on="0"/>
        <pt x="513" y="141" on="0"/>
        <pt x="523" y="5" on="1"/>
      </contour>
      <contour>
        <pt x="312" y="392" on="1"/>
        <pt x="296" y="350" on="0"/>
        <pt x="262" y="263" on="0"/>
        <pt x="246" y="219" on="1"/>
        <pt x="321" y="219" on="1"/>
        <pt x="321" y="241" on="0"/>
        <pt x="321" y="284" on="0"/>
        <pt x="321" y="305" on="1"/>
        <pt x="321" y="392" on="1"/>
      </contour>
    </TTGlyph>
    <TTGlyph name="Agrave" xMin="-39" yMin="-5" xMax="550" yMax="912">
      <contour>
        <pt x="525" y="734" on="1"/>
        <pt x="499" y="656" on="1"/>
        <pt x="421" y="669" on="0"/>
        <pt x="253" y="724" on="0"/>
        <pt x="181" y="765" on="1"/>
        <pt x="273" y="912" on="1"/>
        <pt x="330" y="864" on="0"/>
        <pt x="461" y="771" on="0"/>
      </contour>
      <contour>
        <pt x="341" y="-5" on="1"/>
        <pt x="342" y="20" on="0"/>
        <pt x="343" y="73" on="0"/>
        <pt x="344" y="99" on="1"/>
        <pt x="203" y="99" on="1"/>
        <pt x="195" y="74" on="0"/>
        <pt x="177" y="24" on="0"/>
        <pt x="169" y="0" on="1"/>
        <pt x="-39" y="0" on="1"/>
        <pt x="24" y="154" on="0"/>
        <pt x="161" y="466" on="0"/>
        <pt x="232" y="620" on="1"/>
        <pt x="518" y="620" on="1"/>
        <pt x="527" y="474" on="0"/>
        <pt x="543" y="165" on="0"/>
        <pt x="550" y="5" on="1"/>
      </contour>
      <contour>
        <pt x="333" y="459" on="1"/>
        <pt x="314" y="407" on="0"/>
        <pt x="274" y="297" on="0"/>
        <pt x="254" y="242" on="1"/>
        <pt x="347" y="242" on="1"/>
        <pt x="347" y="262" on="0"/>
        <pt x="347" y="302" on="0"/>
        <pt x="347" y="322" on="1"/>
        <pt x="347" y="356" on="0"/>
        <pt x="347" y="425" on="0"/>
        <pt x="346" y="459" on="1"/>
      </contour>
    </TTGlyph>
    <TTGlyph name="Agrave.sc" xMin="-36" yMin="-5" xMax="523" yMax="844">
      <contour>
        <pt x="498" y="666" on="1"/>
        <pt x="472" y="588" on="1"/>
        <pt x="394" y="601" on="0"/>
        <pt x="226" y="656" on="0"/>
        <pt x="154" y="697" on="1"/>
        <pt x="246" y="844" on="1"/>
        <pt x="303" y="796" on="0"/>
        <pt x="434" y="703" on="0"/>
      </contour>
      <contour>
        <pt x="316" y="-5" on="1"/>
        <pt x="317" y="18" on="0"/>
        <pt x="318" y="65" on="0"/>
        <pt x="319" y="89" on="1"/>
        <pt x="197" y="89" on="1"/>
        <pt x="189" y="67" on="0"/>
        <pt x="172" y="22" on="0"/>
        <pt x="165" y="0" on="1"/>
        <pt x="-36" y="0" on="1"/>
        <pt x="23" y="137" on="0"/>
        <pt x="152" y="415" on="0"/>
        <pt x="218" y="552" on="1"/>
        <pt x="481" y="552" on="1"/>
        <pt x="492" y="416" on="0"/>
        <pt x="513" y="141" on="0"/>
        <pt x="523" y="5" on="1"/>
      </contour>
      <contour>
        <pt x="312" y="392" on="1"/>
        <pt x="296" y="350" on="0"/>
        <pt x="262" y="263" on="0"/>
        <pt x="246" y="219" on="1"/>
        <pt x="321" y="219" on="1"/>
        <pt x="321" y="241" on="0"/>
        <pt x="321" y="284" on="0"/>
        <pt x="321" y="305" on="1"/>
        <pt x="321" y="392" on="1"/>
      </contour>
    </TTGlyph>
    <TTGlyph name="Amacron" xMin="-39" yMin="-5" xMax="603" yMax="841">
      <contour>
        <pt x="603" y="841" on="1"/>
        <pt x="572" y="683" on="1"/>
        <pt x="195" y="683" on="1"/>
        <pt x="226" y="841" on="1"/>
      </contour>
      <contour>
        <pt x="341" y="-5" on="1"/>
        <pt x="342" y="20" on="0"/>
        <pt x="343" y="73" on="0"/>
        <pt x="344" y="99" on="1"/>
        <pt x="203" y="99" on="1"/>
        <pt x="195" y="74" on="0"/>
        <pt x="177" y="24" on="0"/>
        <pt x="169" y="0" on="1"/>
        <pt x="-39" y="0" on="1"/>
        <pt x="24" y="154" on="0"/>
        <pt x="161" y="466" on="0"/>
        <pt x="232" y="620" on="1"/>
        <pt x="518" y="620" on="1"/>
        <pt x="527" y="474" on="0"/>
        <pt x="543" y="165" on="0"/>
        <pt x="550" y="5" on="1"/>
      </contour>
      <contour>
        <pt x="333" y="459" on="1"/>
        <pt x="314" y="407" on="0"/>
        <pt x="274" y="297" on="0"/>
        <pt x="254" y="242" on="1"/>
        <pt x="347" y="242" on="1"/>
        <pt x="347" y="262" on="0"/>
        <pt x="347" y="302" on="0"/>
        <pt x="347" y="322" on="1"/>
        <pt x="347" y="356" on="0"/>
        <pt x="347" y="425" on="0"/>
        <pt x="346" y="459" on="1"/>
      </contour>
    </TTGlyph>
    <TTGlyph name="Amacron.sc" xMin="-36" yMin="-5" xMax="576" yMax="773">
      <contour>
        <pt x="576" y="773" on="1"/>
        <pt x="545" y="615" on="1"/>
        <pt x="168" y="615" on="1"/>
        <pt x="199" y="773" on="1"/>
      </contour>
      <contour>
        <pt x="316" y="-5" on="1"/>
        <pt x="317" y="18" on="0"/>
        <pt x="318" y="65" on="0"/>
        <pt x="319" y="89" on="1"/>
        <pt x="197" y="89" on="1"/>
        <pt x="189" y="67" on="0"/>
        <pt x="172" y="22" on="0"/>
        <pt x="165" y="0" on="1"/>
        <pt x="-36" y="0" on="1"/>
        <pt x="23" y="137" on="0"/>
        <pt x="152" y="415" on="0"/>
        <pt x="218" y="552" on="1"/>
        <pt x="481" y="552" on="1"/>
        <pt x="492" y="416" on="0"/>
        <pt x="513" y="141" on="0"/>
        <pt x="523" y="5" on="1"/>
      </contour>
      <contour>
        <pt x="312" y="392" on="1"/>
        <pt x="296" y="350" on="0"/>
        <pt x="262" y="263" on="0"/>
        <pt x="246" y="219" on="1"/>
        <pt x="321" y="219" on="1"/>
        <pt x="321" y="241" on="0"/>
        <pt x="321" y="284" on="0"/>
        <pt x="321" y="305" on="1"/>
        <pt x="321" y="392" on="1"/>
      </contour>
    </TTGlyph>
    <TTGlyph name="Aogonek" xMin="-39" yMin="-227" xMax="551" yMax="620">
      <contour>
        <pt x="348" y="-227" on="1"/>
        <pt x="290" y="-227" on="0"/>
        <pt x="233" y="-173" on="0"/>
        <pt x="233" y="-131" on="1"/>
        <pt x="233" y="-97" on="0"/>
        <pt x="281" y="-25" on="0"/>
        <pt x="341" y="6" on="1"/>
        <pt x="342" y="29" on="0"/>
        <pt x="343" y="76" on="0"/>
        <pt x="344" y="99" on="1"/>
        <pt x="203" y="99" on="1"/>
        <pt x="195" y="74" on="0"/>
        <pt x="177" y="24" on="0"/>
        <pt x="169" y="0" on="1"/>
        <pt x="-39" y="0" on="1"/>
        <pt x="24" y="154" on="0"/>
        <pt x="161" y="466" on="0"/>
        <pt x="232" y="620" on="1"/>
        <pt x="518" y="620" on="1"/>
        <pt x="527" y="474" on="0"/>
        <pt x="543" y="166" on="0"/>
        <pt x="550" y="6" on="1"/>
        <pt x="551" y="5" on="1"/>
        <pt x="457" y="-14" on="0"/>
        <pt x="391" y="-59" on="0"/>
        <pt x="391" y="-75" on="1"/>
        <pt x="391" y="-87" on="0"/>
        <pt x="413" y="-99" on="0"/>
        <pt x="437" y="-99" on="1"/>
        <pt x="448" y="-99" on="0"/>
        <pt x="477" y="-96" on="0"/>
        <pt x="495" y="-93" on="1"/>
        <pt x="500" y="-192" on="1"/>
        <pt x="454" y="-210" on="0"/>
        <pt x="378" y="-227" on="0"/>
      </contour>
      <contour>
        <pt x="333" y="459" on="1"/>
        <pt x="314" y="407" on="0"/>
        <pt x="274" y="297" on="0"/>
        <pt x="254" y="242" on="1"/>
        <pt x="347" y="242" on="1"/>
        <pt x="347" y="262" on="0"/>
        <pt x="347" y="302" on="0"/>
        <pt x="347" y="322" on="1"/>
        <pt x="347" y="356" on="0"/>
        <pt x="347" y="425" on="0"/>
        <pt x="346" y="459" on="1"/>
      </contour>
    </TTGlyph>
    <TTGlyph name="Aogonek.sc" xMin="-36" yMin="-227" xMax="523" yMax="552">
      <contour>
        <pt x="320" y="-227" on="1"/>
        <pt x="262" y="-227" on="0"/>
        <pt x="205" y="-173" on="0"/>
        <pt x="205" y="-131" on="1"/>
        <pt x="205" y="-96" on="0"/>
        <pt x="255" y="-24" on="0"/>
        <pt x="316" y="8" on="1"/>
        <pt x="317" y="28" on="0"/>
        <pt x="318" y="69" on="0"/>
        <pt x="319" y="89" on="1"/>
        <pt x="197" y="89" on="1"/>
        <pt x="189" y="67" on="0"/>
        <pt x="172" y="22" on="0"/>
        <pt x="165" y="0" on="1"/>
        <pt x="-36" y="0" on="1"/>
        <pt x="23" y="137" on="0"/>
        <pt x="152" y="415" on="0"/>
        <pt x="218" y="552" on="1"/>
        <pt x="481" y="552" on="1"/>
        <pt x="492" y="416" on="0"/>
        <pt x="513" y="141" on="0"/>
        <pt x="523" y="5" on="1"/>
        <pt x="429" y="-14" on="0"/>
        <pt x="363" y="-59" on="0"/>
        <pt x="363" y="-75" on="1"/>
        <pt x="363" y="-87" on="0"/>
        <pt x="385" y="-99" on="0"/>
        <pt x="409" y="-99" on="1"/>
        <pt x="420" y="-99" on="0"/>
        <pt x="449" y="-96" on="0"/>
        <pt x="467" y="-93" on="1"/>
        <pt x="472" y="-192" on="1"/>
        <pt x="426" y="-210" on="0"/>
        <pt x="350" y="-227" on="0"/>
      </contour>
      <contour>
        <pt x="312" y="392" on="1"/>
        <pt x="296" y="350" on="0"/>
        <pt x="262" y="263" on="0"/>
        <pt x="246" y="219" on="1"/>
        <pt x="321" y="219" on="1"/>
        <pt x="321" y="241" on="0"/>
        <pt x="321" y="284" on="0"/>
        <pt x="321" y="305" on="1"/>
        <pt x="321" y="392" on="1"/>
      </contour>
    </TTGlyph>
    <TTGlyph name="Aring" xMin="-39" yMin="-5" xMax="556" yMax="920">
      <contour>
        <pt x="417" y="920" on="1"/>
        <pt x="480" y="920" on="0"/>
        <pt x="556" y="850" on="0"/>
        <pt x="556" y="799" on="1"/>
        <pt x="556" y="743" on="0"/>
        <pt x="464" y="658" on="0"/>
        <pt x="392" y="658" on="1"/>
        <pt x="328" y="658" on="0"/>
        <pt x="253" y="729" on="0"/>
        <pt x="253" y="780" on="1"/>
        <pt x="253" y="836" on="0"/>
        <pt x="345" y="920" on="0"/>
      </contour>
      <contour>
        <pt x="341" y="-5" on="1"/>
        <pt x="342" y="20" on="0"/>
        <pt x="343" y="73" on="0"/>
        <pt x="344" y="99" on="1"/>
        <pt x="203" y="99" on="1"/>
        <pt x="195" y="74" on="0"/>
        <pt x="177" y="24" on="0"/>
        <pt x="169" y="0" on="1"/>
        <pt x="-39" y="0" on="1"/>
        <pt x="24" y="154" on="0"/>
        <pt x="161" y="466" on="0"/>
        <pt x="232" y="620" on="1"/>
        <pt x="518" y="620" on="1"/>
        <pt x="527" y="474" on="0"/>
        <pt x="543" y="165" on="0"/>
        <pt x="550" y="5" on="1"/>
      </contour>
      <contour>
        <pt x="333" y="459" on="1"/>
        <pt x="314" y="407" on="0"/>
        <pt x="274" y="297" on="0"/>
        <pt x="254" y="242" on="1"/>
        <pt x="347" y="242" on="1"/>
        <pt x="347" y="262" on="0"/>
        <pt x="347" y="302" on="0"/>
        <pt x="347" y="322" on="1"/>
        <pt x="347" y="356" on="0"/>
        <pt x="347" y="425" on="0"/>
        <pt x="346" y="459" on="1"/>
      </contour>
    </TTGlyph>
    <TTGlyph name="Aring.sc" xMin="-36" yMin="-5" xMax="529" yMax="852">
      <contour>
        <pt x="390" y="852" on="1"/>
        <pt x="453" y="852" on="0"/>
        <pt x="529" y="782" on="0"/>
        <pt x="529" y="731" on="1"/>
        <pt x="529" y="675" on="0"/>
        <pt x="437" y="590" on="0"/>
        <pt x="365" y="590" on="1"/>
        <pt x="301" y="590" on="0"/>
        <pt x="226" y="661" on="0"/>
        <pt x="226" y="712" on="1"/>
        <pt x="226" y="768" on="0"/>
        <pt x="318" y="852" on="0"/>
      </contour>
      <contour>
        <pt x="316" y="-5" on="1"/>
        <pt x="317" y="18" on="0"/>
        <pt x="318" y="65" on="0"/>
        <pt x="319" y="89" on="1"/>
        <pt x="197" y="89" on="1"/>
        <pt x="189" y="67" on="0"/>
        <pt x="172" y="22" on="0"/>
        <pt x="165" y="0" on="1"/>
        <pt x="-36" y="0" on="1"/>
        <pt x="23" y="137" on="0"/>
        <pt x="152" y="415" on="0"/>
        <pt x="218" y="552" on="1"/>
        <pt x="481" y="552" on="1"/>
        <pt x="492" y="416" on="0"/>
        <pt x="513" y="141" on="0"/>
        <pt x="523" y="5" on="1"/>
      </contour>
      <contour>
        <pt x="312" y="392" on="1"/>
        <pt x="296" y="350" on="0"/>
        <pt x="262" y="263" on="0"/>
        <pt x="246" y="219" on="1"/>
        <pt x="321" y="219" on="1"/>
        <pt x="321" y="241" on="0"/>
        <pt x="321" y="284" on="0"/>
        <pt x="321" y="305" on="1"/>
        <pt x="321" y="392" on="1"/>
      </contour>
    </TTGlyph>
    <TTGlyph name="Aringacute" xMin="-39" yMin="-5" xMax="651" yMax="1197">
      <contour>
        <pt x="301" y="1022" on="1"/>
        <pt x="365" y="1058" on="0"/>
        <pt x="500" y="1150" on="0"/>
        <pt x="557" y="1197" on="1"/>
        <pt x="651" y="1051" on="1"/>
        <pt x="579" y="1008" on="0"/>
        <pt x="404" y="955" on="0"/>
        <pt x="326" y="943" on="1"/>
      </contour>
      <contour>
        <pt x="417" y="920" on="1"/>
        <pt x="480" y="920" on="0"/>
        <pt x="556" y="850" on="0"/>
        <pt x="556" y="799" on="1"/>
        <pt x="556" y="743" on="0"/>
        <pt x="464" y="658" on="0"/>
        <pt x="392" y="658" on="1"/>
        <pt x="328" y="658" on="0"/>
        <pt x="253" y="729" on="0"/>
        <pt x="253" y="780" on="1"/>
        <pt x="253" y="836" on="0"/>
        <pt x="345" y="920" on="0"/>
      </contour>
      <contour>
        <pt x="341" y="-5" on="1"/>
        <pt x="342" y="20" on="0"/>
        <pt x="343" y="73" on="0"/>
        <pt x="344" y="99" on="1"/>
        <pt x="203" y="99" on="1"/>
        <pt x="195" y="74" on="0"/>
        <pt x="177" y="24" on="0"/>
        <pt x="169" y="0" on="1"/>
        <pt x="-39" y="0" on="1"/>
        <pt x="24" y="154" on="0"/>
        <pt x="161" y="466" on="0"/>
        <pt x="232" y="620" on="1"/>
        <pt x="518" y="620" on="1"/>
        <pt x="527" y="474" on="0"/>
        <pt x="543" y="165" on="0"/>
        <pt x="550" y="5" on="1"/>
      </contour>
      <contour>
        <pt x="333" y="459" on="1"/>
        <pt x="314" y="407" on="0"/>
        <pt x="274" y="297" on="0"/>
        <pt x="254" y="242" on="1"/>
        <pt x="347" y="242" on="1"/>
        <pt x="347" y="262" on="0"/>
        <pt x="347" y="302" on="0"/>
        <pt x="347" y="322" on="1"/>
        <pt x="347" y="356" on="0"/>
        <pt x="347" y="425" on="0"/>
        <pt x="346" y="459" on="1"/>
      </contour>
    </TTGlyph>
    <TTGlyph name="Aringacute.sc" xMin="-36" yMin="-5" xMax="624" yMax="1129">
      <contour>
        <pt x="274" y="954" on="1"/>
        <pt x="338" y="990" on="0"/>
        <pt x="473" y="1082" on="0"/>
        <pt x="530" y="1129" on="1"/>
        <pt x="624" y="983" on="1"/>
        <pt x="552" y="940" on="0"/>
        <pt x="377" y="887" on="0"/>
        <pt x="299" y="875" on="1"/>
      </contour>
      <contour>
        <pt x="390" y="852" on="1"/>
        <pt x="453" y="852" on="0"/>
        <pt x="529" y="782" on="0"/>
        <pt x="529" y="731" on="1"/>
        <pt x="529" y="675" on="0"/>
        <pt x="437" y="590" on="0"/>
        <pt x="365" y="590" on="1"/>
        <pt x="301" y="590" on="0"/>
        <pt x="226" y="661" on="0"/>
        <pt x="226" y="712" on="1"/>
        <pt x="226" y="768" on="0"/>
        <pt x="318" y="852" on="0"/>
      </contour>
      <contour>
        <pt x="316" y="-5" on="1"/>
        <pt x="317" y="18" on="0"/>
        <pt x="318" y="65" on="0"/>
        <pt x="319" y="89" on="1"/>
        <pt x="197" y="89" on="1"/>
        <pt x="189" y="67" on="0"/>
        <pt x="172" y="22" on="0"/>
        <pt x="165" y="0" on="1"/>
        <pt x="-36" y="0" on="1"/>
        <pt x="23" y="137" on="0"/>
        <pt x="152" y="415" on="0"/>
        <pt x="218" y="552" on="1"/>
        <pt x="481" y="552" on="1"/>
        <pt x="492" y="416" on="0"/>
        <pt x="513" y="141" on="0"/>
        <pt x="523" y="5" on="1"/>
      </contour>
      <contour>
        <pt x="312" y="392" on="1"/>
        <pt x="296" y="350" on="0"/>
        <pt x="262" y="263" on="0"/>
        <pt x="246" y="219" on="1"/>
        <pt x="321" y="219" on="1"/>
        <pt x="321" y="241" on="0"/>
        <pt x="321" y="284" on="0"/>
        <pt x="321" y="305" on="1"/>
        <pt x="321" y="392" on="1"/>
      </contour>
    </TTGlyph>
    <TTGlyph name="Atilde" xMin="-39" yMin="-5" xMax="637" yMax="879">
      <contour>
        <pt x="486" y="809" on="1"/>
        <pt x="497" y="809" on="0"/>
        <pt x="528" y="842" on="0"/>
        <pt x="550" y="876" on="1"/>
        <pt x="637" y="825" on="1"/>
        <pt x="597" y="753" on="0"/>
        <pt x="512" y="667" on="0"/>
        <pt x="465" y="667" on="1"/>
        <pt x="440" y="667" on="0"/>
        <pt x="396" y="689" on="0"/>
        <pt x="359" y="714" on="0"/>
        <pt x="329" y="736" on="0"/>
        <pt x="318" y="736" on="1"/>
        <pt x="307" y="736" on="0"/>
        <pt x="277" y="703" on="0"/>
        <pt x="254" y="669" on="1"/>
        <pt x="168" y="720" on="1"/>
        <pt x="206" y="791" on="0"/>
        <pt x="290" y="879" on="0"/>
        <pt x="337" y="879" on="1"/>
        <pt x="362" y="879" on="0"/>
        <pt x="406" y="857" on="0"/>
        <pt x="444" y="831" on="0"/>
        <pt x="475" y="809" on="0"/>
      </contour>
      <contour>
        <pt x="341" y="-5" on="1"/>
        <pt x="342" y="20" on="0"/>
        <pt x="343" y="73" on="0"/>
        <pt x="344" y="99" on="1"/>
        <pt x="203" y="99" on="1"/>
        <pt x="195" y="74" on="0"/>
        <pt x="177" y="24" on="0"/>
        <pt x="169" y="0" on="1"/>
        <pt x="-39" y="0" on="1"/>
        <pt x="24" y="154" on="0"/>
        <pt x="161" y="466" on="0"/>
        <pt x="232" y="620" on="1"/>
        <pt x="518" y="620" on="1"/>
        <pt x="527" y="474" on="0"/>
        <pt x="543" y="165" on="0"/>
        <pt x="550" y="5" on="1"/>
      </contour>
      <contour>
        <pt x="333" y="459" on="1"/>
        <pt x="314" y="407" on="0"/>
        <pt x="274" y="297" on="0"/>
        <pt x="254" y="242" on="1"/>
        <pt x="347" y="242" on="1"/>
        <pt x="347" y="262" on="0"/>
        <pt x="347" y="302" on="0"/>
        <pt x="347" y="322" on="1"/>
        <pt x="347" y="356" on="0"/>
        <pt x="347" y="425" on="0"/>
        <pt x="346" y="459" on="1"/>
      </contour>
    </TTGlyph>
    <TTGlyph name="Atilde.sc" xMin="-36" yMin="-5" xMax="610" yMax="811">
      <contour>
        <pt x="459" y="741" on="1"/>
        <pt x="470" y="741" on="0"/>
        <pt x="501" y="774" on="0"/>
        <pt x="523" y="808" on="1"/>
        <pt x="610" y="757" on="1"/>
        <pt x="570" y="685" on="0"/>
        <pt x="485" y="599" on="0"/>
        <pt x="438" y="599" on="1"/>
        <pt x="413" y="599" on="0"/>
        <pt x="369" y="621" on="0"/>
        <pt x="332" y="646" on="0"/>
        <pt x="302" y="668" on="0"/>
        <pt x="291" y="668" on="1"/>
        <pt x="280" y="668" on="0"/>
        <pt x="250" y="635" on="0"/>
        <pt x="227" y="601" on="1"/>
        <pt x="141" y="652" on="1"/>
        <pt x="179" y="723" on="0"/>
        <pt x="263" y="811" on="0"/>
        <pt x="310" y="811" on="1"/>
        <pt x="335" y="811" on="0"/>
        <pt x="379" y="789" on="0"/>
        <pt x="417" y="763" on="0"/>
        <pt x="448" y="741" on="0"/>
      </contour>
      <contour>
        <pt x="316" y="-5" on="1"/>
        <pt x="317" y="18" on="0"/>
        <pt x="318" y="65" on="0"/>
        <pt x="319" y="89" on="1"/>
        <pt x="197" y="89" on="1"/>
        <pt x="189" y="67" on="0"/>
        <pt x="172" y="22" on="0"/>
        <pt x="165" y="0" on="1"/>
        <pt x="-36" y="0" on="1"/>
        <pt x="23" y="137" on="0"/>
        <pt x="152" y="415" on="0"/>
        <pt x="218" y="552" on="1"/>
        <pt x="481" y="552" on="1"/>
        <pt x="492" y="416" on="0"/>
        <pt x="513" y="141" on="0"/>
        <pt x="523" y="5" on="1"/>
      </contour>
      <contour>
        <pt x="312" y="392" on="1"/>
        <pt x="296" y="350" on="0"/>
        <pt x="262" y="263" on="0"/>
        <pt x="246" y="219" on="1"/>
        <pt x="321" y="219" on="1"/>
        <pt x="321" y="241" on="0"/>
        <pt x="321" y="284" on="0"/>
        <pt x="321" y="305" on="1"/>
        <pt x="321" y="392" on="1"/>
      </contour>
    </TTGlyph>
    <TTGlyph name="B" xMin="6" yMin="-9" xMax="584" yMax="629">
      <contour>
        <pt x="184" y="-9" on="1"/>
        <pt x="144" y="-9" on="0"/>
        <pt x="55" y="-4" on="0"/>
        <pt x="6" y="2" on="1"/>
        <pt x="125" y="614" on="1"/>
        <pt x="178" y="621" on="0"/>
        <pt x="272" y="629" on="0"/>
        <pt x="312" y="629" on="1"/>
        <pt x="457" y="629" on="0"/>
        <pt x="584" y="544" on="0"/>
        <pt x="584" y="480" on="1"/>
        <pt x="584" y="432" on="0"/>
        <pt x="520" y="349" on="0"/>
        <pt x="458" y="321" on="1"/>
        <pt x="503" y="303" on="0"/>
        <pt x="549" y="237" on="0"/>
        <pt x="549" y="194" on="1"/>
        <pt x="549" y="153" on="0"/>
        <pt x="510" y="79" on="0"/>
        <pt x="424" y="24" on="0"/>
        <pt x="284" y="-9" on="0"/>
      </contour>
      <contour>
        <pt x="316" y="471" on="1"/>
        <pt x="311" y="471" on="0"/>
        <pt x="300" y="471" on="0"/>
        <pt x="294" y="470" on="1"/>
        <pt x="272" y="355" on="1"/>
        <pt x="335" y="360" on="0"/>
        <pt x="391" y="399" on="0"/>
        <pt x="391" y="424" on="1"/>
        <pt x="391" y="446" on="0"/>
        <pt x="353" y="471" on="0"/>
      </contour>
      <contour>
        <pt x="267" y="148" on="1"/>
        <pt x="315" y="148" on="0"/>
        <pt x="363" y="183" on="0"/>
        <pt x="363" y="208" on="1"/>
        <pt x="363" y="231" on="0"/>
        <pt x="322" y="259" on="0"/>
        <pt x="278" y="259" on="1"/>
        <pt x="273" y="259" on="0"/>
        <pt x="260" y="259" on="0"/>
        <pt x="254" y="258" on="1"/>
        <pt x="233" y="150" on="1"/>
        <pt x="242" y="149" on="0"/>
        <pt x="260" y="148" on="0"/>
      </contour>
    </TTGlyph>
    <TTGlyph name="B.sc" xMin="5" yMin="-8" xMax="548" yMax="560">
      <contour>
        <pt x="177" y="-8" on="1"/>
        <pt x="140" y="-8" on="0"/>
        <pt x="54" y="-3" on="0"/>
        <pt x="5" y="2" on="1"/>
        <pt x="110" y="546" on="1"/>
        <pt x="162" y="553" on="0"/>
        <pt x="253" y="560" on="0"/>
        <pt x="291" y="560" on="1"/>
        <pt x="429" y="560" on="0"/>
        <pt x="548" y="484" on="0"/>
        <pt x="548" y="424" on="1"/>
        <pt x="548" y="384" on="0"/>
        <pt x="489" y="310" on="0"/>
        <pt x="431" y="285" on="1"/>
        <pt x="474" y="269" on="0"/>
        <pt x="518" y="209" on="0"/>
        <pt x="518" y="169" on="1"/>
        <pt x="518" y="134" on="0"/>
        <pt x="484" y="70" on="0"/>
        <pt x="406" y="21" on="0"/>
        <pt x="274" y="-8" on="0"/>
      </contour>
      <contour>
        <pt x="293" y="417" on="1"/>
        <pt x="289" y="417" on="0"/>
        <pt x="279" y="417" on="0"/>
        <pt x="275" y="416" on="1"/>
        <pt x="255" y="317" on="1"/>
        <pt x="313" y="321" on="0"/>
        <pt x="363" y="354" on="0"/>
        <pt x="363" y="376" on="1"/>
        <pt x="363" y="395" on="0"/>
        <pt x="327" y="417" on="0"/>
      </contour>
      <contour>
        <pt x="253" y="134" on="1"/>
        <pt x="297" y="134" on="0"/>
        <pt x="340" y="163" on="0"/>
        <pt x="340" y="185" on="1"/>
        <pt x="340" y="206" on="0"/>
        <pt x="302" y="230" on="0"/>
        <pt x="261" y="230" on="1"/>
        <pt x="256" y="230" on="0"/>
        <pt x="245" y="230" on="0"/>
        <pt x="238" y="229" on="1"/>
        <pt x="221" y="136" on="1"/>
        <pt x="229" y="135" on="0"/>
        <pt x="246" y="134" on="0"/>
      </contour>
    </TTGlyph>
    <TTGlyph name="C" xMin="31" yMin="-11" xMax="567" yMax="632">
      <contour>
        <pt x="380" y="632" on="1"/>
        <pt x="473" y="632" on="0"/>
        <pt x="567" y="524" on="0"/>
        <pt x="567" y="403" on="1"/>
        <pt x="567" y="393" on="0"/>
        <pt x="567" y="370" on="0"/>
        <pt x="566" y="358" on="1"/>
        <pt x="381" y="356" on="1"/>
        <pt x="382" y="363" on="0"/>
        <pt x="382" y="375" on="0"/>
        <pt x="382" y="381" on="1"/>
        <pt x="382" y="418" on="0"/>
        <pt x="363" y="452" on="0"/>
        <pt x="343" y="452" on="1"/>
        <pt x="321" y="452" on="0"/>
        <pt x="283" y="417" on="0"/>
        <pt x="255" y="364" on="0"/>
        <pt x="239" y="299" on="0"/>
        <pt x="239" y="270" on="1"/>
        <pt x="239" y="222" on="0"/>
        <pt x="292" y="173" on="0"/>
        <pt x="358" y="173" on="1"/>
        <pt x="389" y="173" on="0"/>
        <pt x="468" y="184" on="0"/>
        <pt x="518" y="194" on="1"/>
        <pt x="491" y="21" on="1"/>
        <pt x="432" y="5" on="0"/>
        <pt x="330" y="-11" on="0"/>
        <pt x="287" y="-11" on="1"/>
        <pt x="157" y="-11" on="0"/>
        <pt x="31" y="119" on="0"/>
        <pt x="31" y="228" on="1"/>
        <pt x="31" y="307" on="0"/>
        <pt x="86" y="454" on="0"/>
        <pt x="180" y="565" on="0"/>
        <pt x="308" y="632" on="0"/>
      </contour>
    </TTGlyph>
    <TTGlyph name="C.sc" xMin="25" yMin="-11" xMax="530" yMax="564">
      <contour>
        <pt x="351" y="564" on="1"/>
        <pt x="438" y="564" on="0"/>
        <pt x="530" y="470" on="0"/>
        <pt x="530" y="364" on="1"/>
        <pt x="530" y="354" on="0"/>
        <pt x="529" y="330" on="0"/>
        <pt x="528" y="318" on="1"/>
        <pt x="353" y="316" on="1"/>
        <pt x="353" y="330" on="1"/>
        <pt x="353" y="367" on="0"/>
        <pt x="337" y="398" on="0"/>
        <pt x="318" y="398" on="1"/>
        <pt x="298" y="398" on="0"/>
        <pt x="264" y="368" on="0"/>
        <pt x="239" y="323" on="0"/>
        <pt x="225" y="267" on="0"/>
        <pt x="225" y="242" on="1"/>
        <pt x="225" y="200" on="0"/>
        <pt x="275" y="157" on="0"/>
        <pt x="337" y="157" on="1"/>
        <pt x="365" y="157" on="0"/>
        <pt x="440" y="166" on="0"/>
        <pt x="487" y="176" on="1"/>
        <pt x="463" y="18" on="1"/>
        <pt x="407" y="3" on="0"/>
        <pt x="310" y="-11" on="0"/>
        <pt x="269" y="-11" on="1"/>
        <pt x="145" y="-11" on="0"/>
        <pt x="25" y="106" on="0"/>
        <pt x="25" y="205" on="1"/>
        <pt x="25" y="276" on="0"/>
        <pt x="75" y="406" on="0"/>
        <pt x="163" y="505" on="0"/>
        <pt x="282" y="564" on="0"/>
      </contour>
    </TTGlyph>
    <TTGlyph name="Cacute" xMin="31" yMin="-11" xMax="606" yMax="920">
      <contour>
        <pt x="256" y="745" on="1"/>
        <pt x="320" y="781" on="0"/>
        <pt x="455" y="873" on="0"/>
        <pt x="512" y="920" on="1"/>
        <pt x="606" y="774" on="1"/>
        <pt x="534" y="731" on="0"/>
        <pt x="359" y="678" on="0"/>
        <pt x="281" y="666" on="1"/>
      </contour>
      <contour>
        <pt x="380" y="632" on="1"/>
        <pt x="473" y="632" on="0"/>
        <pt x="567" y="524" on="0"/>
        <pt x="567" y="403" on="1"/>
        <pt x="567" y="393" on="0"/>
        <pt x="567" y="370" on="0"/>
        <pt x="566" y="358" on="1"/>
        <pt x="381" y="356" on="1"/>
        <pt x="382" y="363" on="0"/>
        <pt x="382" y="375" on="0"/>
        <pt x="382" y="381" on="1"/>
        <pt x="382" y="418" on="0"/>
        <pt x="363" y="452" on="0"/>
        <pt x="343" y="452" on="1"/>
        <pt x="321" y="452" on="0"/>
        <pt x="283" y="417" on="0"/>
        <pt x="255" y="364" on="0"/>
        <pt x="239" y="299" on="0"/>
        <pt x="239" y="270" on="1"/>
        <pt x="239" y="222" on="0"/>
        <pt x="292" y="173" on="0"/>
        <pt x="358" y="173" on="1"/>
        <pt x="389" y="173" on="0"/>
        <pt x="468" y="184" on="0"/>
        <pt x="518" y="194" on="1"/>
        <pt x="491" y="21" on="1"/>
        <pt x="432" y="5" on="0"/>
        <pt x="330" y="-11" on="0"/>
        <pt x="287" y="-11" on="1"/>
        <pt x="157" y="-11" on="0"/>
        <pt x="31" y="119" on="0"/>
        <pt x="31" y="228" on="1"/>
        <pt x="31" y="307" on="0"/>
        <pt x="86" y="454" on="0"/>
        <pt x="180" y="565" on="0"/>
        <pt x="308" y="632" on="0"/>
      </contour>
    </TTGlyph>
    <TTGlyph name="Cacute.sc" xMin="25" yMin="-11" xMax="579" yMax="851">
      <contour>
        <pt x="229" y="676" on="1"/>
        <pt x="293" y="712" on="0"/>
        <pt x="428" y="804" on="0"/>
        <pt x="485" y="851" on="1"/>
        <pt x="579" y="705" on="1"/>
        <pt x="507" y="662" on="0"/>
        <pt x="332" y="609" on="0"/>
        <pt x="254" y="597" on="1"/>
      </contour>
      <contour>
        <pt x="351" y="564" on="1"/>
        <pt x="438" y="564" on="0"/>
        <pt x="530" y="470" on="0"/>
        <pt x="530" y="364" on="1"/>
        <pt x="530" y="354" on="0"/>
        <pt x="529" y="330" on="0"/>
        <pt x="528" y="318" on="1"/>
        <pt x="353" y="316" on="1"/>
        <pt x="353" y="330" on="1"/>
        <pt x="353" y="367" on="0"/>
        <pt x="337" y="398" on="0"/>
        <pt x="318" y="398" on="1"/>
        <pt x="298" y="398" on="0"/>
        <pt x="264" y="368" on="0"/>
        <pt x="239" y="323" on="0"/>
        <pt x="225" y="267" on="0"/>
        <pt x="225" y="242" on="1"/>
        <pt x="225" y="200" on="0"/>
        <pt x="275" y="157" on="0"/>
        <pt x="337" y="157" on="1"/>
        <pt x="365" y="157" on="0"/>
        <pt x="440" y="166" on="0"/>
        <pt x="487" y="176" on="1"/>
        <pt x="463" y="18" on="1"/>
        <pt x="407" y="3" on="0"/>
        <pt x="310" y="-11" on="0"/>
        <pt x="269" y="-11" on="1"/>
        <pt x="145" y="-11" on="0"/>
        <pt x="25" y="106" on="0"/>
        <pt x="25" y="205" on="1"/>
        <pt x="25" y="276" on="0"/>
        <pt x="75" y="406" on="0"/>
        <pt x="163" y="505" on="0"/>
        <pt x="282" y="564" on="0"/>
      </contour>
    </TTGlyph>
    <TTGlyph name="Ccaron" xMin="31" yMin="-11" xMax="623" yMax="904">
      <contour>
        <pt x="408" y="664" on="1"/>
        <pt x="370" y="664" on="1"/>
        <pt x="212" y="815" on="1"/>
        <pt x="323" y="904" on="1"/>
        <pt x="416" y="812" on="1"/>
        <pt x="553" y="900" on="1"/>
        <pt x="623" y="804" on="1"/>
      </contour>
      <contour>
        <pt x="380" y="632" on="1"/>
        <pt x="473" y="632" on="0"/>
        <pt x="567" y="524" on="0"/>
        <pt x="567" y="403" on="1"/>
        <pt x="567" y="393" on="0"/>
        <pt x="567" y="370" on="0"/>
        <pt x="566" y="358" on="1"/>
        <pt x="381" y="356" on="1"/>
        <pt x="382" y="363" on="0"/>
        <pt x="382" y="375" on="0"/>
        <pt x="382" y="381" on="1"/>
        <pt x="382" y="418" on="0"/>
        <pt x="363" y="452" on="0"/>
        <pt x="343" y="452" on="1"/>
        <pt x="321" y="452" on="0"/>
        <pt x="283" y="417" on="0"/>
        <pt x="255" y="364" on="0"/>
        <pt x="239" y="299" on="0"/>
        <pt x="239" y="270" on="1"/>
        <pt x="239" y="222" on="0"/>
        <pt x="292" y="173" on="0"/>
        <pt x="358" y="173" on="1"/>
        <pt x="389" y="173" on="0"/>
        <pt x="468" y="184" on="0"/>
        <pt x="518" y="194" on="1"/>
        <pt x="491" y="21" on="1"/>
        <pt x="432" y="5" on="0"/>
        <pt x="330" y="-11" on="0"/>
        <pt x="287" y="-11" on="1"/>
        <pt x="157" y="-11" on="0"/>
        <pt x="31" y="119" on="0"/>
        <pt x="31" y="228" on="1"/>
        <pt x="31" y="307" on="0"/>
        <pt x="86" y="454" on="0"/>
        <pt x="180" y="565" on="0"/>
        <pt x="308" y="632" on="0"/>
      </contour>
    </TTGlyph>
    <TTGlyph name="Ccaron.sc" xMin="25" yMin="-11" xMax="596" yMax="835">
      <contour>
        <pt x="381" y="595" on="1"/>
        <pt x="343" y="595" on="1"/>
        <pt x="185" y="746" on="1"/>
        <pt x="296" y="835" on="1"/>
        <pt x="389" y="743" on="1"/>
        <pt x="526" y="831" on="1"/>
        <pt x="596" y="735" on="1"/>
      </contour>
      <contour>
        <pt x="351" y="564" on="1"/>
        <pt x="438" y="564" on="0"/>
        <pt x="530" y="470" on="0"/>
        <pt x="530" y="364" on="1"/>
        <pt x="530" y="354" on="0"/>
        <pt x="529" y="330" on="0"/>
        <pt x="528" y="318" on="1"/>
        <pt x="353" y="316" on="1"/>
        <pt x="353" y="330" on="1"/>
        <pt x="353" y="367" on="0"/>
        <pt x="337" y="398" on="0"/>
        <pt x="318" y="398" on="1"/>
        <pt x="298" y="398" on="0"/>
        <pt x="264" y="368" on="0"/>
        <pt x="239" y="323" on="0"/>
        <pt x="225" y="267" on="0"/>
        <pt x="225" y="242" on="1"/>
        <pt x="225" y="200" on="0"/>
        <pt x="275" y="157" on="0"/>
        <pt x="337" y="157" on="1"/>
        <pt x="365" y="157" on="0"/>
        <pt x="440" y="166" on="0"/>
        <pt x="487" y="176" on="1"/>
        <pt x="463" y="18" on="1"/>
        <pt x="407" y="3" on="0"/>
        <pt x="310" y="-11" on="0"/>
        <pt x="269" y="-11" on="1"/>
        <pt x="145" y="-11" on="0"/>
        <pt x="25" y="106" on="0"/>
        <pt x="25" y="205" on="1"/>
        <pt x="25" y="276" on="0"/>
        <pt x="75" y="406" on="0"/>
        <pt x="163" y="505" on="0"/>
        <pt x="282" y="564" on="0"/>
      </contour>
    </TTGlyph>
    <TTGlyph name="Ccedilla" xMin="31" yMin="-215" xMax="567" yMax="632">
      <contour>
        <pt x="386" y="-212" on="1"/>
        <pt x="245" y="-215" on="1"/>
        <pt x="246" y="-202" on="0"/>
        <pt x="247" y="-179" on="0"/>
        <pt x="247" y="-169" on="1"/>
        <pt x="247" y="-132" on="0"/>
        <pt x="235" y="-104" on="0"/>
        <pt x="224" y="-104" on="1"/>
        <pt x="211" y="-104" on="0"/>
        <pt x="175" y="-149" on="0"/>
        <pt x="155" y="-197" on="1"/>
        <pt x="72" y="-166" on="1"/>
        <pt x="96" y="-103" on="0"/>
        <pt x="152" y="-18" on="0"/>
        <pt x="183" y="3" on="1"/>
        <pt x="106" y="26" on="0"/>
        <pt x="31" y="144" on="0"/>
        <pt x="31" y="228" on="1"/>
        <pt x="31" y="307" on="0"/>
        <pt x="86" y="454" on="0"/>
        <pt x="180" y="565" on="0"/>
        <pt x="308" y="632" on="0"/>
        <pt x="380" y="632" on="1"/>
        <pt x="473" y="632" on="0"/>
        <pt x="567" y="524" on="0"/>
        <pt x="567" y="403" on="1"/>
        <pt x="567" y="393" on="0"/>
        <pt x="567" y="370" on="0"/>
        <pt x="566" y="358" on="1"/>
        <pt x="381" y="356" on="1"/>
        <pt x="382" y="363" on="0"/>
        <pt x="382" y="375" on="0"/>
        <pt x="382" y="381" on="1"/>
        <pt x="382" y="418" on="0"/>
        <pt x="363" y="452" on="0"/>
        <pt x="343" y="452" on="1"/>
        <pt x="321" y="452" on="0"/>
        <pt x="283" y="417" on="0"/>
        <pt x="255" y="364" on="0"/>
        <pt x="239" y="299" on="0"/>
        <pt x="239" y="270" on="1"/>
        <pt x="239" y="222" on="0"/>
        <pt x="292" y="173" on="0"/>
        <pt x="358" y="173" on="1"/>
        <pt x="389" y="173" on="0"/>
        <pt x="468" y="184" on="0"/>
        <pt x="518" y="194" on="1"/>
        <pt x="491" y="21" on="1"/>
        <pt x="447" y="8" on="0"/>
        <pt x="366" y="-6" on="0"/>
        <pt x="332" y="-9" on="1"/>
        <pt x="357" y="-34" on="0"/>
        <pt x="387" y="-120" on="0"/>
        <pt x="387" y="-180" on="1"/>
        <pt x="387" y="-188" on="0"/>
        <pt x="387" y="-204" on="0"/>
      </contour>
    </TTGlyph>
    <TTGlyph name="Ccedilla.sc" xMin="25" yMin="-207" xMax="530" yMax="564">
      <contour>
        <pt x="366" y="-204" on="1"/>
        <pt x="225" y="-207" on="1"/>
        <pt x="226" y="-194" on="0"/>
        <pt x="227" y="-171" on="0"/>
        <pt x="227" y="-161" on="1"/>
        <pt x="227" y="-124" on="0"/>
        <pt x="215" y="-96" on="0"/>
        <pt x="204" y="-96" on="1"/>
        <pt x="191" y="-96" on="0"/>
        <pt x="155" y="-141" on="0"/>
        <pt x="135" y="-189" on="1"/>
        <pt x="52" y="-158" on="1"/>
        <pt x="74" y="-99" on="0"/>
        <pt x="127" y="-16" on="0"/>
        <pt x="156" y="6" on="1"/>
        <pt x="90" y="29" on="0"/>
        <pt x="25" y="133" on="0"/>
        <pt x="25" y="205" on="1"/>
        <pt x="25" y="276" on="0"/>
        <pt x="75" y="406" on="0"/>
        <pt x="163" y="505" on="0"/>
        <pt x="282" y="564" on="0"/>
        <pt x="351" y="564" on="1"/>
        <pt x="438" y="564" on="0"/>
        <pt x="530" y="470" on="0"/>
        <pt x="530" y="364" on="1"/>
        <pt x="530" y="354" on="0"/>
        <pt x="529" y="330" on="0"/>
        <pt x="528" y="318" on="1"/>
        <pt x="353" y="316" on="1"/>
        <pt x="353" y="330" on="1"/>
        <pt x="353" y="367" on="0"/>
        <pt x="337" y="398" on="0"/>
        <pt x="318" y="398" on="1"/>
        <pt x="298" y="398" on="0"/>
        <pt x="264" y="368" on="0"/>
        <pt x="239" y="323" on="0"/>
        <pt x="225" y="267" on="0"/>
        <pt x="225" y="242" on="1"/>
        <pt x="225" y="200" on="0"/>
        <pt x="275" y="157" on="0"/>
        <pt x="337" y="157" on="1"/>
        <pt x="365" y="157" on="0"/>
        <pt x="440" y="166" on="0"/>
        <pt x="487" y="176" on="1"/>
        <pt x="463" y="18" on="1"/>
        <pt x="423" y="8" on="0"/>
        <pt x="351" y="-6" on="0"/>
        <pt x="319" y="-9" on="1"/>
        <pt x="341" y="-34" on="0"/>
        <pt x="367" y="-116" on="0"/>
        <pt x="367" y="-172" on="1"/>
        <pt x="367" y="-180" on="0"/>
        <pt x="367" y="-196" on="0"/>
      </contour>
    </TTGlyph>
    <TTGlyph name="Cdotaccent" xMin="31" yMin="-11" xMax="567" yMax="849">
      <contour>
        <pt x="483" y="686" on="1"/>
        <pt x="286" y="685" on="1"/>
        <pt x="323" y="845" on="1"/>
        <pt x="528" y="849" on="1"/>
      </contour>
      <contour>
        <pt x="380" y="632" on="1"/>
        <pt x="473" y="632" on="0"/>
        <pt x="567" y="524" on="0"/>
        <pt x="567" y="403" on="1"/>
        <pt x="567" y="393" on="0"/>
        <pt x="567" y="370" on="0"/>
        <pt x="566" y="358" on="1"/>
        <pt x="381" y="356" on="1"/>
        <pt x="382" y="363" on="0"/>
        <pt x="382" y="375" on="0"/>
        <pt x="382" y="381" on="1"/>
        <pt x="382" y="418" on="0"/>
        <pt x="363" y="452" on="0"/>
        <pt x="343" y="452" on="1"/>
        <pt x="321" y="452" on="0"/>
        <pt x="283" y="417" on="0"/>
        <pt x="255" y="364" on="0"/>
        <pt x="239" y="299" on="0"/>
        <pt x="239" y="270" on="1"/>
        <pt x="239" y="222" on="0"/>
        <pt x="292" y="173" on="0"/>
        <pt x="358" y="173" on="1"/>
        <pt x="389" y="173" on="0"/>
        <pt x="468" y="184" on="0"/>
        <pt x="518" y="194" on="1"/>
        <pt x="491" y="21" on="1"/>
        <pt x="432" y="5" on="0"/>
        <pt x="330" y="-11" on="0"/>
        <pt x="287" y="-11" on="1"/>
        <pt x="157" y="-11" on="0"/>
        <pt x="31" y="119" on="0"/>
        <pt x="31" y="228" on="1"/>
        <pt x="31" y="307" on="0"/>
        <pt x="86" y="454" on="0"/>
        <pt x="180" y="565" on="0"/>
        <pt x="308" y="632" on="0"/>
      </contour>
    </TTGlyph>
    <TTGlyph name="Cdotaccent.sc" xMin="25" yMin="-11" xMax="530" yMax="780">
      <contour>
        <pt x="456" y="617" on="1"/>
        <pt x="259" y="616" on="1"/>
        <pt x="296" y="776" on="1"/>
        <pt x="501" y="780" on="1"/>
      </contour>
      <contour>
        <pt x="351" y="564" on="1"/>
        <pt x="438" y="564" on="0"/>
        <pt x="530" y="470" on="0"/>
        <pt x="530" y="364" on="1"/>
        <pt x="530" y="354" on="0"/>
        <pt x="529" y="330" on="0"/>
        <pt x="528" y="318" on="1"/>
        <pt x="353" y="316" on="1"/>
        <pt x="353" y="330" on="1"/>
        <pt x="353" y="367" on="0"/>
        <pt x="337" y="398" on="0"/>
        <pt x="318" y="398" on="1"/>
        <pt x="298" y="398" on="0"/>
        <pt x="264" y="368" on="0"/>
        <pt x="239" y="323" on="0"/>
        <pt x="225" y="267" on="0"/>
        <pt x="225" y="242" on="1"/>
        <pt x="225" y="200" on="0"/>
        <pt x="275" y="157" on="0"/>
        <pt x="337" y="157" on="1"/>
        <pt x="365" y="157" on="0"/>
        <pt x="440" y="166" on="0"/>
        <pt x="487" y="176" on="1"/>
        <pt x="463" y="18" on="1"/>
        <pt x="407" y="3" on="0"/>
        <pt x="310" y="-11" on="0"/>
        <pt x="269" y="-11" on="1"/>
        <pt x="145" y="-11" on="0"/>
        <pt x="25" y="106" on="0"/>
        <pt x="25" y="205" on="1"/>
        <pt x="25" y="276" on="0"/>
        <pt x="75" y="406" on="0"/>
        <pt x="163" y="505" on="0"/>
        <pt x="282" y="564" on="0"/>
      </contour>
    </TTGlyph>
    <TTGlyph name="D" xMin="6" yMin="-8" xMax="602" yMax="627">
      <contour>
        <pt x="602" y="374" on="1"/>
        <pt x="602" y="304" on="0"/>
        <pt x="556" y="166" on="0"/>
        <pt x="450" y="59" on="0"/>
        <pt x="276" y="-8" on="0"/>
        <pt x="150" y="-8" on="1"/>
        <pt x="117" y="-8" on="0"/>
        <pt x="45" y="-3" on="0"/>
        <pt x="6" y="2" on="1"/>
        <pt x="125" y="614" on="1"/>
        <pt x="169" y="621" on="0"/>
        <pt x="249" y="627" on="0"/>
        <pt x="284" y="627" on="1"/>
        <pt x="447" y="627" on="0"/>
        <pt x="602" y="496" on="0"/>
      </contour>
      <contour>
        <pt x="256" y="155" on="1"/>
        <pt x="291" y="155" on="0"/>
        <pt x="346" y="188" on="0"/>
        <pt x="382" y="244" on="0"/>
        <pt x="400" y="316" on="0"/>
        <pt x="400" y="355" on="1"/>
        <pt x="400" y="411" on="0"/>
        <pt x="349" y="465" on="0"/>
        <pt x="297" y="465" on="1"/>
        <pt x="238" y="156" on="1"/>
        <pt x="242" y="155" on="0"/>
        <pt x="252" y="155" on="0"/>
      </contour>
    </TTGlyph>
    <TTGlyph name="D.sc" xMin="5" yMin="-8" xMax="566" yMax="557">
      <contour>
        <pt x="566" y="323" on="1"/>
        <pt x="566" y="261" on="0"/>
        <pt x="525" y="142" on="0"/>
        <pt x="428" y="49" on="0"/>
        <pt x="267" y="-8" on="0"/>
        <pt x="148" y="-8" on="1"/>
        <pt x="116" y="-8" on="0"/>
        <pt x="44" y="-3" on="0"/>
        <pt x="5" y="2" on="1"/>
        <pt x="110" y="546" on="1"/>
        <pt x="149" y="551" on="0"/>
        <pt x="221" y="557" on="0"/>
        <pt x="252" y="557" on="1"/>
        <pt x="413" y="557" on="0"/>
        <pt x="566" y="432" on="0"/>
      </contour>
      <contour>
        <pt x="243" y="141" on="1"/>
        <pt x="275" y="141" on="0"/>
        <pt x="323" y="170" on="0"/>
        <pt x="355" y="218" on="0"/>
        <pt x="371" y="281" on="0"/>
        <pt x="371" y="314" on="1"/>
        <pt x="371" y="363" on="0"/>
        <pt x="324" y="412" on="0"/>
        <pt x="278" y="412" on="1"/>
        <pt x="226" y="142" on="1"/>
        <pt x="230" y="141" on="0"/>
        <pt x="239" y="141" on="0"/>
      </contour>
    </TTGlyph>
    <TTGlyph name="Dcaron" xMin="6" yMin="-8" xMax="603" yMax="902">
      <contour>
        <pt x="388" y="662" on="1"/>
        <pt x="350" y="662" on="1"/>
        <pt x="192" y="813" on="1"/>
        <pt x="303" y="902" on="1"/>
        <pt x="396" y="810" on="1"/>
        <pt x="533" y="898" on="1"/>
        <pt x="603" y="802" on="1"/>
      </contour>
      <contour>
        <pt x="602" y="374" on="1"/>
        <pt x="602" y="304" on="0"/>
        <pt x="556" y="166" on="0"/>
        <pt x="450" y="59" on="0"/>
        <pt x="276" y="-8" on="0"/>
        <pt x="150" y="-8" on="1"/>
        <pt x="117" y="-8" on="0"/>
        <pt x="45" y="-3" on="0"/>
        <pt x="6" y="2" on="1"/>
        <pt x="125" y="614" on="1"/>
        <pt x="169" y="621" on="0"/>
        <pt x="249" y="627" on="0"/>
        <pt x="284" y="627" on="1"/>
        <pt x="447" y="627" on="0"/>
        <pt x="602" y="496" on="0"/>
      </contour>
      <contour>
        <pt x="256" y="155" on="1"/>
        <pt x="291" y="155" on="0"/>
        <pt x="346" y="188" on="0"/>
        <pt x="382" y="244" on="0"/>
        <pt x="400" y="316" on="0"/>
        <pt x="400" y="355" on="1"/>
        <pt x="400" y="411" on="0"/>
        <pt x="349" y="465" on="0"/>
        <pt x="297" y="465" on="1"/>
        <pt x="238" y="156" on="1"/>
        <pt x="242" y="155" on="0"/>
        <pt x="252" y="155" on="0"/>
      </contour>
    </TTGlyph>
    <TTGlyph name="Dcaron.sc" xMin="5" yMin="-8" xMax="574" yMax="832">
      <contour>
        <pt x="359" y="592" on="1"/>
        <pt x="321" y="592" on="1"/>
        <pt x="163" y="743" on="1"/>
        <pt x="274" y="832" on="1"/>
        <pt x="367" y="740" on="1"/>
        <pt x="504" y="828" on="1"/>
        <pt x="574" y="732" on="1"/>
      </contour>
      <contour>
        <pt x="566" y="323" on="1"/>
        <pt x="566" y="261" on="0"/>
        <pt x="525" y="142" on="0"/>
        <pt x="428" y="49" on="0"/>
        <pt x="267" y="-8" on="0"/>
        <pt x="148" y="-8" on="1"/>
        <pt x="116" y="-8" on="0"/>
        <pt x="44" y="-3" on="0"/>
        <pt x="5" y="2" on="1"/>
        <pt x="110" y="546" on="1"/>
        <pt x="149" y="551" on="0"/>
        <pt x="221" y="557" on="0"/>
        <pt x="252" y="557" on="1"/>
        <pt x="413" y="557" on="0"/>
        <pt x="566" y="432" on="0"/>
      </contour>
      <contour>
        <pt x="243" y="141" on="1"/>
        <pt x="275" y="141" on="0"/>
        <pt x="323" y="170" on="0"/>
        <pt x="355" y="218" on="0"/>
        <pt x="371" y="281" on="0"/>
        <pt x="371" y="314" on="1"/>
        <pt x="371" y="363" on="0"/>
        <pt x="324" y="412" on="0"/>
        <pt x="278" y="412" on="1"/>
        <pt x="226" y="142" on="1"/>
        <pt x="230" y="141" on="0"/>
        <pt x="239" y="141" on="0"/>
      </contour>
    </TTGlyph>
    <TTGlyph name="Dcroat" xMin="2" yMin="-8" xMax="602" yMax="627">
      <contour>
        <pt x="150" y="-8" on="1"/>
        <pt x="117" y="-8" on="0"/>
        <pt x="45" y="-3" on="0"/>
        <pt x="6" y="2" on="1"/>
        <pt x="55" y="256" on="1"/>
        <pt x="2" y="256" on="1"/>
        <pt x="24" y="368" on="1"/>
        <pt x="77" y="368" on="1"/>
        <pt x="125" y="614" on="1"/>
        <pt x="169" y="621" on="0"/>
        <pt x="249" y="627" on="0"/>
        <pt x="284" y="627" on="1"/>
        <pt x="447" y="627" on="0"/>
        <pt x="602" y="496" on="0"/>
        <pt x="602" y="374" on="1"/>
        <pt x="602" y="304" on="0"/>
        <pt x="556" y="166" on="0"/>
        <pt x="450" y="59" on="0"/>
        <pt x="276" y="-8" on="0"/>
      </contour>
      <contour>
        <pt x="257" y="150" on="1"/>
        <pt x="293" y="150" on="0"/>
        <pt x="349" y="184" on="0"/>
        <pt x="386" y="241" on="0"/>
        <pt x="405" y="315" on="0"/>
        <pt x="405" y="355" on="1"/>
        <pt x="405" y="414" on="0"/>
        <pt x="351" y="470" on="0"/>
        <pt x="293" y="470" on="1"/>
        <pt x="274" y="368" on="1"/>
        <pt x="350" y="368" on="1"/>
        <pt x="328" y="256" on="1"/>
        <pt x="252" y="256" on="1"/>
        <pt x="232" y="152" on="1"/>
        <pt x="239" y="151" on="0"/>
        <pt x="251" y="150" on="0"/>
      </contour>
    </TTGlyph>
    <TTGlyph name="Dcroat.sc" xMin="-2" yMin="-8" xMax="566" yMax="557">
      <contour>
        <pt x="148" y="-8" on="1"/>
        <pt x="116" y="-8" on="0"/>
        <pt x="44" y="-3" on="0"/>
        <pt x="5" y="2" on="1"/>
        <pt x="48" y="227" on="1"/>
        <pt x="-2" y="227" on="1"/>
        <pt x="19" y="329" on="1"/>
        <pt x="68" y="329" on="1"/>
        <pt x="110" y="546" on="1"/>
        <pt x="149" y="551" on="0"/>
        <pt x="221" y="557" on="0"/>
        <pt x="252" y="557" on="1"/>
        <pt x="413" y="557" on="0"/>
        <pt x="566" y="432" on="0"/>
        <pt x="566" y="323" on="1"/>
        <pt x="566" y="261" on="0"/>
        <pt x="525" y="142" on="0"/>
        <pt x="428" y="49" on="0"/>
        <pt x="267" y="-8" on="0"/>
      </contour>
      <contour>
        <pt x="244" y="136" on="1"/>
        <pt x="276" y="136" on="0"/>
        <pt x="326" y="166" on="0"/>
        <pt x="358" y="215" on="0"/>
        <pt x="375" y="280" on="0"/>
        <pt x="375" y="314" on="1"/>
        <pt x="375" y="366" on="0"/>
        <pt x="325" y="416" on="0"/>
        <pt x="274" y="416" on="1"/>
        <pt x="257" y="329" on="1"/>
        <pt x="323" y="329" on="1"/>
        <pt x="302" y="227" on="1"/>
        <pt x="238" y="227" on="1"/>
        <pt x="221" y="138" on="1"/>
        <pt x="227" y="137" on="0"/>
        <pt x="239" y="136" on="0"/>
      </contour>
    </TTGlyph>
    <TTGlyph name="E" xMin="6" yMin="0" xMax="551" yMax="620">
      <contour>
        <pt x="470" y="158" on="1"/>
        <pt x="428" y="0" on="1"/>
        <pt x="6" y="0" on="1"/>
        <pt x="126" y="620" on="1"/>
        <pt x="551" y="620" on="1"/>
        <pt x="521" y="462" on="1"/>
        <pt x="302" y="462" on="1"/>
        <pt x="285" y="372" on="1"/>
        <pt x="457" y="372" on="1"/>
        <pt x="433" y="249" on="1"/>
        <pt x="261" y="249" on="1"/>
        <pt x="243" y="158" on="1"/>
      </contour>
    </TTGlyph>
    <TTGlyph name="E.sc" xMin="5" yMin="0" xMax="515" yMax="552">
      <contour>
        <pt x="443" y="144" on="1"/>
        <pt x="406" y="0" on="1"/>
        <pt x="5" y="0" on="1"/>
        <pt x="111" y="552" on="1"/>
        <pt x="515" y="552" on="1"/>
        <pt x="488" y="408" on="1"/>
        <pt x="282" y="408" on="1"/>
        <pt x="267" y="332" on="1"/>
        <pt x="428" y="332" on="1"/>
        <pt x="406" y="221" on="1"/>
        <pt x="245" y="221" on="1"/>
        <pt x="230" y="144" on="1"/>
      </contour>
    </TTGlyph>
    <TTGlyph name="Eacute" xMin="6" yMin="0" xMax="564" yMax="911">
      <contour>
        <pt x="214" y="736" on="1"/>
        <pt x="278" y="772" on="0"/>
        <pt x="413" y="864" on="0"/>
        <pt x="470" y="911" on="1"/>
        <pt x="564" y="765" on="1"/>
        <pt x="492" y="722" on="0"/>
        <pt x="317" y="669" on="0"/>
        <pt x="239" y="657" on="1"/>
      </contour>
      <contour>
        <pt x="470" y="158" on="1"/>
        <pt x="428" y="0" on="1"/>
        <pt x="6" y="0" on="1"/>
        <pt x="126" y="620" on="1"/>
        <pt x="551" y="620" on="1"/>
        <pt x="521" y="462" on="1"/>
        <pt x="302" y="462" on="1"/>
        <pt x="285" y="372" on="1"/>
        <pt x="457" y="372" on="1"/>
        <pt x="433" y="249" on="1"/>
        <pt x="261" y="249" on="1"/>
        <pt x="243" y="158" on="1"/>
      </contour>
    </TTGlyph>
    <TTGlyph name="Eacute.sc" xMin="5" yMin="0" xMax="538" yMax="843">
      <contour>
        <pt x="188" y="668" on="1"/>
        <pt x="252" y="704" on="0"/>
        <pt x="387" y="796" on="0"/>
        <pt x="444" y="843" on="1"/>
        <pt x="538" y="697" on="1"/>
        <pt x="466" y="654" on="0"/>
        <pt x="291" y="601" on="0"/>
        <pt x="213" y="589" on="1"/>
      </contour>
      <contour>
        <pt x="443" y="144" on="1"/>
        <pt x="406" y="0" on="1"/>
        <pt x="5" y="0" on="1"/>
        <pt x="111" y="552" on="1"/>
        <pt x="515" y="552" on="1"/>
        <pt x="488" y="408" on="1"/>
        <pt x="282" y="408" on="1"/>
        <pt x="267" y="332" on="1"/>
        <pt x="428" y="332" on="1"/>
        <pt x="406" y="221" on="1"/>
        <pt x="245" y="221" on="1"/>
        <pt x="230" y="144" on="1"/>
      </contour>
    </TTGlyph>
    <TTGlyph name="Ebreve" xMin="6" yMin="0" xMax="590" yMax="885">
      <contour>
        <pt x="499" y="882" on="1"/>
        <pt x="590" y="819" on="1"/>
        <pt x="541" y="752" on="0"/>
        <pt x="418" y="661" on="0"/>
        <pt x="350" y="661" on="1"/>
        <pt x="286" y="661" on="0"/>
        <pt x="192" y="749" on="0"/>
        <pt x="168" y="820" on="1"/>
        <pt x="292" y="885" on="1"/>
        <pt x="310" y="848" on="0"/>
        <pt x="354" y="808" on="0"/>
        <pt x="382" y="808" on="1"/>
        <pt x="409" y="808" on="0"/>
        <pt x="467" y="848" on="0"/>
      </contour>
      <contour>
        <pt x="470" y="158" on="1"/>
        <pt x="428" y="0" on="1"/>
        <pt x="6" y="0" on="1"/>
        <pt x="126" y="620" on="1"/>
        <pt x="551" y="620" on="1"/>
        <pt x="521" y="462" on="1"/>
        <pt x="302" y="462" on="1"/>
        <pt x="285" y="372" on="1"/>
        <pt x="457" y="372" on="1"/>
        <pt x="433" y="249" on="1"/>
        <pt x="261" y="249" on="1"/>
        <pt x="243" y="158" on="1"/>
      </contour>
    </TTGlyph>
    <TTGlyph name="Ebreve.sc" xMin="5" yMin="0" xMax="564" yMax="817">
      <contour>
        <pt x="473" y="814" on="1"/>
        <pt x="564" y="751" on="1"/>
        <pt x="515" y="684" on="0"/>
        <pt x="392" y="593" on="0"/>
        <pt x="324" y="593" on="1"/>
        <pt x="260" y="593" on="0"/>
        <pt x="166" y="681" on="0"/>
        <pt x="142" y="752" on="1"/>
        <pt x="266" y="817" on="1"/>
        <pt x="284" y="780" on="0"/>
        <pt x="328" y="740" on="0"/>
        <pt x="356" y="740" on="1"/>
        <pt x="383" y="740" on="0"/>
        <pt x="441" y="780" on="0"/>
      </contour>
      <contour>
        <pt x="443" y="144" on="1"/>
        <pt x="406" y="0" on="1"/>
        <pt x="5" y="0" on="1"/>
        <pt x="111" y="552" on="1"/>
        <pt x="515" y="552" on="1"/>
        <pt x="488" y="408" on="1"/>
        <pt x="282" y="408" on="1"/>
        <pt x="267" y="332" on="1"/>
        <pt x="428" y="332" on="1"/>
        <pt x="406" y="221" on="1"/>
        <pt x="245" y="221" on="1"/>
        <pt x="230" y="144" on="1"/>
      </contour>
    </TTGlyph>
    <TTGlyph name="Ecaron" xMin="6" yMin="0" xMax="580" yMax="895">
      <contour>
        <pt x="365" y="655" on="1"/>
        <pt x="327" y="655" on="1"/>
        <pt x="169" y="806" on="1"/>
        <pt x="280" y="895" on="1"/>
        <pt x="373" y="803" on="1"/>
        <pt x="510" y="891" on="1"/>
        <pt x="580" y="795" on="1"/>
      </contour>
      <contour>
        <pt x="470" y="158" on="1"/>
        <pt x="428" y="0" on="1"/>
        <pt x="6" y="0" on="1"/>
        <pt x="126" y="620" on="1"/>
        <pt x="551" y="620" on="1"/>
        <pt x="521" y="462" on="1"/>
        <pt x="302" y="462" on="1"/>
        <pt x="285" y="372" on="1"/>
        <pt x="457" y="372" on="1"/>
        <pt x="433" y="249" on="1"/>
        <pt x="261" y="249" on="1"/>
        <pt x="243" y="158" on="1"/>
      </contour>
    </TTGlyph>
    <TTGlyph name="Ecaron.sc" xMin="5" yMin="0" xMax="554" yMax="827">
      <contour>
        <pt x="339" y="587" on="1"/>
        <pt x="301" y="587" on="1"/>
        <pt x="143" y="738" on="1"/>
        <pt x="254" y="827" on="1"/>
        <pt x="347" y="735" on="1"/>
        <pt x="484" y="823" on="1"/>
        <pt x="554" y="727" on="1"/>
      </contour>
      <contour>
        <pt x="443" y="144" on="1"/>
        <pt x="406" y="0" on="1"/>
        <pt x="5" y="0" on="1"/>
        <pt x="111" y="552" on="1"/>
        <pt x="515" y="552" on="1"/>
        <pt x="488" y="408" on="1"/>
        <pt x="282" y="408" on="1"/>
        <pt x="267" y="332" on="1"/>
        <pt x="428" y="332" on="1"/>
        <pt x="406" y="221" on="1"/>
        <pt x="245" y="221" on="1"/>
        <pt x="230" y="144" on="1"/>
      </contour>
    </TTGlyph>
    <TTGlyph name="Ecircumflex" xMin="6" yMin="0" xMax="569" yMax="893">
      <contour>
        <pt x="458" y="653" on="1"/>
        <pt x="365" y="745" on="1"/>
        <pt x="228" y="656" on="1"/>
        <pt x="157" y="753" on="1"/>
        <pt x="373" y="893" on="1"/>
        <pt x="411" y="893" on="1"/>
        <pt x="569" y="741" on="1"/>
      </contour>
      <contour>
        <pt x="470" y="158" on="1"/>
        <pt x="428" y="0" on="1"/>
        <pt x="6" y="0" on="1"/>
        <pt x="126" y="620" on="1"/>
        <pt x="551" y="620" on="1"/>
        <pt x="521" y="462" on="1"/>
        <pt x="302" y="462" on="1"/>
        <pt x="285" y="372" on="1"/>
        <pt x="457" y="372" on="1"/>
        <pt x="433" y="249" on="1"/>
        <pt x="261" y="249" on="1"/>
        <pt x="243" y="158" on="1"/>
      </contour>
    </TTGlyph>
    <TTGlyph name="Ecircumflex.sc" xMin="5" yMin="0" xMax="543" yMax="825">
      <contour>
        <pt x="432" y="585" on="1"/>
        <pt x="339" y="677" on="1"/>
        <pt x="202" y="588" on="1"/>
        <pt x="131" y="685" on="1"/>
        <pt x="347" y="825" on="1"/>
        <pt x="385" y="825" on="1"/>
        <pt x="543" y="673" on="1"/>
      </contour>
      <contour>
        <pt x="443" y="144" on="1"/>
        <pt x="406" y="0" on="1"/>
        <pt x="5" y="0" on="1"/>
        <pt x="111" y="552" on="1"/>
        <pt x="515" y="552" on="1"/>
        <pt x="488" y="408" on="1"/>
        <pt x="282" y="408" on="1"/>
        <pt x="267" y="332" on="1"/>
        <pt x="428" y="332" on="1"/>
        <pt x="406" y="221" on="1"/>
        <pt x="245" y="221" on="1"/>
        <pt x="230" y="144" on="1"/>
      </contour>
    </TTGlyph>
    <TTGlyph name="Edieresis" xMin="6" yMin="0" xMax="598" yMax="841">
      <contour>
        <pt x="552" y="677" on="1"/>
        <pt x="373" y="677" on="1"/>
        <pt x="410" y="838" on="1"/>
        <pt x="598" y="841" on="1"/>
      </contour>
      <contour>
        <pt x="315" y="677" on="1"/>
        <pt x="136" y="676" on="1"/>
        <pt x="173" y="836" on="1"/>
        <pt x="361" y="839" on="1"/>
      </contour>
      <contour>
        <pt x="470" y="158" on="1"/>
        <pt x="428" y="0" on="1"/>
        <pt x="6" y="0" on="1"/>
        <pt x="126" y="620" on="1"/>
        <pt x="551" y="620" on="1"/>
        <pt x="521" y="462" on="1"/>
        <pt x="302" y="462" on="1"/>
        <pt x="285" y="372" on="1"/>
        <pt x="457" y="372" on="1"/>
        <pt x="433" y="249" on="1"/>
        <pt x="261" y="249" on="1"/>
        <pt x="243" y="158" on="1"/>
      </contour>
    </TTGlyph>
    <TTGlyph name="Edieresis.sc" xMin="5" yMin="0" xMax="572" yMax="773">
      <contour>
        <pt x="526" y="609" on="1"/>
        <pt x="347" y="609" on="1"/>
        <pt x="384" y="770" on="1"/>
        <pt x="572" y="773" on="1"/>
      </contour>
      <contour>
        <pt x="289" y="609" on="1"/>
        <pt x="110" y="608" on="1"/>
        <pt x="147" y="768" on="1"/>
        <pt x="335" y="771" on="1"/>
      </contour>
      <contour>
        <pt x="443" y="144" on="1"/>
        <pt x="406" y="0" on="1"/>
        <pt x="5" y="0" on="1"/>
        <pt x="111" y="552" on="1"/>
        <pt x="515" y="552" on="1"/>
        <pt x="488" y="408" on="1"/>
        <pt x="282" y="408" on="1"/>
        <pt x="267" y="332" on="1"/>
        <pt x="428" y="332" on="1"/>
        <pt x="406" y="221" on="1"/>
        <pt x="245" y="221" on="1"/>
        <pt x="230" y="144" on="1"/>
      </contour>
    </TTGlyph>
    <TTGlyph name="Edotaccent" xMin="6" yMin="0" xMax="551" yMax="840">
      <contour>
        <pt x="441" y="677" on="1"/>
        <pt x="244" y="676" on="1"/>
        <pt x="281" y="836" on="1"/>
        <pt x="486" y="840" on="1"/>
      </contour>
      <contour>
        <pt x="470" y="158" on="1"/>
        <pt x="428" y="0" on="1"/>
        <pt x="6" y="0" on="1"/>
        <pt x="126" y="620" on="1"/>
        <pt x="551" y="620" on="1"/>
        <pt x="521" y="462" on="1"/>
        <pt x="302" y="462" on="1"/>
        <pt x="285" y="372" on="1"/>
        <pt x="457" y="372" on="1"/>
        <pt x="433" y="249" on="1"/>
        <pt x="261" y="249" on="1"/>
        <pt x="243" y="158" on="1"/>
      </contour>
    </TTGlyph>
    <TTGlyph name="Edotaccent.sc" xMin="5" yMin="0" xMax="515" yMax="772">
      <contour>
        <pt x="415" y="609" on="1"/>
        <pt x="218" y="608" on="1"/>
        <pt x="255" y="768" on="1"/>
        <pt x="460" y="772" on="1"/>
      </contour>
      <contour>
        <pt x="443" y="144" on="1"/>
        <pt x="406" y="0" on="1"/>
        <pt x="5" y="0" on="1"/>
        <pt x="111" y="552" on="1"/>
        <pt x="515" y="552" on="1"/>
        <pt x="488" y="408" on="1"/>
        <pt x="282" y="408" on="1"/>
        <pt x="267" y="332" on="1"/>
        <pt x="428" y="332" on="1"/>
        <pt x="406" y="221" on="1"/>
        <pt x="245" y="221" on="1"/>
        <pt x="230" y="144" on="1"/>
      </contour>
    </TTGlyph>
    <TTGlyph name="Egrave" xMin="6" yMin="0" xMax="551" yMax="912">
      <contour>
        <pt x="493" y="734" on="1"/>
        <pt x="467" y="656" on="1"/>
        <pt x="389" y="669" on="0"/>
        <pt x="221" y="724" on="0"/>
        <pt x="149" y="765" on="1"/>
        <pt x="241" y="912" on="1"/>
        <pt x="298" y="864" on="0"/>
        <pt x="429" y="771" on="0"/>
      </contour>
      <contour>
        <pt x="470" y="158" on="1"/>
        <pt x="428" y="0" on="1"/>
        <pt x="6" y="0" on="1"/>
        <pt x="126" y="620" on="1"/>
        <pt x="551" y="620" on="1"/>
        <pt x="521" y="462" on="1"/>
        <pt x="302" y="462" on="1"/>
        <pt x="285" y="372" on="1"/>
        <pt x="457" y="372" on="1"/>
        <pt x="433" y="249" on="1"/>
        <pt x="261" y="249" on="1"/>
        <pt x="243" y="158" on="1"/>
      </contour>
    </TTGlyph>
    <TTGlyph name="Egrave.sc" xMin="5" yMin="0" xMax="515" yMax="844">
      <contour>
        <pt x="467" y="666" on="1"/>
        <pt x="441" y="588" on="1"/>
        <pt x="363" y="601" on="0"/>
        <pt x="195" y="656" on="0"/>
        <pt x="123" y="697" on="1"/>
        <pt x="215" y="844" on="1"/>
        <pt x="272" y="796" on="0"/>
        <pt x="403" y="703" on="0"/>
      </contour>
      <contour>
        <pt x="443" y="144" on="1"/>
        <pt x="406" y="0" on="1"/>
        <pt x="5" y="0" on="1"/>
        <pt x="111" y="552" on="1"/>
        <pt x="515" y="552" on="1"/>
        <pt x="488" y="408" on="1"/>
        <pt x="282" y="408" on="1"/>
        <pt x="267" y="332" on="1"/>
        <pt x="428" y="332" on="1"/>
        <pt x="406" y="221" on="1"/>
        <pt x="245" y="221" on="1"/>
        <pt x="230" y="144" on="1"/>
      </contour>
    </TTGlyph>
    <TTGlyph name="Emacron" xMin="6" yMin="0" xMax="571" yMax="841">
      <contour>
        <pt x="571" y="841" on="1"/>
        <pt x="540" y="683" on="1"/>
        <pt x="163" y="683" on="1"/>
        <pt x="194" y="841" on="1"/>
      </contour>
      <contour>
        <pt x="470" y="158" on="1"/>
        <pt x="428" y="0" on="1"/>
        <pt x="6" y="0" on="1"/>
        <pt x="126" y="620" on="1"/>
        <pt x="551" y="620" on="1"/>
        <pt x="521" y="462" on="1"/>
        <pt x="302" y="462" on="1"/>
        <pt x="285" y="372" on="1"/>
        <pt x="457" y="372" on="1"/>
        <pt x="433" y="249" on="1"/>
        <pt x="261" y="249" on="1"/>
        <pt x="243" y="158" on="1"/>
      </contour>
    </TTGlyph>
    <TTGlyph name="Emacron.sc" xMin="5" yMin="0" xMax="545" yMax="773">
      <contour>
        <pt x="545" y="773" on="1"/>
        <pt x="514" y="615" on="1"/>
        <pt x="137" y="615" on="1"/>
        <pt x="168" y="773" on="1"/>
      </contour>
      <contour>
        <pt x="443" y="144" on="1"/>
        <pt x="406" y="0" on="1"/>
        <pt x="5" y="0" on="1"/>
        <pt x="111" y="552" on="1"/>
        <pt x="515" y="552" on="1"/>
        <pt x="488" y="408" on="1"/>
        <pt x="282" y="408" on="1"/>
        <pt x="267" y="332" on="1"/>
        <pt x="428" y="332" on="1"/>
        <pt x="406" y="221" on="1"/>
        <pt x="245" y="221" on="1"/>
        <pt x="230" y="144" on="1"/>
      </contour>
    </TTGlyph>
    <TTGlyph name="Eogonek" xMin="6" yMin="-232" xMax="551" yMax="620">
      <contour>
        <pt x="378" y="-197" on="1"/>
        <pt x="332" y="-215" on="0"/>
        <pt x="256" y="-232" on="0"/>
        <pt x="226" y="-232" on="1"/>
        <pt x="168" y="-232" on="0"/>
        <pt x="111" y="-178" on="0"/>
        <pt x="111" y="-136" on="1"/>
        <pt x="111" y="-102" on="0"/>
        <pt x="159" y="-31" on="0"/>
        <pt x="217" y="0" on="1"/>
        <pt x="6" y="0" on="1"/>
        <pt x="126" y="620" on="1"/>
        <pt x="551" y="620" on="1"/>
        <pt x="521" y="462" on="1"/>
        <pt x="302" y="462" on="1"/>
        <pt x="285" y="372" on="1"/>
        <pt x="457" y="372" on="1"/>
        <pt x="433" y="249" on="1"/>
        <pt x="261" y="249" on="1"/>
        <pt x="243" y="158" on="1"/>
        <pt x="470" y="158" on="1"/>
        <pt x="428" y="1" on="1"/>
        <pt x="429" y="0" on="1"/>
        <pt x="335" y="-19" on="0"/>
        <pt x="269" y="-64" on="0"/>
        <pt x="269" y="-80" on="1"/>
        <pt x="269" y="-92" on="0"/>
        <pt x="291" y="-104" on="0"/>
        <pt x="315" y="-104" on="1"/>
        <pt x="326" y="-104" on="0"/>
        <pt x="355" y="-101" on="0"/>
        <pt x="373" y="-98" on="1"/>
      </contour>
    </TTGlyph>
    <TTGlyph name="Eogonek.sc" xMin="5" yMin="-232" xMax="515" yMax="552">
      <contour>
        <pt x="355" y="-197" on="1"/>
        <pt x="309" y="-215" on="0"/>
        <pt x="233" y="-232" on="0"/>
        <pt x="203" y="-232" on="1"/>
        <pt x="145" y="-232" on="0"/>
        <pt x="88" y="-178" on="0"/>
        <pt x="88" y="-136" on="1"/>
        <pt x="88" y="-102" on="0"/>
        <pt x="136" y="-31" on="0"/>
        <pt x="194" y="0" on="1"/>
        <pt x="5" y="0" on="1"/>
        <pt x="111" y="552" on="1"/>
        <pt x="515" y="552" on="1"/>
        <pt x="488" y="408" on="1"/>
        <pt x="282" y="408" on="1"/>
        <pt x="267" y="332" on="1"/>
        <pt x="428" y="332" on="1"/>
        <pt x="406" y="221" on="1"/>
        <pt x="245" y="221" on="1"/>
        <pt x="230" y="144" on="1"/>
        <pt x="443" y="144" on="1"/>
        <pt x="406" y="0" on="1"/>
        <pt x="312" y="-19" on="0"/>
        <pt x="246" y="-64" on="0"/>
        <pt x="246" y="-80" on="1"/>
        <pt x="246" y="-92" on="0"/>
        <pt x="268" y="-104" on="0"/>
        <pt x="292" y="-104" on="1"/>
        <pt x="303" y="-104" on="0"/>
        <pt x="332" y="-101" on="0"/>
        <pt x="350" y="-98" on="1"/>
      </contour>
    </TTGlyph>
    <TTGlyph name="Eth" xMin="2" yMin="-8" xMax="602" yMax="627">
      <contour>
        <pt x="150" y="-8" on="1"/>
        <pt x="117" y="-8" on="0"/>
        <pt x="45" y="-3" on="0"/>
        <pt x="6" y="2" on="1"/>
        <pt x="55" y="256" on="1"/>
        <pt x="2" y="256" on="1"/>
        <pt x="24" y="368" on="1"/>
        <pt x="77" y="368" on="1"/>
        <pt x="125" y="614" on="1"/>
        <pt x="169" y="621" on="0"/>
        <pt x="249" y="627" on="0"/>
        <pt x="284" y="627" on="1"/>
        <pt x="447" y="627" on="0"/>
        <pt x="602" y="496" on="0"/>
        <pt x="602" y="374" on="1"/>
        <pt x="602" y="304" on="0"/>
        <pt x="556" y="166" on="0"/>
        <pt x="450" y="59" on="0"/>
        <pt x="276" y="-8" on="0"/>
      </contour>
      <contour>
        <pt x="257" y="150" on="1"/>
        <pt x="293" y="150" on="0"/>
        <pt x="349" y="184" on="0"/>
        <pt x="386" y="241" on="0"/>
        <pt x="405" y="315" on="0"/>
        <pt x="405" y="355" on="1"/>
        <pt x="405" y="414" on="0"/>
        <pt x="351" y="470" on="0"/>
        <pt x="293" y="470" on="1"/>
        <pt x="274" y="368" on="1"/>
        <pt x="350" y="368" on="1"/>
        <pt x="328" y="256" on="1"/>
        <pt x="252" y="256" on="1"/>
        <pt x="232" y="152" on="1"/>
        <pt x="239" y="151" on="0"/>
        <pt x="251" y="150" on="0"/>
      </contour>
    </TTGlyph>
    <TTGlyph name="Eth.sc" xMin="-2" yMin="-8" xMax="566" yMax="557">
      <contour>
        <pt x="148" y="-8" on="1"/>
        <pt x="116" y="-8" on="0"/>
        <pt x="44" y="-3" on="0"/>
        <pt x="5" y="2" on="1"/>
        <pt x="48" y="227" on="1"/>
        <pt x="-2" y="227" on="1"/>
        <pt x="19" y="329" on="1"/>
        <pt x="68" y="329" on="1"/>
        <pt x="110" y="546" on="1"/>
        <pt x="149" y="551" on="0"/>
        <pt x="221" y="557" on="0"/>
        <pt x="252" y="557" on="1"/>
        <pt x="413" y="557" on="0"/>
        <pt x="566" y="432" on="0"/>
        <pt x="566" y="323" on="1"/>
        <pt x="566" y="261" on="0"/>
        <pt x="525" y="142" on="0"/>
        <pt x="428" y="49" on="0"/>
        <pt x="267" y="-8" on="0"/>
      </contour>
      <contour>
        <pt x="244" y="136" on="1"/>
        <pt x="276" y="136" on="0"/>
        <pt x="326" y="166" on="0"/>
        <pt x="358" y="215" on="0"/>
        <pt x="375" y="280" on="0"/>
        <pt x="375" y="314" on="1"/>
        <pt x="375" y="366" on="0"/>
        <pt x="325" y="416" on="0"/>
        <pt x="274" y="416" on="1"/>
        <pt x="257" y="329" on="1"/>
        <pt x="323" y="329" on="1"/>
        <pt x="302" y="227" on="1"/>
        <pt x="238" y="227" on="1"/>
        <pt x="221" y="138" on="1"/>
        <pt x="227" y="137" on="0"/>
        <pt x="239" y="136" on="0"/>
      </contour>
    </TTGlyph>
    <TTGlyph name="Euro" xMin="16" yMin="-12" xMax="577" yMax="634">
      <contour>
        <pt x="492" y="36" on="1"/>
        <pt x="432" y="11" on="0"/>
        <pt x="330" y="-12" on="0"/>
        <pt x="290" y="-12" on="1"/>
        <pt x="194" y="-12" on="0"/>
        <pt x="100" y="99" on="0"/>
        <pt x="92" y="184" on="1"/>
        <pt x="16" y="184" on="1"/>
        <pt x="34" y="277" on="1"/>
        <pt x="93" y="277" on="1"/>
        <pt x="94" y="289" on="0"/>
        <pt x="97" y="313" on="0"/>
        <pt x="99" y="324" on="1"/>
        <pt x="42" y="324" on="1"/>
        <pt x="60" y="418" on="1"/>
        <pt x="127" y="418" on="1"/>
        <pt x="146" y="465" on="0"/>
        <pt x="203" y="544" on="0"/>
        <pt x="274" y="602" on="0"/>
        <pt x="360" y="634" on="0"/>
        <pt x="409" y="634" on="1"/>
        <pt x="480" y="634" on="0"/>
        <pt x="566" y="557" on="0"/>
        <pt x="577" y="466" on="1"/>
        <pt x="418" y="439" on="1"/>
        <pt x="411" y="462" on="0"/>
        <pt x="393" y="485" on="0"/>
        <pt x="377" y="485" on="1"/>
        <pt x="353" y="485" on="0"/>
        <pt x="313" y="439" on="0"/>
        <pt x="300" y="403" on="1"/>
        <pt x="497" y="403" on="1"/>
        <pt x="477" y="324" on="1"/>
        <pt x="278" y="324" on="1"/>
        <pt x="277" y="313" on="0"/>
        <pt x="273" y="289" on="0"/>
        <pt x="272" y="278" on="1"/>
        <pt x="464" y="278" on="1"/>
        <pt x="445" y="200" on="1"/>
        <pt x="273" y="200" on="1"/>
        <pt x="278" y="165" on="0"/>
        <pt x="315" y="133" on="0"/>
        <pt x="358" y="133" on="1"/>
        <pt x="381" y="133" on="0"/>
        <pt x="445" y="142" on="0"/>
        <pt x="486" y="149" on="1"/>
      </contour>
    </TTGlyph>
    <TTGlyph name="F" xMin="6" yMin="0" xMax="551" yMax="620">
      <contour>
        <pt x="427" y="210" on="1"/>
        <pt x="257" y="210" on="1"/>
        <pt x="216" y="0" on="1"/>
        <pt x="6" y="0" on="1"/>
        <pt x="126" y="620" on="1"/>
        <pt x="551" y="620" on="1"/>
        <pt x="520" y="456" on="1"/>
        <pt x="305" y="456" on="1"/>
        <pt x="286" y="361" on="1"/>
        <pt x="456" y="361" on="1"/>
      </contour>
    </TTGlyph>
    <TTGlyph name="F.sc" xMin="5" yMin="0" xMax="514" yMax="552">
      <contour>
        <pt x="401" y="185" on="1"/>
        <pt x="242" y="185" on="1"/>
        <pt x="206" y="0" on="1"/>
        <pt x="5" y="0" on="1"/>
        <pt x="111" y="552" on="1"/>
        <pt x="514" y="552" on="1"/>
        <pt x="487" y="403" on="1"/>
        <pt x="285" y="403" on="1"/>
        <pt x="269" y="322" on="1"/>
        <pt x="428" y="322" on="1"/>
      </contour>
    </TTGlyph>
    <TTGlyph name="G" xMin="31" yMin="-98" xMax="575" yMax="632">
      <contour>
        <pt x="478" y="-96" on="1"/>
        <pt x="298" y="-98" on="1"/>
        <pt x="318" y="-8" on="1"/>
        <pt x="305" y="-9" on="0"/>
        <pt x="281" y="-11" on="0"/>
        <pt x="269" y="-11" on="1"/>
        <pt x="149" y="-11" on="0"/>
        <pt x="31" y="120" on="0"/>
        <pt x="31" y="228" on="1"/>
        <pt x="31" y="307" on="0"/>
        <pt x="86" y="453" on="0"/>
        <pt x="181" y="565" on="0"/>
        <pt x="310" y="632" on="0"/>
        <pt x="383" y="632" on="1"/>
        <pt x="479" y="632" on="0"/>
        <pt x="575" y="524" on="0"/>
        <pt x="575" y="402" on="1"/>
        <pt x="575" y="392" on="0"/>
        <pt x="575" y="369" on="0"/>
        <pt x="574" y="358" on="1"/>
        <pt x="389" y="356" on="1"/>
        <pt x="389" y="407" on="0"/>
        <pt x="371" y="452" on="0"/>
        <pt x="347" y="452" on="1"/>
        <pt x="324" y="452" on="0"/>
        <pt x="285" y="417" on="0"/>
        <pt x="256" y="362" on="0"/>
        <pt x="240" y="293" on="0"/>
        <pt x="240" y="259" on="1"/>
        <pt x="240" y="210" on="0"/>
        <pt x="283" y="154" on="0"/>
        <pt x="333" y="154" on="1"/>
        <pt x="338" y="154" on="0"/>
        <pt x="348" y="154" on="0"/>
        <pt x="354" y="155" on="1"/>
        <pt x="376" y="257" on="1"/>
        <pt x="561" y="261" on="1"/>
      </contour>
    </TTGlyph>
    <TTGlyph name="G.sc" xMin="25" yMin="-86" xMax="538" yMax="564">
      <contour>
        <pt x="453" y="-85" on="1"/>
        <pt x="279" y="-86" on="1"/>
        <pt x="296" y="-7" on="1"/>
        <pt x="286" y="-8" on="0"/>
        <pt x="268" y="-9" on="0"/>
        <pt x="259" y="-9" on="1"/>
        <pt x="144" y="-9" on="0"/>
        <pt x="25" y="109" on="0"/>
        <pt x="25" y="205" on="1"/>
        <pt x="25" y="275" on="0"/>
        <pt x="76" y="406" on="0"/>
        <pt x="165" y="504" on="0"/>
        <pt x="285" y="564" on="0"/>
        <pt x="354" y="564" on="1"/>
        <pt x="444" y="564" on="0"/>
        <pt x="538" y="468" on="0"/>
        <pt x="538" y="361" on="1"/>
        <pt x="538" y="351" on="0"/>
        <pt x="537" y="329" on="0"/>
        <pt x="536" y="318" on="1"/>
        <pt x="360" y="316" on="1"/>
        <pt x="360" y="360" on="0"/>
        <pt x="343" y="398" on="0"/>
        <pt x="322" y="398" on="1"/>
        <pt x="301" y="398" on="0"/>
        <pt x="266" y="368" on="0"/>
        <pt x="240" y="321" on="0"/>
        <pt x="226" y="262" on="0"/>
        <pt x="226" y="233" on="1"/>
        <pt x="226" y="190" on="0"/>
        <pt x="267" y="140" on="0"/>
        <pt x="317" y="140" on="1"/>
        <pt x="320" y="140" on="0"/>
        <pt x="326" y="140" on="0"/>
        <pt x="329" y="140" on="1"/>
        <pt x="349" y="229" on="1"/>
        <pt x="527" y="233" on="1"/>
      </contour>
    </TTGlyph>
    <TTGlyph name="Gbreve" xMin="31" yMin="-98" xMax="635" yMax="894">
      <contour>
        <pt x="544" y="891" on="1"/>
        <pt x="635" y="828" on="1"/>
        <pt x="586" y="761" on="0"/>
        <pt x="463" y="670" on="0"/>
        <pt x="395" y="670" on="1"/>
        <pt x="331" y="670" on="0"/>
        <pt x="237" y="758" on="0"/>
        <pt x="213" y="829" on="1"/>
        <pt x="337" y="894" on="1"/>
        <pt x="355" y="857" on="0"/>
        <pt x="399" y="817" on="0"/>
        <pt x="427" y="817" on="1"/>
        <pt x="454" y="817" on="0"/>
        <pt x="512" y="857" on="0"/>
      </contour>
      <contour>
        <pt x="478" y="-96" on="1"/>
        <pt x="298" y="-98" on="1"/>
        <pt x="318" y="-8" on="1"/>
        <pt x="305" y="-9" on="0"/>
        <pt x="281" y="-11" on="0"/>
        <pt x="269" y="-11" on="1"/>
        <pt x="149" y="-11" on="0"/>
        <pt x="31" y="120" on="0"/>
        <pt x="31" y="228" on="1"/>
        <pt x="31" y="307" on="0"/>
        <pt x="86" y="453" on="0"/>
        <pt x="181" y="565" on="0"/>
        <pt x="310" y="632" on="0"/>
        <pt x="383" y="632" on="1"/>
        <pt x="479" y="632" on="0"/>
        <pt x="575" y="524" on="0"/>
        <pt x="575" y="402" on="1"/>
        <pt x="575" y="392" on="0"/>
        <pt x="575" y="369" on="0"/>
        <pt x="574" y="358" on="1"/>
        <pt x="389" y="356" on="1"/>
        <pt x="389" y="407" on="0"/>
        <pt x="371" y="452" on="0"/>
        <pt x="347" y="452" on="1"/>
        <pt x="324" y="452" on="0"/>
        <pt x="285" y="417" on="0"/>
        <pt x="256" y="362" on="0"/>
        <pt x="240" y="293" on="0"/>
        <pt x="240" y="259" on="1"/>
        <pt x="240" y="210" on="0"/>
        <pt x="283" y="154" on="0"/>
        <pt x="333" y="154" on="1"/>
        <pt x="338" y="154" on="0"/>
        <pt x="348" y="154" on="0"/>
        <pt x="354" y="155" on="1"/>
        <pt x="376" y="257" on="1"/>
        <pt x="561" y="261" on="1"/>
      </contour>
    </TTGlyph>
    <TTGlyph name="Gbreve.sc" xMin="25" yMin="-86" xMax="611" yMax="825">
      <contour>
        <pt x="520" y="822" on="1"/>
        <pt x="611" y="759" on="1"/>
        <pt x="562" y="692" on="0"/>
        <pt x="439" y="601" on="0"/>
        <pt x="371" y="601" on="1"/>
        <pt x="307" y="601" on="0"/>
        <pt x="213" y="689" on="0"/>
        <pt x="189" y="760" on="1"/>
        <pt x="313" y="825" on="1"/>
        <pt x="331" y="788" on="0"/>
        <pt x="375" y="748" on="0"/>
        <pt x="403" y="748" on="1"/>
        <pt x="430" y="748" on="0"/>
        <pt x="488" y="788" on="0"/>
      </contour>
      <contour>
        <pt x="453" y="-85" on="1"/>
        <pt x="279" y="-86" on="1"/>
        <pt x="296" y="-7" on="1"/>
        <pt x="286" y="-8" on="0"/>
        <pt x="268" y="-9" on="0"/>
        <pt x="259" y="-9" on="1"/>
        <pt x="144" y="-9" on="0"/>
        <pt x="25" y="109" on="0"/>
        <pt x="25" y="205" on="1"/>
        <pt x="25" y="275" on="0"/>
        <pt x="76" y="406" on="0"/>
        <pt x="165" y="504" on="0"/>
        <pt x="285" y="564" on="0"/>
        <pt x="354" y="564" on="1"/>
        <pt x="444" y="564" on="0"/>
        <pt x="538" y="468" on="0"/>
        <pt x="538" y="361" on="1"/>
        <pt x="538" y="351" on="0"/>
        <pt x="537" y="329" on="0"/>
        <pt x="536" y="318" on="1"/>
        <pt x="360" y="316" on="1"/>
        <pt x="360" y="360" on="0"/>
        <pt x="343" y="398" on="0"/>
        <pt x="322" y="398" on="1"/>
        <pt x="301" y="398" on="0"/>
        <pt x="266" y="368" on="0"/>
        <pt x="240" y="321" on="0"/>
        <pt x="226" y="262" on="0"/>
        <pt x="226" y="233" on="1"/>
        <pt x="226" y="190" on="0"/>
        <pt x="267" y="140" on="0"/>
        <pt x="317" y="140" on="1"/>
        <pt x="320" y="140" on="0"/>
        <pt x="326" y="140" on="0"/>
        <pt x="329" y="140" on="1"/>
        <pt x="349" y="229" on="1"/>
        <pt x="527" y="233" on="1"/>
      </contour>
    </TTGlyph>
    <TTGlyph name="Gcommaaccent" xMin="31" yMin="-388" xMax="575" yMax="632">
      <contour>
        <pt x="478" y="-96" on="1"/>
        <pt x="298" y="-98" on="1"/>
        <pt x="318" y="-8" on="1"/>
        <pt x="305" y="-9" on="0"/>
        <pt x="281" y="-11" on="0"/>
        <pt x="269" y="-11" on="1"/>
        <pt x="149" y="-11" on="0"/>
        <pt x="31" y="120" on="0"/>
        <pt x="31" y="228" on="1"/>
        <pt x="31" y="307" on="0"/>
        <pt x="86" y="453" on="0"/>
        <pt x="181" y="565" on="0"/>
        <pt x="310" y="632" on="0"/>
        <pt x="383" y="632" on="1"/>
        <pt x="479" y="632" on="0"/>
        <pt x="575" y="524" on="0"/>
        <pt x="575" y="402" on="1"/>
        <pt x="575" y="392" on="0"/>
        <pt x="575" y="369" on="0"/>
        <pt x="574" y="358" on="1"/>
        <pt x="389" y="356" on="1"/>
        <pt x="389" y="407" on="0"/>
        <pt x="371" y="452" on="0"/>
        <pt x="347" y="452" on="1"/>
        <pt x="324" y="452" on="0"/>
        <pt x="285" y="417" on="0"/>
        <pt x="256" y="362" on="0"/>
        <pt x="240" y="293" on="0"/>
        <pt x="240" y="259" on="1"/>
        <pt x="240" y="210" on="0"/>
        <pt x="283" y="154" on="0"/>
        <pt x="333" y="154" on="1"/>
        <pt x="338" y="154" on="0"/>
        <pt x="348" y="154" on="0"/>
        <pt x="354" y="155" on="1"/>
        <pt x="376" y="257" on="1"/>
        <pt x="561" y="261" on="1"/>
      </contour>
      <contour>
        <pt x="90" y="-353" on="1"/>
        <pt x="109" y="-299" on="0"/>
        <pt x="131" y="-191" on="0"/>
        <pt x="131" y="-131" on="1"/>
        <pt x="341" y="-130" on="1"/>
        <pt x="327" y="-208" on="0"/>
        <pt x="246" y="-337" on="0"/>
        <pt x="167" y="-388" on="1"/>
      </contour>
    </TTGlyph>
    <TTGlyph name="Gcommaaccent.sc" xMin="25" yMin="-376" xMax="538" yMax="564">
      <contour>
        <pt x="453" y="-85" on="1"/>
        <pt x="279" y="-86" on="1"/>
        <pt x="296" y="-7" on="1"/>
        <pt x="286" y="-8" on="0"/>
        <pt x="268" y="-9" on="0"/>
        <pt x="259" y="-9" on="1"/>
        <pt x="144" y="-9" on="0"/>
        <pt x="25" y="109" on="0"/>
        <pt x="25" y="205" on="1"/>
        <pt x="25" y="275" on="0"/>
        <pt x="76" y="406" on="0"/>
        <pt x="165" y="504" on="0"/>
        <pt x="285" y="564" on="0"/>
        <pt x="354" y="564" on="1"/>
        <pt x="444" y="564" on="0"/>
        <pt x="538" y="468" on="0"/>
        <pt x="538" y="361" on="1"/>
        <pt x="538" y="351" on="0"/>
        <pt x="537" y="329" on="0"/>
        <pt x="536" y="318" on="1"/>
        <pt x="360" y="316" on="1"/>
        <pt x="360" y="360" on="0"/>
        <pt x="343" y="398" on="0"/>
        <pt x="322" y="398" on="1"/>
        <pt x="301" y="398" on="0"/>
        <pt x="266" y="368" on="0"/>
        <pt x="240" y="321" on="0"/>
        <pt x="226" y="262" on="0"/>
        <pt x="226" y="233" on="1"/>
        <pt x="226" y="190" on="0"/>
        <pt x="267" y="140" on="0"/>
        <pt x="317" y="140" on="1"/>
        <pt x="320" y="140" on="0"/>
        <pt x="326" y="140" on="0"/>
        <pt x="329" y="140" on="1"/>
        <pt x="349" y="229" on="1"/>
        <pt x="527" y="233" on="1"/>
      </contour>
      <contour>
        <pt x="81" y="-341" on="1"/>
        <pt x="100" y="-287" on="0"/>
        <pt x="122" y="-179" on="0"/>
        <pt x="122" y="-119" on="1"/>
        <pt x="332" y="-118" on="1"/>
        <pt x="318" y="-196" on="0"/>
        <pt x="237" y="-325" on="0"/>
        <pt x="158" y="-376" on="1"/>
      </contour>
    </TTGlyph>
    <TTGlyph name="Gdotaccent" xMin="31" yMin="-98" xMax="575" yMax="849">
      <contour>
        <pt x="486" y="686" on="1"/>
        <pt x="289" y="685" on="1"/>
        <pt x="326" y="845" on="1"/>
        <pt x="531" y="849" on="1"/>
      </contour>
      <contour>
        <pt x="478" y="-96" on="1"/>
        <pt x="298" y="-98" on="1"/>
        <pt x="318" y="-8" on="1"/>
        <pt x="305" y="-9" on="0"/>
        <pt x="281" y="-11" on="0"/>
        <pt x="269" y="-11" on="1"/>
        <pt x="149" y="-11" on="0"/>
        <pt x="31" y="120" on="0"/>
        <pt x="31" y="228" on="1"/>
        <pt x="31" y="307" on="0"/>
        <pt x="86" y="453" on="0"/>
        <pt x="181" y="565" on="0"/>
        <pt x="310" y="632" on="0"/>
        <pt x="383" y="632" on="1"/>
        <pt x="479" y="632" on="0"/>
        <pt x="575" y="524" on="0"/>
        <pt x="575" y="402" on="1"/>
        <pt x="575" y="392" on="0"/>
        <pt x="575" y="369" on="0"/>
        <pt x="574" y="358" on="1"/>
        <pt x="389" y="356" on="1"/>
        <pt x="389" y="407" on="0"/>
        <pt x="371" y="452" on="0"/>
        <pt x="347" y="452" on="1"/>
        <pt x="324" y="452" on="0"/>
        <pt x="285" y="417" on="0"/>
        <pt x="256" y="362" on="0"/>
        <pt x="240" y="293" on="0"/>
        <pt x="240" y="259" on="1"/>
        <pt x="240" y="210" on="0"/>
        <pt x="283" y="154" on="0"/>
        <pt x="333" y="154" on="1"/>
        <pt x="338" y="154" on="0"/>
        <pt x="348" y="154" on="0"/>
        <pt x="354" y="155" on="1"/>
        <pt x="376" y="257" on="1"/>
        <pt x="561" y="261" on="1"/>
      </contour>
    </TTGlyph>
    <TTGlyph name="Gdotaccent.sc" xMin="25" yMin="-86" xMax="538" yMax="780">
      <contour>
        <pt x="461" y="617" on="1"/>
        <pt x="264" y="616" on="1"/>
        <pt x="301" y="776" on="1"/>
        <pt x="506" y="780" on="1"/>
      </contour>
      <contour>
        <pt x="453" y="-85" on="1"/>
        <pt x="279" y="-86" on="1"/>
        <pt x="296" y="-7" on="1"/>
        <pt x="286" y="-8" on="0"/>
        <pt x="268" y="-9" on="0"/>
        <pt x="259" y="-9" on="1"/>
        <pt x="144" y="-9" on="0"/>
        <pt x="25" y="109" on="0"/>
        <pt x="25" y="205" on="1"/>
        <pt x="25" y="275" on="0"/>
        <pt x="76" y="406" on="0"/>
        <pt x="165" y="504" on="0"/>
        <pt x="285" y="564" on="0"/>
        <pt x="354" y="564" on="1"/>
        <pt x="444" y="564" on="0"/>
        <pt x="538" y="468" on="0"/>
        <pt x="538" y="361" on="1"/>
        <pt x="538" y="351" on="0"/>
        <pt x="537" y="329" on="0"/>
        <pt x="536" y="318" on="1"/>
        <pt x="360" y="316" on="1"/>
        <pt x="360" y="360" on="0"/>
        <pt x="343" y="398" on="0"/>
        <pt x="322" y="398" on="1"/>
        <pt x="301" y="398" on="0"/>
        <pt x="266" y="368" on="0"/>
        <pt x="240" y="321" on="0"/>
        <pt x="226" y="262" on="0"/>
        <pt x="226" y="233" on="1"/>
        <pt x="226" y="190" on="0"/>
        <pt x="267" y="140" on="0"/>
        <pt x="317" y="140" on="1"/>
        <pt x="320" y="140" on="0"/>
        <pt x="326" y="140" on="0"/>
        <pt x="329" y="140" on="1"/>
        <pt x="349" y="229" on="1"/>
        <pt x="527" y="233" on="1"/>
      </contour>
    </TTGlyph>
    <TTGlyph name="H" xMin="6" yMin="0" xMax="672" yMax="620">
      <contour>
        <pt x="340" y="0" on="1"/>
        <pt x="385" y="231" on="1"/>
        <pt x="263" y="231" on="1"/>
        <pt x="218" y="0" on="1"/>
        <pt x="6" y="0" on="1"/>
        <pt x="126" y="620" on="1"/>
        <pt x="338" y="620" on="1"/>
        <pt x="294" y="393" on="1"/>
        <pt x="416" y="393" on="1"/>
        <pt x="460" y="620" on="1"/>
        <pt x="672" y="620" on="1"/>
        <pt x="552" y="0" on="1"/>
      </contour>
    </TTGlyph>
    <TTGlyph name="H.sc" xMin="5" yMin="0" xMax="630" yMax="552">
      <contour>
        <pt x="320" y="0" on="1"/>
        <pt x="359" y="204" on="1"/>
        <pt x="248" y="204" on="1"/>
        <pt x="208" y="0" on="1"/>
        <pt x="5" y="0" on="1"/>
        <pt x="111" y="552" on="1"/>
        <pt x="315" y="552" on="1"/>
        <pt x="276" y="352" on="1"/>
        <pt x="388" y="352" on="1"/>
        <pt x="426" y="552" on="1"/>
        <pt x="630" y="552" on="1"/>
        <pt x="522" y="0" on="1"/>
      </contour>
    </TTGlyph>
    <TTGlyph name="Hbar" xMin="6" yMin="0" xMax="713" yMax="620">
      <contour>
        <pt x="409" y="354" on="1"/>
        <pt x="424" y="434" on="1"/>
        <pt x="302" y="434" on="1"/>
        <pt x="287" y="354" on="1"/>
      </contour>
      <contour>
        <pt x="340" y="0" on="1"/>
        <pt x="378" y="194" on="1"/>
        <pt x="256" y="194" on="1"/>
        <pt x="218" y="0" on="1"/>
        <pt x="6" y="0" on="1"/>
        <pt x="89" y="429" on="1"/>
        <pt x="34" y="429" on="1"/>
        <pt x="56" y="542" on="1"/>
        <pt x="111" y="542" on="1"/>
        <pt x="126" y="620" on="1"/>
        <pt x="338" y="620" on="1"/>
        <pt x="322" y="537" on="1"/>
        <pt x="444" y="537" on="1"/>
        <pt x="460" y="620" on="1"/>
        <pt x="672" y="620" on="1"/>
        <pt x="657" y="542" on="1"/>
        <pt x="713" y="542" on="1"/>
        <pt x="690" y="429" on="1"/>
        <pt x="635" y="429" on="1"/>
        <pt x="552" y="0" on="1"/>
      </contour>
    </TTGlyph>
    <TTGlyph name="Hbar.sc" xMin="-2" yMin="0" xMax="658" yMax="552">
      <contour>
        <pt x="376" y="326" on="1"/>
        <pt x="387" y="386" on="1"/>
        <pt x="276" y="386" on="1"/>
        <pt x="264" y="326" on="1"/>
      </contour>
      <contour>
        <pt x="313" y="0" on="1"/>
        <pt x="347" y="178" on="1"/>
        <pt x="236" y="178" on="1"/>
        <pt x="201" y="0" on="1"/>
        <pt x="-2" y="0" on="1"/>
        <pt x="71" y="382" on="1"/>
        <pt x="20" y="382" on="1"/>
        <pt x="39" y="478" on="1"/>
        <pt x="90" y="478" on="1"/>
        <pt x="104" y="552" on="1"/>
        <pt x="308" y="552" on="1"/>
        <pt x="293" y="474" on="1"/>
        <pt x="404" y="474" on="1"/>
        <pt x="419" y="552" on="1"/>
        <pt x="623" y="552" on="1"/>
        <pt x="609" y="478" on="1"/>
        <pt x="658" y="478" on="1"/>
        <pt x="639" y="382" on="1"/>
        <pt x="590" y="382" on="1"/>
        <pt x="515" y="0" on="1"/>
      </contour>
    </TTGlyph>
    <TTGlyph name="I" xMin="-7" yMin="0" xMax="544" yMax="620">
      <contour>
        <pt x="340" y="149" on="1"/>
        <pt x="462" y="149" on="1"/>
        <pt x="425" y="0" on="1"/>
        <pt x="-7" y="0" on="1"/>
        <pt x="22" y="149" on="1"/>
        <pt x="134" y="149" on="1"/>
        <pt x="197" y="471" on="1"/>
        <pt x="82" y="471" on="1"/>
        <pt x="111" y="620" on="1"/>
        <pt x="544" y="620" on="1"/>
        <pt x="515" y="471" on="1"/>
        <pt x="403" y="471" on="1"/>
      </contour>
    </TTGlyph>
    <TTGlyph name="I.sc" xMin="-8" yMin="0" xMax="508" yMax="552">
      <contour>
        <pt x="322" y="135" on="1"/>
        <pt x="436" y="135" on="1"/>
        <pt x="402" y="0" on="1"/>
        <pt x="-8" y="0" on="1"/>
        <pt x="18" y="135" on="1"/>
        <pt x="124" y="135" on="1"/>
        <pt x="179" y="417" on="1"/>
        <pt x="71" y="417" on="1"/>
        <pt x="97" y="552" on="1"/>
        <pt x="508" y="552" on="1"/>
        <pt x="482" y="417" on="1"/>
        <pt x="377" y="417" on="1"/>
      </contour>
    </TTGlyph>
    <TTGlyph name="Iacute" xMin="-7" yMin="0" xMax="556" yMax="911">
      <contour>
        <pt x="206" y="736" on="1"/>
        <pt x="270" y="772" on="0"/>
        <pt x="405" y="864" on="0"/>
        <pt x="462" y="911" on="1"/>
        <pt x="556" y="765" on="1"/>
        <pt x="484" y="722" on="0"/>
        <pt x="309" y="669" on="0"/>
        <pt x="231" y="657" on="1"/>
      </contour>
      <contour>
        <pt x="340" y="149" on="1"/>
        <pt x="462" y="149" on="1"/>
        <pt x="425" y="0" on="1"/>
        <pt x="-7" y="0" on="1"/>
        <pt x="22" y="149" on="1"/>
        <pt x="134" y="149" on="1"/>
        <pt x="197" y="471" on="1"/>
        <pt x="82" y="471" on="1"/>
        <pt x="111" y="620" on="1"/>
        <pt x="544" y="620" on="1"/>
        <pt x="515" y="471" on="1"/>
        <pt x="403" y="471" on="1"/>
      </contour>
    </TTGlyph>
    <TTGlyph name="Iacute.sc" xMin="-8" yMin="0" xMax="531" yMax="843">
      <contour>
        <pt x="181" y="668" on="1"/>
        <pt x="245" y="704" on="0"/>
        <pt x="380" y="796" on="0"/>
        <pt x="437" y="843" on="1"/>
        <pt x="531" y="697" on="1"/>
        <pt x="459" y="654" on="0"/>
        <pt x="284" y="601" on="0"/>
        <pt x="206" y="589" on="1"/>
      </contour>
      <contour>
        <pt x="322" y="135" on="1"/>
        <pt x="436" y="135" on="1"/>
        <pt x="402" y="0" on="1"/>
        <pt x="-8" y="0" on="1"/>
        <pt x="18" y="135" on="1"/>
        <pt x="124" y="135" on="1"/>
        <pt x="179" y="417" on="1"/>
        <pt x="71" y="417" on="1"/>
        <pt x="97" y="552" on="1"/>
        <pt x="508" y="552" on="1"/>
        <pt x="482" y="417" on="1"/>
        <pt x="377" y="417" on="1"/>
      </contour>
    </TTGlyph>
    <TTGlyph name="Ibreve" xMin="-7" yMin="0" xMax="583" yMax="885">
      <contour>
        <pt x="492" y="882" on="1"/>
        <pt x="583" y="819" on="1"/>
        <pt x="534" y="752" on="0"/>
        <pt x="411" y="661" on="0"/>
        <pt x="343" y="661" on="1"/>
        <pt x="279" y="661" on="0"/>
        <pt x="185" y="749" on="0"/>
        <pt x="161" y="820" on="1"/>
        <pt x="285" y="885" on="1"/>
        <pt x="303" y="848" on="0"/>
        <pt x="347" y="808" on="0"/>
        <pt x="375" y="808" on="1"/>
        <pt x="402" y="808" on="0"/>
        <pt x="460" y="848" on="0"/>
      </contour>
      <contour>
        <pt x="340" y="149" on="1"/>
        <pt x="462" y="149" on="1"/>
        <pt x="425" y="0" on="1"/>
        <pt x="-7" y="0" on="1"/>
        <pt x="22" y="149" on="1"/>
        <pt x="134" y="149" on="1"/>
        <pt x="197" y="471" on="1"/>
        <pt x="82" y="471" on="1"/>
        <pt x="111" y="620" on="1"/>
        <pt x="544" y="620" on="1"/>
        <pt x="515" y="471" on="1"/>
        <pt x="403" y="471" on="1"/>
      </contour>
    </TTGlyph>
    <TTGlyph name="Ibreve.sc" xMin="-8" yMin="0" xMax="557" yMax="817">
      <contour>
        <pt x="466" y="814" on="1"/>
        <pt x="557" y="751" on="1"/>
        <pt x="508" y="684" on="0"/>
        <pt x="385" y="593" on="0"/>
        <pt x="317" y="593" on="1"/>
        <pt x="253" y="593" on="0"/>
        <pt x="159" y="681" on="0"/>
        <pt x="135" y="752" on="1"/>
        <pt x="259" y="817" on="1"/>
        <pt x="277" y="780" on="0"/>
        <pt x="321" y="740" on="0"/>
        <pt x="349" y="740" on="1"/>
        <pt x="376" y="740" on="0"/>
        <pt x="434" y="780" on="0"/>
      </contour>
      <contour>
        <pt x="322" y="135" on="1"/>
        <pt x="436" y="135" on="1"/>
        <pt x="402" y="0" on="1"/>
        <pt x="-8" y="0" on="1"/>
        <pt x="18" y="135" on="1"/>
        <pt x="124" y="135" on="1"/>
        <pt x="179" y="417" on="1"/>
        <pt x="71" y="417" on="1"/>
        <pt x="97" y="552" on="1"/>
        <pt x="508" y="552" on="1"/>
        <pt x="482" y="417" on="1"/>
        <pt x="377" y="417" on="1"/>
      </contour>
    </TTGlyph>
    <TTGlyph name="Icircumflex" xMin="-7" yMin="0" xMax="562" yMax="893">
      <contour>
        <pt x="451" y="653" on="1"/>
        <pt x="358" y="745" on="1"/>
        <pt x="221" y="656" on="1"/>
        <pt x="150" y="753" on="1"/>
        <pt x="366" y="893" on="1"/>
        <pt x="404" y="893" on="1"/>
        <pt x="562" y="741" on="1"/>
      </contour>
      <contour>
        <pt x="340" y="149" on="1"/>
        <pt x="462" y="149" on="1"/>
        <pt x="425" y="0" on="1"/>
        <pt x="-7" y="0" on="1"/>
        <pt x="22" y="149" on="1"/>
        <pt x="134" y="149" on="1"/>
        <pt x="197" y="471" on="1"/>
        <pt x="82" y="471" on="1"/>
        <pt x="111" y="620" on="1"/>
        <pt x="544" y="620" on="1"/>
        <pt x="515" y="471" on="1"/>
        <pt x="403" y="471" on="1"/>
      </contour>
    </TTGlyph>
    <TTGlyph name="Icircumflex.sc" xMin="-8" yMin="0" xMax="536" yMax="825">
      <contour>
        <pt x="425" y="585" on="1"/>
        <pt x="332" y="677" on="1"/>
        <pt x="195" y="588" on="1"/>
        <pt x="124" y="685" on="1"/>
        <pt x="340" y="825" on="1"/>
        <pt x="378" y="825" on="1"/>
        <pt x="536" y="673" on="1"/>
      </contour>
      <contour>
        <pt x="322" y="135" on="1"/>
        <pt x="436" y="135" on="1"/>
        <pt x="402" y="0" on="1"/>
        <pt x="-8" y="0" on="1"/>
        <pt x="18" y="135" on="1"/>
        <pt x="124" y="135" on="1"/>
        <pt x="179" y="417" on="1"/>
        <pt x="71" y="417" on="1"/>
        <pt x="97" y="552" on="1"/>
        <pt x="508" y="552" on="1"/>
        <pt x="482" y="417" on="1"/>
        <pt x="377" y="417" on="1"/>
      </contour>
    </TTGlyph>
    <TTGlyph name="Idieresis" xMin="-7" yMin="0" xMax="591" yMax="841">
      <contour>
        <pt x="545" y="677" on="1"/>
        <pt x="366" y="677" on="1"/>
        <pt x="403" y="838" on="1"/>
        <pt x="591" y="841" on="1"/>
      </contour>
      <contour>
        <pt x="308" y="677" on="1"/>
        <pt x="129" y="676" on="1"/>
        <pt x="166" y="836" on="1"/>
        <pt x="354" y="839" on="1"/>
      </contour>
      <contour>
        <pt x="340" y="149" on="1"/>
        <pt x="462" y="149" on="1"/>
        <pt x="425" y="0" on="1"/>
        <pt x="-7" y="0" on="1"/>
        <pt x="22" y="149" on="1"/>
        <pt x="134" y="149" on="1"/>
        <pt x="197" y="471" on="1"/>
        <pt x="82" y="471" on="1"/>
        <pt x="111" y="620" on="1"/>
        <pt x="544" y="620" on="1"/>
        <pt x="515" y="471" on="1"/>
        <pt x="403" y="471" on="1"/>
      </contour>
    </TTGlyph>
    <TTGlyph name="Idieresis.sc" xMin="-8" yMin="0" xMax="565" yMax="773">
      <contour>
        <pt x="519" y="609" on="1"/>
        <pt x="340" y="609" on="1"/>
        <pt x="377" y="770" on="1"/>
        <pt x="565" y="773" on="1"/>
      </contour>
      <contour>
        <pt x="282" y="609" on="1"/>
        <pt x="103" y="608" on="1"/>
        <pt x="140" y="768" on="1"/>
        <pt x="328" y="771" on="1"/>
      </contour>
      <contour>
        <pt x="322" y="135" on="1"/>
        <pt x="436" y="135" on="1"/>
        <pt x="402" y="0" on="1"/>
        <pt x="-8" y="0" on="1"/>
        <pt x="18" y="135" on="1"/>
        <pt x="124" y="135" on="1"/>
        <pt x="179" y="417" on="1"/>
        <pt x="71" y="417" on="1"/>
        <pt x="97" y="552" on="1"/>
        <pt x="508" y="552" on="1"/>
        <pt x="482" y="417" on="1"/>
        <pt x="377" y="417" on="1"/>
      </contour>
    </TTGlyph>
    <TTGlyph name="Idotaccent" xMin="-7" yMin="0" xMax="544" yMax="840">
      <contour>
        <pt x="434" y="677" on="1"/>
        <pt x="237" y="676" on="1"/>
        <pt x="274" y="836" on="1"/>
        <pt x="479" y="840" on="1"/>
      </contour>
      <contour>
        <pt x="340" y="149" on="1"/>
        <pt x="462" y="149" on="1"/>
        <pt x="425" y="0" on="1"/>
        <pt x="-7" y="0" on="1"/>
        <pt x="22" y="149" on="1"/>
        <pt x="134" y="149" on="1"/>
        <pt x="197" y="471" on="1"/>
        <pt x="82" y="471" on="1"/>
        <pt x="111" y="620" on="1"/>
        <pt x="544" y="620" on="1"/>
        <pt x="515" y="471" on="1"/>
        <pt x="403" y="471" on="1"/>
      </contour>
    </TTGlyph>
    <TTGlyph name="Idotaccent.sc" xMin="-8" yMin="0" xMax="508" yMax="772">
      <contour>
        <pt x="408" y="609" on="1"/>
        <pt x="211" y="608" on="1"/>
        <pt x="248" y="768" on="1"/>
        <pt x="453" y="772" on="1"/>
      </contour>
      <contour>
        <pt x="322" y="135" on="1"/>
        <pt x="436" y="135" on="1"/>
        <pt x="402" y="0" on="1"/>
        <pt x="-8" y="0" on="1"/>
        <pt x="18" y="135" on="1"/>
        <pt x="124" y="135" on="1"/>
        <pt x="179" y="417" on="1"/>
        <pt x="71" y="417" on="1"/>
        <pt x="97" y="552" on="1"/>
        <pt x="508" y="552" on="1"/>
        <pt x="482" y="417" on="1"/>
        <pt x="377" y="417" on="1"/>
      </contour>
    </TTGlyph>
    <TTGlyph name="Igrave" xMin="-7" yMin="0" xMax="544" yMax="912">
      <contour>
        <pt x="486" y="734" on="1"/>
        <pt x="460" y="656" on="1"/>
        <pt x="382" y="669" on="0"/>
        <pt x="214" y="724" on="0"/>
        <pt x="142" y="765" on="1"/>
        <pt x="234" y="912" on="1"/>
        <pt x="291" y="864" on="0"/>
        <pt x="422" y="771" on="0"/>
      </contour>
      <contour>
        <pt x="340" y="149" on="1"/>
        <pt x="462" y="149" on="1"/>
        <pt x="425" y="0" on="1"/>
        <pt x="-7" y="0" on="1"/>
        <pt x="22" y="149" on="1"/>
        <pt x="134" y="149" on="1"/>
        <pt x="197" y="471" on="1"/>
        <pt x="82" y="471" on="1"/>
        <pt x="111" y="620" on="1"/>
        <pt x="544" y="620" on="1"/>
        <pt x="515" y="471" on="1"/>
        <pt x="403" y="471" on="1"/>
      </contour>
    </TTGlyph>
    <TTGlyph name="Igrave.sc" xMin="-8" yMin="0" xMax="508" yMax="844">
      <contour>
        <pt x="461" y="666" on="1"/>
        <pt x="435" y="588" on="1"/>
        <pt x="357" y="601" on="0"/>
        <pt x="189" y="656" on="0"/>
        <pt x="117" y="697" on="1"/>
        <pt x="209" y="844" on="1"/>
        <pt x="266" y="796" on="0"/>
        <pt x="397" y="703" on="0"/>
      </contour>
      <contour>
        <pt x="322" y="135" on="1"/>
        <pt x="436" y="135" on="1"/>
        <pt x="402" y="0" on="1"/>
        <pt x="-8" y="0" on="1"/>
        <pt x="18" y="135" on="1"/>
        <pt x="124" y="135" on="1"/>
        <pt x="179" y="417" on="1"/>
        <pt x="71" y="417" on="1"/>
        <pt x="97" y="552" on="1"/>
        <pt x="508" y="552" on="1"/>
        <pt x="482" y="417" on="1"/>
        <pt x="377" y="417" on="1"/>
      </contour>
    </TTGlyph>
    <TTGlyph name="Imacron" xMin="-7" yMin="0" xMax="564" yMax="841">
      <contour>
        <pt x="564" y="841" on="1"/>
        <pt x="533" y="683" on="1"/>
        <pt x="156" y="683" on="1"/>
        <pt x="187" y="841" on="1"/>
      </contour>
      <contour>
        <pt x="340" y="149" on="1"/>
        <pt x="462" y="149" on="1"/>
        <pt x="425" y="0" on="1"/>
        <pt x="-7" y="0" on="1"/>
        <pt x="22" y="149" on="1"/>
        <pt x="134" y="149" on="1"/>
        <pt x="197" y="471" on="1"/>
        <pt x="82" y="471" on="1"/>
        <pt x="111" y="620" on="1"/>
        <pt x="544" y="620" on="1"/>
        <pt x="515" y="471" on="1"/>
        <pt x="403" y="471" on="1"/>
      </contour>
    </TTGlyph>
    <TTGlyph name="Imacron.sc" xMin="-8" yMin="0" xMax="539" yMax="773">
      <contour>
        <pt x="539" y="773" on="1"/>
        <pt x="508" y="615" on="1"/>
        <pt x="131" y="615" on="1"/>
        <pt x="162" y="773" on="1"/>
      </contour>
      <contour>
        <pt x="322" y="135" on="1"/>
        <pt x="436" y="135" on="1"/>
        <pt x="402" y="0" on="1"/>
        <pt x="-8" y="0" on="1"/>
        <pt x="18" y="135" on="1"/>
        <pt x="124" y="135" on="1"/>
        <pt x="179" y="417" on="1"/>
        <pt x="71" y="417" on="1"/>
        <pt x="97" y="552" on="1"/>
        <pt x="508" y="552" on="1"/>
        <pt x="482" y="417" on="1"/>
        <pt x="377" y="417" on="1"/>
      </contour>
    </TTGlyph>
    <TTGlyph name="Iogonek" xMin="-7" yMin="-228" xMax="544" yMax="620">
      <contour>
        <pt x="312" y="-193" on="1"/>
        <pt x="266" y="-212" on="0"/>
        <pt x="190" y="-228" on="0"/>
        <pt x="160" y="-228" on="1"/>
        <pt x="103" y="-228" on="0"/>
        <pt x="46" y="-175" on="0"/>
        <pt x="46" y="-134" on="1"/>
        <pt x="46" y="-101" on="0"/>
        <pt x="86" y="-32" on="0"/>
        <pt x="135" y="0" on="1"/>
        <pt x="-7" y="0" on="1"/>
        <pt x="22" y="149" on="1"/>
        <pt x="134" y="149" on="1"/>
        <pt x="197" y="471" on="1"/>
        <pt x="82" y="471" on="1"/>
        <pt x="111" y="620" on="1"/>
        <pt x="544" y="620" on="1"/>
        <pt x="515" y="471" on="1"/>
        <pt x="403" y="471" on="1"/>
        <pt x="340" y="149" on="1"/>
        <pt x="462" y="149" on="1"/>
        <pt x="425" y="0" on="1"/>
        <pt x="311" y="0" on="1"/>
        <pt x="248" y="-19" on="0"/>
        <pt x="203" y="-60" on="0"/>
        <pt x="203" y="-76" on="1"/>
        <pt x="203" y="-88" on="0"/>
        <pt x="225" y="-100" on="0"/>
        <pt x="249" y="-100" on="1"/>
        <pt x="260" y="-100" on="0"/>
        <pt x="290" y="-97" on="0"/>
        <pt x="308" y="-94" on="1"/>
      </contour>
    </TTGlyph>
    <TTGlyph name="Iogonek.sc" xMin="-8" yMin="-228" xMax="508" yMax="552">
      <contour>
        <pt x="306" y="-193" on="1"/>
        <pt x="260" y="-212" on="0"/>
        <pt x="184" y="-228" on="0"/>
        <pt x="154" y="-228" on="1"/>
        <pt x="97" y="-228" on="0"/>
        <pt x="39" y="-175" on="0"/>
        <pt x="39" y="-134" on="1"/>
        <pt x="39" y="-101" on="0"/>
        <pt x="80" y="-32" on="0"/>
        <pt x="129" y="0" on="1"/>
        <pt x="-8" y="0" on="1"/>
        <pt x="18" y="135" on="1"/>
        <pt x="124" y="135" on="1"/>
        <pt x="179" y="417" on="1"/>
        <pt x="71" y="417" on="1"/>
        <pt x="97" y="552" on="1"/>
        <pt x="508" y="552" on="1"/>
        <pt x="482" y="417" on="1"/>
        <pt x="377" y="417" on="1"/>
        <pt x="322" y="135" on="1"/>
        <pt x="436" y="135" on="1"/>
        <pt x="402" y="0" on="1"/>
        <pt x="305" y="0" on="1"/>
        <pt x="242" y="-19" on="0"/>
        <pt x="197" y="-60" on="0"/>
        <pt x="197" y="-76" on="1"/>
        <pt x="197" y="-88" on="0"/>
        <pt x="219" y="-100" on="0"/>
        <pt x="243" y="-100" on="1"/>
        <pt x="254" y="-100" on="0"/>
        <pt x="283" y="-97" on="0"/>
        <pt x="301" y="-94" on="1"/>
      </contour>
    </TTGlyph>
    <TTGlyph name="J" xMin="-11" yMin="-8" xMax="498" yMax="620">
      <contour>
        <pt x="109" y="-8" on="1"/>
        <pt x="83" y="-8" on="0"/>
        <pt x="23" y="-6" on="0"/>
        <pt x="-11" y="-5" on="1"/>
        <pt x="20" y="160" on="1"/>
        <pt x="45" y="159" on="0"/>
        <pt x="86" y="158" on="0"/>
        <pt x="102" y="158" on="1"/>
        <pt x="147" y="158" on="0"/>
        <pt x="180" y="166" on="0"/>
        <pt x="188" y="174" on="1"/>
        <pt x="192" y="178" on="0"/>
        <pt x="200" y="191" on="0"/>
        <pt x="209" y="219" on="0"/>
        <pt x="220" y="268" on="0"/>
        <pt x="227" y="308" on="1"/>
        <pt x="259" y="471" on="1"/>
        <pt x="114" y="471" on="1"/>
        <pt x="145" y="620" on="1"/>
        <pt x="498" y="620" on="1"/>
        <pt x="436" y="305" on="1"/>
        <pt x="422" y="232" on="0"/>
        <pt x="402" y="142" on="0"/>
        <pt x="384" y="89" on="0"/>
        <pt x="366" y="60" on="0"/>
        <pt x="354" y="48" on="1"/>
        <pt x="326" y="20" on="0"/>
        <pt x="219" y="-8" on="0"/>
      </contour>
    </TTGlyph>
    <TTGlyph name="J.sc" xMin="-11" yMin="-7" xMax="464" yMax="552">
      <contour>
        <pt x="109" y="-7" on="1"/>
        <pt x="83" y="-7" on="0"/>
        <pt x="23" y="-5" on="0"/>
        <pt x="-11" y="-4" on="1"/>
        <pt x="17" y="145" on="1"/>
        <pt x="42" y="144" on="0"/>
        <pt x="81" y="143" on="0"/>
        <pt x="96" y="143" on="1"/>
        <pt x="136" y="143" on="0"/>
        <pt x="166" y="150" on="0"/>
        <pt x="173" y="157" on="1"/>
        <pt x="177" y="161" on="0"/>
        <pt x="184" y="173" on="0"/>
        <pt x="192" y="198" on="0"/>
        <pt x="202" y="240" on="0"/>
        <pt x="209" y="275" on="1"/>
        <pt x="237" y="417" on="1"/>
        <pt x="101" y="417" on="1"/>
        <pt x="129" y="552" on="1"/>
        <pt x="464" y="552" on="1"/>
        <pt x="410" y="272" on="1"/>
        <pt x="398" y="208" on="0"/>
        <pt x="379" y="129" on="0"/>
        <pt x="363" y="81" on="0"/>
        <pt x="346" y="55" on="0"/>
        <pt x="335" y="44" on="1"/>
        <pt x="310" y="19" on="0"/>
        <pt x="212" y="-7" on="0"/>
      </contour>
    </TTGlyph>
    <TTGlyph name="K" xMin="6" yMin="-6" xMax="679" yMax="620">
      <contour>
        <pt x="364" y="-6" on="1"/>
        <pt x="263" y="267" on="1"/>
        <pt x="211" y="0" on="1"/>
        <pt x="6" y="0" on="1"/>
        <pt x="126" y="620" on="1"/>
        <pt x="331" y="620" on="1"/>
        <pt x="280" y="358" on="1"/>
        <pt x="463" y="620" on="1"/>
        <pt x="679" y="620" on="1"/>
        <pt x="456" y="312" on="1"/>
        <pt x="580" y="6" on="1"/>
      </contour>
    </TTGlyph>
    <TTGlyph name="K.sc" xMin="4" yMin="-5" xMax="637" yMax="552">
      <contour>
        <pt x="342" y="-5" on="1"/>
        <pt x="246" y="237" on="1"/>
        <pt x="201" y="0" on="1"/>
        <pt x="4" y="0" on="1"/>
        <pt x="111" y="552" on="1"/>
        <pt x="307" y="552" on="1"/>
        <pt x="262" y="320" on="1"/>
        <pt x="428" y="552" on="1"/>
        <pt x="637" y="552" on="1"/>
        <pt x="432" y="276" on="1"/>
        <pt x="550" y="5" on="1"/>
      </contour>
    </TTGlyph>
    <TTGlyph name="Kcommaaccent" xMin="6" yMin="-313" xMax="679" yMax="620">
      <contour>
        <pt x="364" y="-6" on="1"/>
        <pt x="263" y="267" on="1"/>
        <pt x="211" y="0" on="1"/>
        <pt x="6" y="0" on="1"/>
        <pt x="126" y="620" on="1"/>
        <pt x="331" y="620" on="1"/>
        <pt x="280" y="358" on="1"/>
        <pt x="463" y="620" on="1"/>
        <pt x="679" y="620" on="1"/>
        <pt x="456" y="312" on="1"/>
        <pt x="580" y="6" on="1"/>
      </contour>
      <contour>
        <pt x="121" y="-278" on="1"/>
        <pt x="140" y="-224" on="0"/>
        <pt x="162" y="-116" on="0"/>
        <pt x="162" y="-56" on="1"/>
        <pt x="372" y="-55" on="1"/>
        <pt x="358" y="-133" on="0"/>
        <pt x="277" y="-262" on="0"/>
        <pt x="198" y="-313" on="1"/>
      </contour>
    </TTGlyph>
    <TTGlyph name="Kcommaaccent.sc" xMin="4" yMin="-312" xMax="637" yMax="552">
      <contour>
        <pt x="342" y="-5" on="1"/>
        <pt x="246" y="237" on="1"/>
        <pt x="201" y="0" on="1"/>
        <pt x="4" y="0" on="1"/>
        <pt x="111" y="552" on="1"/>
        <pt x="307" y="552" on="1"/>
        <pt x="262" y="320" on="1"/>
        <pt x="428" y="552" on="1"/>
        <pt x="637" y="552" on="1"/>
        <pt x="432" y="276" on="1"/>
        <pt x="550" y="5" on="1"/>
      </contour>
      <contour>
        <pt x="107" y="-277" on="1"/>
        <pt x="126" y="-223" on="0"/>
        <pt x="148" y="-115" on="0"/>
        <pt x="148" y="-55" on="1"/>
        <pt x="358" y="-54" on="1"/>
        <pt x="344" y="-132" on="0"/>
        <pt x="263" y="-261" on="0"/>
        <pt x="184" y="-312" on="1"/>
      </contour>
    </TTGlyph>
    <TTGlyph name="L" xMin="6" yMin="0" xMax="459" yMax="620">
      <contour>
        <pt x="427" y="0" on="1"/>
        <pt x="6" y="0" on="1"/>
        <pt x="126" y="620" on="1"/>
        <pt x="338" y="620" on="1"/>
        <pt x="250" y="165" on="1"/>
        <pt x="459" y="165" on="1"/>
      </contour>
    </TTGlyph>
    <TTGlyph name="L.sc" xMin="5" yMin="0" xMax="433" yMax="552">
      <contour>
        <pt x="404" y="0" on="1"/>
        <pt x="5" y="0" on="1"/>
        <pt x="111" y="552" on="1"/>
        <pt x="315" y="552" on="1"/>
        <pt x="237" y="150" on="1"/>
        <pt x="433" y="150" on="1"/>
      </contour>
    </TTGlyph>
    <TTGlyph name="Lacute" xMin="6" yMin="0" xMax="550" yMax="911">
      <contour>
        <pt x="200" y="736" on="1"/>
        <pt x="264" y="772" on="0"/>
        <pt x="399" y="864" on="0"/>
        <pt x="456" y="911" on="1"/>
        <pt x="550" y="765" on="1"/>
        <pt x="478" y="722" on="0"/>
        <pt x="303" y="669" on="0"/>
        <pt x="225" y="657" on="1"/>
      </contour>
      <contour>
        <pt x="427" y="0" on="1"/>
        <pt x="6" y="0" on="1"/>
        <pt x="126" y="620" on="1"/>
        <pt x="338" y="620" on="1"/>
        <pt x="250" y="165" on="1"/>
        <pt x="459" y="165" on="1"/>
      </contour>
    </TTGlyph>
    <TTGlyph name="Lacute.sc" xMin="5" yMin="0" xMax="533" yMax="843">
      <contour>
        <pt x="183" y="668" on="1"/>
        <pt x="247" y="704" on="0"/>
        <pt x="382" y="796" on="0"/>
        <pt x="439" y="843" on="1"/>
        <pt x="533" y="697" on="1"/>
        <pt x="461" y="654" on="0"/>
        <pt x="286" y="601" on="0"/>
        <pt x="208" y="589" on="1"/>
      </contour>
      <contour>
        <pt x="404" y="0" on="1"/>
        <pt x="5" y="0" on="1"/>
        <pt x="111" y="552" on="1"/>
        <pt x="315" y="552" on="1"/>
        <pt x="237" y="150" on="1"/>
        <pt x="433" y="150" on="1"/>
      </contour>
    </TTGlyph>
    <TTGlyph name="Lcaron" xMin="6" yMin="0" xMax="587" yMax="657">
      <contour>
        <pt x="414" y="655" on="1"/>
        <pt x="587" y="657" on="1"/>
        <pt x="569" y="586" on="0"/>
        <pt x="504" y="464" on="0"/>
        <pt x="459" y="407" on="1"/>
        <pt x="377" y="425" on="1"/>
        <pt x="392" y="482" on="0"/>
        <pt x="410" y="599" on="0"/>
      </contour>
      <contour>
        <pt x="427" y="0" on="1"/>
        <pt x="6" y="0" on="1"/>
        <pt x="126" y="620" on="1"/>
        <pt x="338" y="620" on="1"/>
        <pt x="250" y="165" on="1"/>
        <pt x="459" y="165" on="1"/>
      </contour>
    </TTGlyph>
    <TTGlyph name="Lcaron.sc" xMin="5" yMin="0" xMax="555" yMax="607">
      <contour>
        <pt x="382" y="605" on="1"/>
        <pt x="555" y="607" on="1"/>
        <pt x="537" y="536" on="0"/>
        <pt x="472" y="414" on="0"/>
        <pt x="427" y="357" on="1"/>
        <pt x="345" y="375" on="1"/>
        <pt x="360" y="432" on="0"/>
        <pt x="378" y="549" on="0"/>
      </contour>
      <contour>
        <pt x="404" y="0" on="1"/>
        <pt x="5" y="0" on="1"/>
        <pt x="111" y="552" on="1"/>
        <pt x="315" y="552" on="1"/>
        <pt x="237" y="150" on="1"/>
        <pt x="433" y="150" on="1"/>
      </contour>
    </TTGlyph>
    <TTGlyph name="Lcommaaccent" xMin="6" yMin="-307" xMax="459" yMax="620">
      <contour>
        <pt x="427" y="0" on="1"/>
        <pt x="6" y="0" on="1"/>
        <pt x="126" y="620" on="1"/>
        <pt x="338" y="620" on="1"/>
        <pt x="250" y="165" on="1"/>
        <pt x="459" y="165" on="1"/>
      </contour>
      <contour>
        <pt x="48" y="-272" on="1"/>
        <pt x="67" y="-218" on="0"/>
        <pt x="89" y="-110" on="0"/>
        <pt x="89" y="-50" on="1"/>
        <pt x="299" y="-49" on="1"/>
        <pt x="285" y="-127" on="0"/>
        <pt x="204" y="-256" on="0"/>
        <pt x="125" y="-307" on="1"/>
      </contour>
    </TTGlyph>
    <TTGlyph name="Lcommaaccent.sc" xMin="5" yMin="-307" xMax="433" yMax="552">
      <contour>
        <pt x="404" y="0" on="1"/>
        <pt x="5" y="0" on="1"/>
        <pt x="111" y="552" on="1"/>
        <pt x="315" y="552" on="1"/>
        <pt x="237" y="150" on="1"/>
        <pt x="433" y="150" on="1"/>
      </contour>
      <contour>
        <pt x="44" y="-272" on="1"/>
        <pt x="63" y="-218" on="0"/>
        <pt x="85" y="-110" on="0"/>
        <pt x="85" y="-50" on="1"/>
        <pt x="295" y="-49" on="1"/>
        <pt x="281" y="-127" on="0"/>
        <pt x="200" y="-256" on="0"/>
        <pt x="121" y="-307" on="1"/>
      </contour>
    </TTGlyph>
    <TTGlyph name="Ldot" xMin="6" yMin="0" xMax="525" yMax="620">
      <contour>
        <pt x="427" y="0" on="1"/>
        <pt x="6" y="0" on="1"/>
        <pt x="126" y="620" on="1"/>
        <pt x="338" y="620" on="1"/>
        <pt x="250" y="165" on="1"/>
        <pt x="459" y="165" on="1"/>
      </contour>
      <contour>
        <pt x="491" y="261" on="1"/>
        <pt x="334" y="261" on="1"/>
        <pt x="368" y="437" on="1"/>
        <pt x="525" y="437" on="1"/>
      </contour>
    </TTGlyph>
    <TTGlyph name="Ldot.sc" xMin="5" yMin="0" xMax="496" yMax="552">
      <contour>
        <pt x="404" y="0" on="1"/>
        <pt x="5" y="0" on="1"/>
        <pt x="111" y="552" on="1"/>
        <pt x="315" y="552" on="1"/>
        <pt x="237" y="150" on="1"/>
        <pt x="433" y="150" on="1"/>
      </contour>
      <contour>
        <pt x="463" y="254" on="1"/>
        <pt x="317" y="254" on="1"/>
        <pt x="351" y="422" on="1"/>
        <pt x="496" y="422" on="1"/>
      </contour>
    </TTGlyph>
    <TTGlyph name="Lslash" xMin="-2" yMin="0" xMax="459" yMax="620">
      <contour>
        <pt x="427" y="0" on="1"/>
        <pt x="6" y="0" on="1"/>
        <pt x="49" y="224" on="1"/>
        <pt x="-1" y="202" on="1"/>
        <pt x="-2" y="318" on="1"/>
        <pt x="74" y="351" on="1"/>
        <pt x="126" y="620" on="1"/>
        <pt x="338" y="620" on="1"/>
        <pt x="305" y="450" on="1"/>
        <pt x="396" y="489" on="1"/>
        <pt x="397" y="373" on="1"/>
        <pt x="281" y="323" on="1"/>
        <pt x="250" y="165" on="1"/>
        <pt x="459" y="165" on="1"/>
      </contour>
    </TTGlyph>
    <TTGlyph name="Lslash.sc" xMin="-8" yMin="0" xMax="433" yMax="552">
      <contour>
        <pt x="404" y="0" on="1"/>
        <pt x="5" y="0" on="1"/>
        <pt x="43" y="196" on="1"/>
        <pt x="-7" y="175" on="1"/>
        <pt x="-8" y="284" on="1"/>
        <pt x="66" y="316" on="1"/>
        <pt x="111" y="552" on="1"/>
        <pt x="315" y="552" on="1"/>
        <pt x="288" y="411" on="1"/>
        <pt x="368" y="446" on="1"/>
        <pt x="369" y="337" on="1"/>
        <pt x="265" y="292" on="1"/>
        <pt x="237" y="150" on="1"/>
        <pt x="433" y="150" on="1"/>
      </contour>
    </TTGlyph>
    <TTGlyph name="M" xMin="6" yMin="0" xMax="745" yMax="624">
      <contour>
        <pt x="353" y="624" on="1"/>
        <pt x="387" y="351" on="1"/>
        <pt x="390" y="351" on="1"/>
        <pt x="526" y="620" on="1"/>
        <pt x="745" y="620" on="1"/>
        <pt x="627" y="0" on="1"/>
        <pt x="437" y="0" on="1"/>
        <pt x="510" y="321" on="1"/>
        <pt x="503" y="321" on="1"/>
        <pt x="363" y="48" on="1"/>
        <pt x="282" y="47" on="1"/>
        <pt x="248" y="322" on="1"/>
        <pt x="241" y="322" on="1"/>
        <pt x="191" y="0" on="1"/>
        <pt x="6" y="0" on="1"/>
        <pt x="125" y="616" on="1"/>
      </contour>
    </TTGlyph>
    <TTGlyph name="M.sc" xMin="5" yMin="0" xMax="697" yMax="556">
      <contour>
        <pt x="328" y="556" on="1"/>
        <pt x="362" y="319" on="1"/>
        <pt x="365" y="319" on="1"/>
        <pt x="488" y="552" on="1"/>
        <pt x="697" y="552" on="1"/>
        <pt x="591" y="0" on="1"/>
        <pt x="410" y="0" on="1"/>
        <pt x="475" y="279" on="1"/>
        <pt x="468" y="279" on="1"/>
        <pt x="342" y="42" on="1"/>
        <pt x="266" y="42" on="1"/>
        <pt x="231" y="279" on="1"/>
        <pt x="226" y="279" on="1"/>
        <pt x="183" y="0" on="1"/>
        <pt x="5" y="0" on="1"/>
        <pt x="110" y="548" on="1"/>
      </contour>
    </TTGlyph>
    <TTGlyph name="N" xMin="6" yMin="0" xMax="668" yMax="621">
      <contour>
        <pt x="353" y="0" on="1"/>
        <pt x="256" y="293" on="1"/>
        <pt x="251" y="293" on="1"/>
        <pt x="196" y="0" on="1"/>
        <pt x="6" y="0" on="1"/>
        <pt x="126" y="619" on="1"/>
        <pt x="316" y="621" on="1"/>
        <pt x="416" y="322" on="1"/>
        <pt x="421" y="322" on="1"/>
        <pt x="478" y="620" on="1"/>
        <pt x="668" y="620" on="1"/>
        <pt x="548" y="0" on="1"/>
      </contour>
    </TTGlyph>
    <TTGlyph name="N.sc" xMin="5" yMin="0" xMax="625" yMax="552">
      <contour>
        <pt x="333" y="0" on="1"/>
        <pt x="239" y="255" on="1"/>
        <pt x="234" y="255" on="1"/>
        <pt x="187" y="0" on="1"/>
        <pt x="5" y="0" on="1"/>
        <pt x="111" y="551" on="1"/>
        <pt x="291" y="552" on="1"/>
        <pt x="387" y="291" on="1"/>
        <pt x="393" y="291" on="1"/>
        <pt x="442" y="552" on="1"/>
        <pt x="625" y="552" on="1"/>
        <pt x="518" y="0" on="1"/>
      </contour>
    </TTGlyph>
    <TTGlyph name="Nacute" xMin="6" yMin="0" xMax="668" yMax="912">
      <contour>
        <pt x="275" y="737" on="1"/>
        <pt x="339" y="773" on="0"/>
        <pt x="474" y="865" on="0"/>
        <pt x="531" y="912" on="1"/>
        <pt x="625" y="766" on="1"/>
        <pt x="553" y="723" on="0"/>
        <pt x="378" y="670" on="0"/>
        <pt x="300" y="658" on="1"/>
      </contour>
      <contour>
        <pt x="353" y="0" on="1"/>
        <pt x="256" y="293" on="1"/>
        <pt x="251" y="293" on="1"/>
        <pt x="196" y="0" on="1"/>
        <pt x="6" y="0" on="1"/>
        <pt x="126" y="619" on="1"/>
        <pt x="316" y="621" on="1"/>
        <pt x="416" y="322" on="1"/>
        <pt x="421" y="322" on="1"/>
        <pt x="478" y="620" on="1"/>
        <pt x="668" y="620" on="1"/>
        <pt x="548" y="0" on="1"/>
      </contour>
    </TTGlyph>
    <TTGlyph name="Nacute.sc" xMin="5" yMin="0" xMax="625" yMax="844">
      <contour>
        <pt x="245" y="669" on="1"/>
        <pt x="309" y="705" on="0"/>
        <pt x="444" y="797" on="0"/>
        <pt x="501" y="844" on="1"/>
        <pt x="595" y="698" on="1"/>
        <pt x="523" y="655" on="0"/>
        <pt x="348" y="602" on="0"/>
        <pt x="270" y="590" on="1"/>
      </contour>
      <contour>
        <pt x="333" y="0" on="1"/>
        <pt x="239" y="255" on="1"/>
        <pt x="234" y="255" on="1"/>
        <pt x="187" y="0" on="1"/>
        <pt x="5" y="0" on="1"/>
        <pt x="111" y="551" on="1"/>
        <pt x="291" y="552" on="1"/>
        <pt x="387" y="291" on="1"/>
        <pt x="393" y="291" on="1"/>
        <pt x="442" y="552" on="1"/>
        <pt x="625" y="552" on="1"/>
        <pt x="518" y="0" on="1"/>
      </contour>
    </TTGlyph>
    <TTGlyph name="Ncaron" xMin="6" yMin="0" xMax="668" yMax="896">
      <contour>
        <pt x="427" y="656" on="1"/>
        <pt x="389" y="656" on="1"/>
        <pt x="231" y="807" on="1"/>
        <pt x="342" y="896" on="1"/>
        <pt x="435" y="804" on="1"/>
        <pt x="572" y="892" on="1"/>
        <pt x="642" y="796" on="1"/>
      </contour>
      <contour>
        <pt x="353" y="0" on="1"/>
        <pt x="256" y="293" on="1"/>
        <pt x="251" y="293" on="1"/>
        <pt x="196" y="0" on="1"/>
        <pt x="6" y="0" on="1"/>
        <pt x="126" y="619" on="1"/>
        <pt x="316" y="621" on="1"/>
        <pt x="416" y="322" on="1"/>
        <pt x="421" y="322" on="1"/>
        <pt x="478" y="620" on="1"/>
        <pt x="668" y="620" on="1"/>
        <pt x="548" y="0" on="1"/>
      </contour>
    </TTGlyph>
    <TTGlyph name="Ncaron.sc" xMin="5" yMin="0" xMax="625" yMax="828">
      <contour>
        <pt x="396" y="588" on="1"/>
        <pt x="358" y="588" on="1"/>
        <pt x="200" y="739" on="1"/>
        <pt x="311" y="828" on="1"/>
        <pt x="404" y="736" on="1"/>
        <pt x="541" y="824" on="1"/>
        <pt x="611" y="728" on="1"/>
      </contour>
      <contour>
        <pt x="333" y="0" on="1"/>
        <pt x="239" y="255" on="1"/>
        <pt x="234" y="255" on="1"/>
        <pt x="187" y="0" on="1"/>
        <pt x="5" y="0" on="1"/>
        <pt x="111" y="551" on="1"/>
        <pt x="291" y="552" on="1"/>
        <pt x="387" y="291" on="1"/>
        <pt x="393" y="291" on="1"/>
        <pt x="442" y="552" on="1"/>
        <pt x="625" y="552" on="1"/>
        <pt x="518" y="0" on="1"/>
      </contour>
    </TTGlyph>
    <TTGlyph name="Ncommaaccent" xMin="6" yMin="-307" xMax="668" yMax="621">
      <contour>
        <pt x="353" y="0" on="1"/>
        <pt x="256" y="293" on="1"/>
        <pt x="251" y="293" on="1"/>
        <pt x="196" y="0" on="1"/>
        <pt x="6" y="0" on="1"/>
        <pt x="126" y="619" on="1"/>
        <pt x="316" y="621" on="1"/>
        <pt x="416" y="322" on="1"/>
        <pt x="421" y="322" on="1"/>
        <pt x="478" y="620" on="1"/>
        <pt x="668" y="620" on="1"/>
        <pt x="548" y="0" on="1"/>
      </contour>
      <contour>
        <pt x="124" y="-272" on="1"/>
        <pt x="143" y="-218" on="0"/>
        <pt x="165" y="-110" on="0"/>
        <pt x="165" y="-50" on="1"/>
        <pt x="375" y="-49" on="1"/>
        <pt x="361" y="-127" on="0"/>
        <pt x="280" y="-256" on="0"/>
        <pt x="201" y="-307" on="1"/>
      </contour>
    </TTGlyph>
    <TTGlyph name="Ncommaaccent.sc" xMin="5" yMin="-307" xMax="625" yMax="552">
      <contour>
        <pt x="333" y="0" on="1"/>
        <pt x="239" y="255" on="1"/>
        <pt x="234" y="255" on="1"/>
        <pt x="187" y="0" on="1"/>
        <pt x="5" y="0" on="1"/>
        <pt x="111" y="551" on="1"/>
        <pt x="291" y="552" on="1"/>
        <pt x="387" y="291" on="1"/>
        <pt x="393" y="291" on="1"/>
        <pt x="442" y="552" on="1"/>
        <pt x="625" y="552" on="1"/>
        <pt x="518" y="0" on="1"/>
      </contour>
      <contour>
        <pt x="106" y="-272" on="1"/>
        <pt x="125" y="-218" on="0"/>
        <pt x="147" y="-110" on="0"/>
        <pt x="147" y="-50" on="1"/>
        <pt x="357" y="-49" on="1"/>
        <pt x="343" y="-127" on="0"/>
        <pt x="262" y="-256" on="0"/>
        <pt x="183" y="-307" on="1"/>
      </contour>
    </TTGlyph>
    <TTGlyph name="Ntilde" xMin="6" yMin="0" xMax="668" yMax="880">
      <contour>
        <pt x="515" y="810" on="1"/>
        <pt x="526" y="810" on="0"/>
        <pt x="557" y="843" on="0"/>
        <pt x="579" y="877" on="1"/>
        <pt x="666" y="826" on="1"/>
        <pt x="626" y="754" on="0"/>
        <pt x="541" y="668" on="0"/>
        <pt x="494" y="668" on="1"/>
        <pt x="469" y="668" on="0"/>
        <pt x="425" y="690" on="0"/>
        <pt x="388" y="715" on="0"/>
        <pt x="358" y="737" on="0"/>
        <pt x="347" y="737" on="1"/>
        <pt x="336" y="737" on="0"/>
        <pt x="306" y="704" on="0"/>
        <pt x="283" y="670" on="1"/>
        <pt x="197" y="721" on="1"/>
        <pt x="235" y="792" on="0"/>
        <pt x="319" y="880" on="0"/>
        <pt x="366" y="880" on="1"/>
        <pt x="391" y="880" on="0"/>
        <pt x="435" y="858" on="0"/>
        <pt x="473" y="832" on="0"/>
        <pt x="504" y="810" on="0"/>
      </contour>
      <contour>
        <pt x="353" y="0" on="1"/>
        <pt x="256" y="293" on="1"/>
        <pt x="251" y="293" on="1"/>
        <pt x="196" y="0" on="1"/>
        <pt x="6" y="0" on="1"/>
        <pt x="126" y="619" on="1"/>
        <pt x="316" y="621" on="1"/>
        <pt x="416" y="322" on="1"/>
        <pt x="421" y="322" on="1"/>
        <pt x="478" y="620" on="1"/>
        <pt x="668" y="620" on="1"/>
        <pt x="548" y="0" on="1"/>
      </contour>
    </TTGlyph>
    <TTGlyph name="Ntilde.sc" xMin="5" yMin="0" xMax="636" yMax="812">
      <contour>
        <pt x="485" y="742" on="1"/>
        <pt x="496" y="742" on="0"/>
        <pt x="527" y="775" on="0"/>
        <pt x="549" y="809" on="1"/>
        <pt x="636" y="758" on="1"/>
        <pt x="596" y="686" on="0"/>
        <pt x="511" y="600" on="0"/>
        <pt x="464" y="600" on="1"/>
        <pt x="439" y="600" on="0"/>
        <pt x="395" y="622" on="0"/>
        <pt x="358" y="647" on="0"/>
        <pt x="328" y="669" on="0"/>
        <pt x="317" y="669" on="1"/>
        <pt x="306" y="669" on="0"/>
        <pt x="276" y="636" on="0"/>
        <pt x="253" y="602" on="1"/>
        <pt x="167" y="653" on="1"/>
        <pt x="205" y="724" on="0"/>
        <pt x="289" y="812" on="0"/>
        <pt x="336" y="812" on="1"/>
        <pt x="361" y="812" on="0"/>
        <pt x="405" y="790" on="0"/>
        <pt x="443" y="764" on="0"/>
        <pt x="474" y="742" on="0"/>
      </contour>
      <contour>
        <pt x="333" y="0" on="1"/>
        <pt x="239" y="255" on="1"/>
        <pt x="234" y="255" on="1"/>
        <pt x="187" y="0" on="1"/>
        <pt x="5" y="0" on="1"/>
        <pt x="111" y="551" on="1"/>
        <pt x="291" y="552" on="1"/>
        <pt x="387" y="291" on="1"/>
        <pt x="393" y="291" on="1"/>
        <pt x="442" y="552" on="1"/>
        <pt x="625" y="552" on="1"/>
        <pt x="518" y="0" on="1"/>
      </contour>
    </TTGlyph>
    <TTGlyph name="O" xMin="34" yMin="-14" xMax="629" yMax="634">
      <contour>
        <pt x="384" y="634" on="1"/>
        <pt x="492" y="634" on="0"/>
        <pt x="629" y="496" on="0"/>
        <pt x="629" y="373" on="1"/>
        <pt x="629" y="294" on="0"/>
        <pt x="576" y="153" on="0"/>
        <pt x="482" y="48" on="0"/>
        <pt x="354" y="-14" on="0"/>
        <pt x="279" y="-14" on="1"/>
        <pt x="171" y="-14" on="0"/>
        <pt x="34" y="124" on="0"/>
        <pt x="34" y="247" on="1"/>
        <pt x="34" y="326" on="0"/>
        <pt x="87" y="467" on="0"/>
        <pt x="181" y="572" on="0"/>
        <pt x="309" y="634" on="0"/>
      </contour>
      <contour>
        <pt x="306" y="159" on="1"/>
        <pt x="330" y="159" on="0"/>
        <pt x="371" y="198" on="0"/>
        <pt x="399" y="259" on="0"/>
        <pt x="415" y="336" on="0"/>
        <pt x="415" y="374" on="1"/>
        <pt x="415" y="420" on="0"/>
        <pt x="381" y="462" on="0"/>
        <pt x="357" y="462" on="1"/>
        <pt x="332" y="462" on="0"/>
        <pt x="291" y="423" on="0"/>
        <pt x="263" y="362" on="0"/>
        <pt x="247" y="285" on="0"/>
        <pt x="247" y="248" on="1"/>
        <pt x="247" y="202" on="0"/>
        <pt x="281" y="159" on="0"/>
      </contour>
    </TTGlyph>
    <TTGlyph name="O.sc" xMin="28" yMin="-13" xMax="589" yMax="565">
      <contour>
        <pt x="354" y="565" on="1"/>
        <pt x="405" y="565" on="0"/>
        <pt x="492" y="532" on="0"/>
        <pt x="554" y="472" on="0"/>
        <pt x="589" y="383" on="0"/>
        <pt x="589" y="328" on="1"/>
        <pt x="589" y="259" on="0"/>
        <pt x="540" y="134" on="0"/>
        <pt x="453" y="41" on="0"/>
        <pt x="333" y="-13" on="0"/>
        <pt x="263" y="-13" on="1"/>
        <pt x="159" y="-13" on="0"/>
        <pt x="28" y="114" on="0"/>
        <pt x="28" y="225" on="1"/>
        <pt x="28" y="294" on="0"/>
        <pt x="77" y="418" on="0"/>
        <pt x="164" y="511" on="0"/>
        <pt x="284" y="565" on="0"/>
      </contour>
      <contour>
        <pt x="287" y="144" on="1"/>
        <pt x="309" y="144" on="0"/>
        <pt x="344" y="178" on="0"/>
        <pt x="369" y="231" on="0"/>
        <pt x="383" y="297" on="0"/>
        <pt x="383" y="328" on="1"/>
        <pt x="383" y="371" on="0"/>
        <pt x="353" y="408" on="0"/>
        <pt x="331" y="408" on="1"/>
        <pt x="309" y="408" on="0"/>
        <pt x="273" y="374" on="0"/>
        <pt x="248" y="321" on="0"/>
        <pt x="234" y="256" on="0"/>
        <pt x="234" y="224" on="1"/>
        <pt x="234" y="182" on="0"/>
        <pt x="265" y="144" on="0"/>
      </contour>
    </TTGlyph>
    <TTGlyph name="OE" xMin="33" yMin="0" xMax="841" yMax="620">
      <contour>
        <pt x="235" y="269" on="1"/>
        <pt x="235" y="218" on="0"/>
        <pt x="285" y="163" on="0"/>
        <pt x="339" y="159" on="1"/>
        <pt x="396" y="462" on="1"/>
        <pt x="320" y="458" on="0"/>
        <pt x="235" y="347" on="0"/>
      </contour>
      <contour>
        <pt x="760" y="158" on="1"/>
        <pt x="718" y="0" on="1"/>
        <pt x="383" y="0" on="1"/>
        <pt x="303" y="0" on="0"/>
        <pt x="173" y="27" on="0"/>
        <pt x="82" y="86" on="0"/>
        <pt x="33" y="182" on="0"/>
        <pt x="33" y="251" on="1"/>
        <pt x="33" y="326" on="0"/>
        <pt x="87" y="460" on="0"/>
        <pt x="198" y="561" on="0"/>
        <pt x="374" y="620" on="0"/>
        <pt x="495" y="620" on="1"/>
        <pt x="841" y="620" on="1"/>
        <pt x="811" y="462" on="1"/>
        <pt x="593" y="462" on="1"/>
        <pt x="576" y="372" on="1"/>
        <pt x="747" y="372" on="1"/>
        <pt x="723" y="249" on="1"/>
        <pt x="552" y="249" on="1"/>
        <pt x="535" y="158" on="1"/>
      </contour>
    </TTGlyph>
    <TTGlyph name="OE.sc" xMin="26" yMin="0" xMax="785" yMax="552">
      <contour>
        <pt x="714" y="144" on="1"/>
        <pt x="676" y="0" on="1"/>
        <pt x="347" y="0" on="1"/>
        <pt x="196" y="0" on="0"/>
        <pt x="26" y="115" on="0"/>
        <pt x="26" y="234" on="1"/>
        <pt x="26" y="297" on="0"/>
        <pt x="71" y="412" on="0"/>
        <pt x="171" y="500" on="0"/>
        <pt x="332" y="552" on="0"/>
        <pt x="446" y="552" on="1"/>
        <pt x="785" y="552" on="1"/>
        <pt x="758" y="408" on="1"/>
        <pt x="553" y="408" on="1"/>
        <pt x="538" y="332" on="1"/>
        <pt x="699" y="332" on="1"/>
        <pt x="677" y="221" on="1"/>
        <pt x="516" y="221" on="1"/>
        <pt x="501" y="144" on="1"/>
      </contour>
      <contour>
        <pt x="220" y="241" on="1"/>
        <pt x="220" y="190" on="0"/>
        <pt x="269" y="147" on="0"/>
        <pt x="315" y="144" on="1"/>
        <pt x="365" y="408" on="1"/>
        <pt x="288" y="401" on="0"/>
        <pt x="220" y="305" on="0"/>
      </contour>
    </TTGlyph>
    <TTGlyph name="Oacute" xMin="34" yMin="-14" xMax="629" yMax="920">
      <contour>
        <pt x="267" y="745" on="1"/>
        <pt x="331" y="781" on="0"/>
        <pt x="466" y="873" on="0"/>
        <pt x="523" y="920" on="1"/>
        <pt x="617" y="774" on="1"/>
        <pt x="545" y="731" on="0"/>
        <pt x="370" y="678" on="0"/>
        <pt x="292" y="666" on="1"/>
      </contour>
      <contour>
        <pt x="384" y="634" on="1"/>
        <pt x="492" y="634" on="0"/>
        <pt x="629" y="496" on="0"/>
        <pt x="629" y="373" on="1"/>
        <pt x="629" y="294" on="0"/>
        <pt x="576" y="153" on="0"/>
        <pt x="482" y="48" on="0"/>
        <pt x="354" y="-14" on="0"/>
        <pt x="279" y="-14" on="1"/>
        <pt x="171" y="-14" on="0"/>
        <pt x="34" y="124" on="0"/>
        <pt x="34" y="247" on="1"/>
        <pt x="34" y="326" on="0"/>
        <pt x="87" y="467" on="0"/>
        <pt x="181" y="572" on="0"/>
        <pt x="309" y="634" on="0"/>
      </contour>
      <contour>
        <pt x="306" y="159" on="1"/>
        <pt x="330" y="159" on="0"/>
        <pt x="371" y="198" on="0"/>
        <pt x="399" y="259" on="0"/>
        <pt x="415" y="336" on="0"/>
        <pt x="415" y="374" on="1"/>
        <pt x="415" y="420" on="0"/>
        <pt x="381" y="462" on="0"/>
        <pt x="357" y="462" on="1"/>
        <pt x="332" y="462" on="0"/>
        <pt x="291" y="423" on="0"/>
        <pt x="263" y="362" on="0"/>
        <pt x="247" y="285" on="0"/>
        <pt x="247" y="248" on="1"/>
        <pt x="247" y="202" on="0"/>
        <pt x="281" y="159" on="0"/>
      </contour>
    </TTGlyph>
    <TTGlyph name="Oacute.sc" xMin="28" yMin="-13" xMax="589" yMax="851">
      <contour>
        <pt x="238" y="676" on="1"/>
        <pt x="302" y="712" on="0"/>
        <pt x="437" y="804" on="0"/>
        <pt x="494" y="851" on="1"/>
        <pt x="588" y="705" on="1"/>
        <pt x="516" y="662" on="0"/>
        <pt x="341" y="609" on="0"/>
        <pt x="263" y="597" on="1"/>
      </contour>
      <contour>
        <pt x="354" y="565" on="1"/>
        <pt x="405" y="565" on="0"/>
        <pt x="492" y="532" on="0"/>
        <pt x="554" y="472" on="0"/>
        <pt x="589" y="383" on="0"/>
        <pt x="589" y="328" on="1"/>
        <pt x="589" y="259" on="0"/>
        <pt x="540" y="134" on="0"/>
        <pt x="453" y="41" on="0"/>
        <pt x="333" y="-13" on="0"/>
        <pt x="263" y="-13" on="1"/>
        <pt x="159" y="-13" on="0"/>
        <pt x="28" y="114" on="0"/>
        <pt x="28" y="225" on="1"/>
        <pt x="28" y="294" on="0"/>
        <pt x="77" y="418" on="0"/>
        <pt x="164" y="511" on="0"/>
        <pt x="284" y="565" on="0"/>
      </contour>
      <contour>
        <pt x="287" y="144" on="1"/>
        <pt x="309" y="144" on="0"/>
        <pt x="344" y="178" on="0"/>
        <pt x="369" y="231" on="0"/>
        <pt x="383" y="297" on="0"/>
        <pt x="383" y="328" on="1"/>
        <pt x="383" y="371" on="0"/>
        <pt x="353" y="408" on="0"/>
        <pt x="331" y="408" on="1"/>
        <pt x="309" y="408" on="0"/>
        <pt x="273" y="374" on="0"/>
        <pt x="248" y="321" on="0"/>
        <pt x="234" y="256" on="0"/>
        <pt x="234" y="224" on="1"/>
        <pt x="234" y="182" on="0"/>
        <pt x="265" y="144" on="0"/>
      </contour>
    </TTGlyph>
    <TTGlyph name="Obreve" xMin="34" yMin="-14" xMax="643" yMax="894">
      <contour>
        <pt x="552" y="891" on="1"/>
        <pt x="643" y="828" on="1"/>
        <pt x="594" y="761" on="0"/>
        <pt x="471" y="670" on="0"/>
        <pt x="403" y="670" on="1"/>
        <pt x="339" y="670" on="0"/>
        <pt x="245" y="758" on="0"/>
        <pt x="221" y="829" on="1"/>
        <pt x="345" y="894" on="1"/>
        <pt x="363" y="857" on="0"/>
        <pt x="407" y="817" on="0"/>
        <pt x="435" y="817" on="1"/>
        <pt x="462" y="817" on="0"/>
        <pt x="520" y="857" on="0"/>
      </contour>
      <contour>
        <pt x="384" y="634" on="1"/>
        <pt x="492" y="634" on="0"/>
        <pt x="629" y="496" on="0"/>
        <pt x="629" y="373" on="1"/>
        <pt x="629" y="294" on="0"/>
        <pt x="576" y="153" on="0"/>
        <pt x="482" y="48" on="0"/>
        <pt x="354" y="-14" on="0"/>
        <pt x="279" y="-14" on="1"/>
        <pt x="171" y="-14" on="0"/>
        <pt x="34" y="124" on="0"/>
        <pt x="34" y="247" on="1"/>
        <pt x="34" y="326" on="0"/>
        <pt x="87" y="467" on="0"/>
        <pt x="181" y="572" on="0"/>
        <pt x="309" y="634" on="0"/>
      </contour>
      <contour>
        <pt x="306" y="159" on="1"/>
        <pt x="330" y="159" on="0"/>
        <pt x="371" y="198" on="0"/>
        <pt x="399" y="259" on="0"/>
        <pt x="415" y="336" on="0"/>
        <pt x="415" y="374" on="1"/>
        <pt x="415" y="420" on="0"/>
        <pt x="381" y="462" on="0"/>
        <pt x="357" y="462" on="1"/>
        <pt x="332" y="462" on="0"/>
        <pt x="291" y="423" on="0"/>
        <pt x="263" y="362" on="0"/>
        <pt x="247" y="285" on="0"/>
        <pt x="247" y="248" on="1"/>
        <pt x="247" y="202" on="0"/>
        <pt x="281" y="159" on="0"/>
      </contour>
    </TTGlyph>
    <TTGlyph name="Obreve.sc" xMin="28" yMin="-13" xMax="615" yMax="825">
      <contour>
        <pt x="524" y="822" on="1"/>
        <pt x="615" y="759" on="1"/>
        <pt x="566" y="692" on="0"/>
        <pt x="443" y="601" on="0"/>
        <pt x="375" y="601" on="1"/>
        <pt x="311" y="601" on="0"/>
        <pt x="217" y="689" on="0"/>
        <pt x="193" y="760" on="1"/>
        <pt x="317" y="825" on="1"/>
        <pt x="335" y="788" on="0"/>
        <pt x="379" y="748" on="0"/>
        <pt x="407" y="748" on="1"/>
        <pt x="434" y="748" on="0"/>
        <pt x="492" y="788" on="0"/>
      </contour>
      <contour>
        <pt x="354" y="565" on="1"/>
        <pt x="405" y="565" on="0"/>
        <pt x="492" y="532" on="0"/>
        <pt x="554" y="472" on="0"/>
        <pt x="589" y="383" on="0"/>
        <pt x="589" y="328" on="1"/>
        <pt x="589" y="259" on="0"/>
        <pt x="540" y="134" on="0"/>
        <pt x="453" y="41" on="0"/>
        <pt x="333" y="-13" on="0"/>
        <pt x="263" y="-13" on="1"/>
        <pt x="159" y="-13" on="0"/>
        <pt x="28" y="114" on="0"/>
        <pt x="28" y="225" on="1"/>
        <pt x="28" y="294" on="0"/>
        <pt x="77" y="418" on="0"/>
        <pt x="164" y="511" on="0"/>
        <pt x="284" y="565" on="0"/>
      </contour>
      <contour>
        <pt x="287" y="144" on="1"/>
        <pt x="309" y="144" on="0"/>
        <pt x="344" y="178" on="0"/>
        <pt x="369" y="231" on="0"/>
        <pt x="383" y="297" on="0"/>
        <pt x="383" y="328" on="1"/>
        <pt x="383" y="371" on="0"/>
        <pt x="353" y="408" on="0"/>
        <pt x="331" y="408" on="1"/>
        <pt x="309" y="408" on="0"/>
        <pt x="273" y="374" on="0"/>
        <pt x="248" y="321" on="0"/>
        <pt x="234" y="256" on="0"/>
        <pt x="234" y="224" on="1"/>
        <pt x="234" y="182" on="0"/>
        <pt x="265" y="144" on="0"/>
      </contour>
    </TTGlyph>
    <TTGlyph name="Ocircumflex" xMin="34" yMin="-14" xMax="629" yMax="902">
      <contour>
        <pt x="511" y="662" on="1"/>
        <pt x="418" y="754" on="1"/>
        <pt x="281" y="665" on="1"/>
        <pt x="210" y="762" on="1"/>
        <pt x="426" y="902" on="1"/>
        <pt x="464" y="902" on="1"/>
        <pt x="622" y="750" on="1"/>
      </contour>
      <contour>
        <pt x="384" y="634" on="1"/>
        <pt x="492" y="634" on="0"/>
        <pt x="629" y="496" on="0"/>
        <pt x="629" y="373" on="1"/>
        <pt x="629" y="294" on="0"/>
        <pt x="576" y="153" on="0"/>
        <pt x="482" y="48" on="0"/>
        <pt x="354" y="-14" on="0"/>
        <pt x="279" y="-14" on="1"/>
        <pt x="171" y="-14" on="0"/>
        <pt x="34" y="124" on="0"/>
        <pt x="34" y="247" on="1"/>
        <pt x="34" y="326" on="0"/>
        <pt x="87" y="467" on="0"/>
        <pt x="181" y="572" on="0"/>
        <pt x="309" y="634" on="0"/>
      </contour>
      <contour>
        <pt x="306" y="159" on="1"/>
        <pt x="330" y="159" on="0"/>
        <pt x="371" y="198" on="0"/>
        <pt x="399" y="259" on="0"/>
        <pt x="415" y="336" on="0"/>
        <pt x="415" y="374" on="1"/>
        <pt x="415" y="420" on="0"/>
        <pt x="381" y="462" on="0"/>
        <pt x="357" y="462" on="1"/>
        <pt x="332" y="462" on="0"/>
        <pt x="291" y="423" on="0"/>
        <pt x="263" y="362" on="0"/>
        <pt x="247" y="285" on="0"/>
        <pt x="247" y="248" on="1"/>
        <pt x="247" y="202" on="0"/>
        <pt x="281" y="159" on="0"/>
      </contour>
    </TTGlyph>
    <TTGlyph name="Ocircumflex.sc" xMin="28" yMin="-13" xMax="593" yMax="833">
      <contour>
        <pt x="482" y="593" on="1"/>
        <pt x="389" y="685" on="1"/>
        <pt x="252" y="596" on="1"/>
        <pt x="181" y="693" on="1"/>
        <pt x="397" y="833" on="1"/>
        <pt x="435" y="833" on="1"/>
        <pt x="593" y="681" on="1"/>
      </contour>
      <contour>
        <pt x="354" y="565" on="1"/>
        <pt x="405" y="565" on="0"/>
        <pt x="492" y="532" on="0"/>
        <pt x="554" y="472" on="0"/>
        <pt x="589" y="383" on="0"/>
        <pt x="589" y="328" on="1"/>
        <pt x="589" y="259" on="0"/>
        <pt x="540" y="134" on="0"/>
        <pt x="453" y="41" on="0"/>
        <pt x="333" y="-13" on="0"/>
        <pt x="263" y="-13" on="1"/>
        <pt x="159" y="-13" on="0"/>
        <pt x="28" y="114" on="0"/>
        <pt x="28" y="225" on="1"/>
        <pt x="28" y="294" on="0"/>
        <pt x="77" y="418" on="0"/>
        <pt x="164" y="511" on="0"/>
        <pt x="284" y="565" on="0"/>
      </contour>
      <contour>
        <pt x="287" y="144" on="1"/>
        <pt x="309" y="144" on="0"/>
        <pt x="344" y="178" on="0"/>
        <pt x="369" y="231" on="0"/>
        <pt x="383" y="297" on="0"/>
        <pt x="383" y="328" on="1"/>
        <pt x="383" y="371" on="0"/>
        <pt x="353" y="408" on="0"/>
        <pt x="331" y="408" on="1"/>
        <pt x="309" y="408" on="0"/>
        <pt x="273" y="374" on="0"/>
        <pt x="248" y="321" on="0"/>
        <pt x="234" y="256" on="0"/>
        <pt x="234" y="224" on="1"/>
        <pt x="234" y="182" on="0"/>
        <pt x="265" y="144" on="0"/>
      </contour>
    </TTGlyph>
    <TTGlyph name="Odieresis" xMin="34" yMin="-14" xMax="651" yMax="850">
      <contour>
        <pt x="605" y="686" on="1"/>
        <pt x="426" y="686" on="1"/>
        <pt x="463" y="847" on="1"/>
        <pt x="651" y="850" on="1"/>
      </contour>
      <contour>
        <pt x="368" y="686" on="1"/>
        <pt x="189" y="685" on="1"/>
        <pt x="226" y="845" on="1"/>
        <pt x="414" y="848" on="1"/>
      </contour>
      <contour>
        <pt x="384" y="634" on="1"/>
        <pt x="492" y="634" on="0"/>
        <pt x="629" y="496" on="0"/>
        <pt x="629" y="373" on="1"/>
        <pt x="629" y="294" on="0"/>
        <pt x="576" y="153" on="0"/>
        <pt x="482" y="48" on="0"/>
        <pt x="354" y="-14" on="0"/>
        <pt x="279" y="-14" on="1"/>
        <pt x="171" y="-14" on="0"/>
        <pt x="34" y="124" on="0"/>
        <pt x="34" y="247" on="1"/>
        <pt x="34" y="326" on="0"/>
        <pt x="87" y="467" on="0"/>
        <pt x="181" y="572" on="0"/>
        <pt x="309" y="634" on="0"/>
      </contour>
      <contour>
        <pt x="306" y="159" on="1"/>
        <pt x="330" y="159" on="0"/>
        <pt x="371" y="198" on="0"/>
        <pt x="399" y="259" on="0"/>
        <pt x="415" y="336" on="0"/>
        <pt x="415" y="374" on="1"/>
        <pt x="415" y="420" on="0"/>
        <pt x="381" y="462" on="0"/>
        <pt x="357" y="462" on="1"/>
        <pt x="332" y="462" on="0"/>
        <pt x="291" y="423" on="0"/>
        <pt x="263" y="362" on="0"/>
        <pt x="247" y="285" on="0"/>
        <pt x="247" y="248" on="1"/>
        <pt x="247" y="202" on="0"/>
        <pt x="281" y="159" on="0"/>
      </contour>
    </TTGlyph>
    <TTGlyph name="Odieresis.sc" xMin="28" yMin="-13" xMax="622" yMax="781">
      <contour>
        <pt x="576" y="617" on="1"/>
        <pt x="397" y="617" on="1"/>
        <pt x="434" y="778" on="1"/>
        <pt x="622" y="781" on="1"/>
      </contour>
      <contour>
        <pt x="339" y="617" on="1"/>
        <pt x="160" y="616" on="1"/>
        <pt x="197" y="776" on="1"/>
        <pt x="385" y="779" on="1"/>
      </contour>
      <contour>
        <pt x="354" y="565" on="1"/>
        <pt x="405" y="565" on="0"/>
        <pt x="492" y="532" on="0"/>
        <pt x="554" y="472" on="0"/>
        <pt x="589" y="383" on="0"/>
        <pt x="589" y="328" on="1"/>
        <pt x="589" y="259" on="0"/>
        <pt x="540" y="134" on="0"/>
        <pt x="453" y="41" on="0"/>
        <pt x="333" y="-13" on="0"/>
        <pt x="263" y="-13" on="1"/>
        <pt x="159" y="-13" on="0"/>
        <pt x="28" y="114" on="0"/>
        <pt x="28" y="225" on="1"/>
        <pt x="28" y="294" on="0"/>
        <pt x="77" y="418" on="0"/>
        <pt x="164" y="511" on="0"/>
        <pt x="284" y="565" on="0"/>
      </contour>
      <contour>
        <pt x="287" y="144" on="1"/>
        <pt x="309" y="144" on="0"/>
        <pt x="344" y="178" on="0"/>
        <pt x="369" y="231" on="0"/>
        <pt x="383" y="297" on="0"/>
        <pt x="383" y="328" on="1"/>
        <pt x="383" y="371" on="0"/>
        <pt x="353" y="408" on="0"/>
        <pt x="331" y="408" on="1"/>
        <pt x="309" y="408" on="0"/>
        <pt x="273" y="374" on="0"/>
        <pt x="248" y="321" on="0"/>
        <pt x="234" y="256" on="0"/>
        <pt x="234" y="224" on="1"/>
        <pt x="234" y="182" on="0"/>
        <pt x="265" y="144" on="0"/>
      </contour>
    </TTGlyph>
    <TTGlyph name="Ograve" xMin="34" yMin="-14" xMax="629" yMax="921">
      <contour>
        <pt x="547" y="743" on="1"/>
        <pt x="521" y="665" on="1"/>
        <pt x="443" y="678" on="0"/>
        <pt x="275" y="733" on="0"/>
        <pt x="203" y="774" on="1"/>
        <pt x="295" y="921" on="1"/>
        <pt x="352" y="873" on="0"/>
        <pt x="483" y="780" on="0"/>
      </contour>
      <contour>
        <pt x="384" y="634" on="1"/>
        <pt x="492" y="634" on="0"/>
        <pt x="629" y="496" on="0"/>
        <pt x="629" y="373" on="1"/>
        <pt x="629" y="294" on="0"/>
        <pt x="576" y="153" on="0"/>
        <pt x="482" y="48" on="0"/>
        <pt x="354" y="-14" on="0"/>
        <pt x="279" y="-14" on="1"/>
        <pt x="171" y="-14" on="0"/>
        <pt x="34" y="124" on="0"/>
        <pt x="34" y="247" on="1"/>
        <pt x="34" y="326" on="0"/>
        <pt x="87" y="467" on="0"/>
        <pt x="181" y="572" on="0"/>
        <pt x="309" y="634" on="0"/>
      </contour>
      <contour>
        <pt x="306" y="159" on="1"/>
        <pt x="330" y="159" on="0"/>
        <pt x="371" y="198" on="0"/>
        <pt x="399" y="259" on="0"/>
        <pt x="415" y="336" on="0"/>
        <pt x="415" y="374" on="1"/>
        <pt x="415" y="420" on="0"/>
        <pt x="381" y="462" on="0"/>
        <pt x="357" y="462" on="1"/>
        <pt x="332" y="462" on="0"/>
        <pt x="291" y="423" on="0"/>
        <pt x="263" y="362" on="0"/>
        <pt x="247" y="285" on="0"/>
        <pt x="247" y="248" on="1"/>
        <pt x="247" y="202" on="0"/>
        <pt x="281" y="159" on="0"/>
      </contour>
    </TTGlyph>
    <TTGlyph name="Ograve.sc" xMin="28" yMin="-13" xMax="589" yMax="852">
      <contour>
        <pt x="518" y="674" on="1"/>
        <pt x="492" y="596" on="1"/>
        <pt x="414" y="609" on="0"/>
        <pt x="246" y="664" on="0"/>
        <pt x="174" y="705" on="1"/>
        <pt x="266" y="852" on="1"/>
        <pt x="323" y="804" on="0"/>
        <pt x="454" y="711" on="0"/>
      </contour>
      <contour>
        <pt x="354" y="565" on="1"/>
        <pt x="405" y="565" on="0"/>
        <pt x="492" y="532" on="0"/>
        <pt x="554" y="472" on="0"/>
        <pt x="589" y="383" on="0"/>
        <pt x="589" y="328" on="1"/>
        <pt x="589" y="259" on="0"/>
        <pt x="540" y="134" on="0"/>
        <pt x="453" y="41" on="0"/>
        <pt x="333" y="-13" on="0"/>
        <pt x="263" y="-13" on="1"/>
        <pt x="159" y="-13" on="0"/>
        <pt x="28" y="114" on="0"/>
        <pt x="28" y="225" on="1"/>
        <pt x="28" y="294" on="0"/>
        <pt x="77" y="418" on="0"/>
        <pt x="164" y="511" on="0"/>
        <pt x="284" y="565" on="0"/>
      </contour>
      <contour>
        <pt x="287" y="144" on="1"/>
        <pt x="309" y="144" on="0"/>
        <pt x="344" y="178" on="0"/>
        <pt x="369" y="231" on="0"/>
        <pt x="383" y="297" on="0"/>
        <pt x="383" y="328" on="1"/>
        <pt x="383" y="371" on="0"/>
        <pt x="353" y="408" on="0"/>
        <pt x="331" y="408" on="1"/>
        <pt x="309" y="408" on="0"/>
        <pt x="273" y="374" on="0"/>
        <pt x="248" y="321" on="0"/>
        <pt x="234" y="256" on="0"/>
        <pt x="234" y="224" on="1"/>
        <pt x="234" y="182" on="0"/>
        <pt x="265" y="144" on="0"/>
      </contour>
    </TTGlyph>
    <TTGlyph name="Ohungarumlaut" xMin="34" yMin="-14" xMax="706" yMax="942">
      <contour>
        <pt x="265" y="667" on="1"/>
        <pt x="201" y="722" on="1"/>
        <pt x="238" y="774" on="0"/>
        <pt x="307" y="889" on="0"/>
        <pt x="333" y="942" on="1"/>
        <pt x="481" y="852" on="1"/>
        <pt x="439" y="802" on="0"/>
        <pt x="325" y="705" on="0"/>
      </contour>
      <contour>
        <pt x="496" y="667" on="1"/>
        <pt x="431" y="722" on="1"/>
        <pt x="467" y="773" on="0"/>
        <pt x="532" y="881" on="0"/>
        <pt x="557" y="932" on="1"/>
        <pt x="706" y="845" on="1"/>
        <pt x="666" y="796" on="0"/>
        <pt x="554" y="704" on="0"/>
      </contour>
      <contour>
        <pt x="384" y="634" on="1"/>
        <pt x="492" y="634" on="0"/>
        <pt x="629" y="496" on="0"/>
        <pt x="629" y="373" on="1"/>
        <pt x="629" y="294" on="0"/>
        <pt x="576" y="153" on="0"/>
        <pt x="482" y="48" on="0"/>
        <pt x="354" y="-14" on="0"/>
        <pt x="279" y="-14" on="1"/>
        <pt x="171" y="-14" on="0"/>
        <pt x="34" y="124" on="0"/>
        <pt x="34" y="247" on="1"/>
        <pt x="34" y="326" on="0"/>
        <pt x="87" y="467" on="0"/>
        <pt x="181" y="572" on="0"/>
        <pt x="309" y="634" on="0"/>
      </contour>
      <contour>
        <pt x="306" y="159" on="1"/>
        <pt x="330" y="159" on="0"/>
        <pt x="371" y="198" on="0"/>
        <pt x="399" y="259" on="0"/>
        <pt x="415" y="336" on="0"/>
        <pt x="415" y="374" on="1"/>
        <pt x="415" y="420" on="0"/>
        <pt x="381" y="462" on="0"/>
        <pt x="357" y="462" on="1"/>
        <pt x="332" y="462" on="0"/>
        <pt x="291" y="423" on="0"/>
        <pt x="263" y="362" on="0"/>
        <pt x="247" y="285" on="0"/>
        <pt x="247" y="248" on="1"/>
        <pt x="247" y="202" on="0"/>
        <pt x="281" y="159" on="0"/>
      </contour>
    </TTGlyph>
    <TTGlyph name="Ohungarumlaut.sc" xMin="28" yMin="-13" xMax="677" yMax="873">
      <contour>
        <pt x="236" y="598" on="1"/>
        <pt x="172" y="653" on="1"/>
        <pt x="209" y="705" on="0"/>
        <pt x="278" y="820" on="0"/>
        <pt x="304" y="873" on="1"/>
        <pt x="452" y="783" on="1"/>
        <pt x="410" y="733" on="0"/>
        <pt x="296" y="636" on="0"/>
      </contour>
      <contour>
        <pt x="467" y="598" on="1"/>
        <pt x="402" y="653" on="1"/>
        <pt x="438" y="704" on="0"/>
        <pt x="503" y="812" on="0"/>
        <pt x="528" y="863" on="1"/>
        <pt x="677" y="776" on="1"/>
        <pt x="637" y="727" on="0"/>
        <pt x="525" y="635" on="0"/>
      </contour>
      <contour>
        <pt x="354" y="565" on="1"/>
        <pt x="405" y="565" on="0"/>
        <pt x="492" y="532" on="0"/>
        <pt x="554" y="472" on="0"/>
        <pt x="589" y="383" on="0"/>
        <pt x="589" y="328" on="1"/>
        <pt x="589" y="259" on="0"/>
        <pt x="540" y="134" on="0"/>
        <pt x="453" y="41" on="0"/>
        <pt x="333" y="-13" on="0"/>
        <pt x="263" y="-13" on="1"/>
        <pt x="159" y="-13" on="0"/>
        <pt x="28" y="114" on="0"/>
        <pt x="28" y="225" on="1"/>
        <pt x="28" y="294" on="0"/>
        <pt x="77" y="418" on="0"/>
        <pt x="164" y="511" on="0"/>
        <pt x="284" y="565" on="0"/>
      </contour>
      <contour>
        <pt x="287" y="144" on="1"/>
        <pt x="309" y="144" on="0"/>
        <pt x="344" y="178" on="0"/>
        <pt x="369" y="231" on="0"/>
        <pt x="383" y="297" on="0"/>
        <pt x="383" y="328" on="1"/>
        <pt x="383" y="371" on="0"/>
        <pt x="353" y="408" on="0"/>
        <pt x="331" y="408" on="1"/>
        <pt x="309" y="408" on="0"/>
        <pt x="273" y="374" on="0"/>
        <pt x="248" y="321" on="0"/>
        <pt x="234" y="256" on="0"/>
        <pt x="234" y="224" on="1"/>
        <pt x="234" y="182" on="0"/>
        <pt x="265" y="144" on="0"/>
      </contour>
    </TTGlyph>
    <TTGlyph name="Omacron" xMin="34" yMin="-14" xMax="629" yMax="850">
      <contour>
        <pt x="624" y="850" on="1"/>
        <pt x="593" y="692" on="1"/>
        <pt x="216" y="692" on="1"/>
        <pt x="247" y="850" on="1"/>
      </contour>
      <contour>
        <pt x="384" y="634" on="1"/>
        <pt x="492" y="634" on="0"/>
        <pt x="629" y="496" on="0"/>
        <pt x="629" y="373" on="1"/>
        <pt x="629" y="294" on="0"/>
        <pt x="576" y="153" on="0"/>
        <pt x="482" y="48" on="0"/>
        <pt x="354" y="-14" on="0"/>
        <pt x="279" y="-14" on="1"/>
        <pt x="171" y="-14" on="0"/>
        <pt x="34" y="124" on="0"/>
        <pt x="34" y="247" on="1"/>
        <pt x="34" y="326" on="0"/>
        <pt x="87" y="467" on="0"/>
        <pt x="181" y="572" on="0"/>
        <pt x="309" y="634" on="0"/>
      </contour>
      <contour>
        <pt x="306" y="159" on="1"/>
        <pt x="330" y="159" on="0"/>
        <pt x="371" y="198" on="0"/>
        <pt x="399" y="259" on="0"/>
        <pt x="415" y="336" on="0"/>
        <pt x="415" y="374" on="1"/>
        <pt x="415" y="420" on="0"/>
        <pt x="381" y="462" on="0"/>
        <pt x="357" y="462" on="1"/>
        <pt x="332" y="462" on="0"/>
        <pt x="291" y="423" on="0"/>
        <pt x="263" y="362" on="0"/>
        <pt x="247" y="285" on="0"/>
        <pt x="247" y="248" on="1"/>
        <pt x="247" y="202" on="0"/>
        <pt x="281" y="159" on="0"/>
      </contour>
    </TTGlyph>
    <TTGlyph name="Omacron.sc" xMin="28" yMin="-13" xMax="596" yMax="781">
      <contour>
        <pt x="596" y="781" on="1"/>
        <pt x="565" y="623" on="1"/>
        <pt x="188" y="623" on="1"/>
        <pt x="219" y="781" on="1"/>
      </contour>
      <contour>
        <pt x="354" y="565" on="1"/>
        <pt x="405" y="565" on="0"/>
        <pt x="492" y="532" on="0"/>
        <pt x="554" y="472" on="0"/>
        <pt x="589" y="383" on="0"/>
        <pt x="589" y="328" on="1"/>
        <pt x="589" y="259" on="0"/>
        <pt x="540" y="134" on="0"/>
        <pt x="453" y="41" on="0"/>
        <pt x="333" y="-13" on="0"/>
        <pt x="263" y="-13" on="1"/>
        <pt x="159" y="-13" on="0"/>
        <pt x="28" y="114" on="0"/>
        <pt x="28" y="225" on="1"/>
        <pt x="28" y="294" on="0"/>
        <pt x="77" y="418" on="0"/>
        <pt x="164" y="511" on="0"/>
        <pt x="284" y="565" on="0"/>
      </contour>
      <contour>
        <pt x="287" y="144" on="1"/>
        <pt x="309" y="144" on="0"/>
        <pt x="344" y="178" on="0"/>
        <pt x="369" y="231" on="0"/>
        <pt x="383" y="297" on="0"/>
        <pt x="383" y="328" on="1"/>
        <pt x="383" y="371" on="0"/>
        <pt x="353" y="408" on="0"/>
        <pt x="331" y="408" on="1"/>
        <pt x="309" y="408" on="0"/>
        <pt x="273" y="374" on="0"/>
        <pt x="248" y="321" on="0"/>
        <pt x="234" y="256" on="0"/>
        <pt x="234" y="224" on="1"/>
        <pt x="234" y="182" on="0"/>
        <pt x="265" y="144" on="0"/>
      </contour>
    </TTGlyph>
    <TTGlyph name="Omega" xMin="-10" yMin="0" xMax="602" yMax="635">
      <contour>
        <pt x="255" y="6" on="1"/>
        <pt x="250" y="0" on="1"/>
        <pt x="-10" y="0" on="1"/>
        <pt x="22" y="162" on="1"/>
        <pt x="116" y="162" on="1"/>
        <pt x="100" y="205" on="0"/>
        <pt x="82" y="294" on="0"/>
        <pt x="82" y="336" on="1"/>
        <pt x="82" y="402" on="0"/>
        <pt x="124" y="513" on="0"/>
        <pt x="200" y="591" on="0"/>
        <pt x="308" y="635" on="0"/>
        <pt x="373" y="635" on="1"/>
        <pt x="483" y="635" on="0"/>
        <pt x="602" y="515" on="0"/>
        <pt x="602" y="424" on="1"/>
        <pt x="602" y="366" on="0"/>
        <pt x="551" y="228" on="0"/>
        <pt x="501" y="162" on="1"/>
        <pt x="589" y="162" on="1"/>
        <pt x="557" y="0" on="1"/>
        <pt x="307" y="0" on="1"/>
        <pt x="305" y="6" on="1"/>
        <pt x="356" y="139" on="0"/>
        <pt x="410" y="327" on="0"/>
        <pt x="410" y="377" on="1"/>
        <pt x="410" y="418" on="0"/>
        <pt x="379" y="458" on="0"/>
        <pt x="353" y="458" on="1"/>
        <pt x="307" y="458" on="0"/>
        <pt x="246" y="310" on="0"/>
        <pt x="246" y="163" on="1"/>
        <pt x="246" y="123" on="0"/>
        <pt x="251" y="33" on="0"/>
      </contour>
    </TTGlyph>
    <TTGlyph name="Oslash" xMin="5" yMin="-38" xMax="653" yMax="662">
      <contour>
        <pt x="358" y="471" on="1"/>
        <pt x="332" y="471" on="0"/>
        <pt x="289" y="434" on="0"/>
        <pt x="259" y="376" on="0"/>
        <pt x="240" y="302" on="0"/>
        <pt x="238" y="265" on="1"/>
        <pt x="403" y="451" on="1"/>
        <pt x="394" y="461" on="0"/>
        <pt x="371" y="471" on="0"/>
      </contour>
      <contour>
        <pt x="305" y="149" on="1"/>
        <pt x="331" y="149" on="0"/>
        <pt x="375" y="188" on="0"/>
        <pt x="405" y="250" on="0"/>
        <pt x="423" y="328" on="0"/>
        <pt x="424" y="367" on="1"/>
        <pt x="255" y="176" on="1"/>
        <pt x="264" y="163" on="0"/>
        <pt x="289" y="149" on="0"/>
      </contour>
      <contour>
        <pt x="279" y="-14" on="1"/>
        <pt x="242" y="-14" on="0"/>
        <pt x="176" y="3" on="0"/>
        <pt x="148" y="19" on="1"/>
        <pt x="98" y="-38" on="1"/>
        <pt x="5" y="36" on="1"/>
        <pt x="66" y="105" on="1"/>
        <pt x="50" y="134" on="0"/>
        <pt x="34" y="206" on="0"/>
        <pt x="34" y="247" on="1"/>
        <pt x="34" y="326" on="0"/>
        <pt x="87" y="467" on="0"/>
        <pt x="181" y="572" on="0"/>
        <pt x="309" y="634" on="0"/>
        <pt x="384" y="634" on="1"/>
        <pt x="419" y="634" on="0"/>
        <pt x="482" y="619" on="0"/>
        <pt x="509" y="605" on="1"/>
        <pt x="560" y="662" on="1"/>
        <pt x="653" y="588" on="1"/>
        <pt x="594" y="521" on="1"/>
        <pt x="611" y="491" on="0"/>
        <pt x="629" y="416" on="0"/>
        <pt x="629" y="373" on="1"/>
        <pt x="629" y="294" on="0"/>
        <pt x="576" y="153" on="0"/>
        <pt x="482" y="48" on="0"/>
        <pt x="354" y="-14" on="0"/>
      </contour>
    </TTGlyph>
    <TTGlyph name="Oslash.sc" xMin="5" yMin="-41" xMax="612" yMax="593">
      <contour>
        <pt x="331" y="415" on="1"/>
        <pt x="309" y="415" on="0"/>
        <pt x="272" y="384" on="0"/>
        <pt x="246" y="334" on="0"/>
        <pt x="230" y="269" on="0"/>
        <pt x="228" y="237" on="1"/>
        <pt x="371" y="398" on="1"/>
        <pt x="363" y="407" on="0"/>
        <pt x="343" y="415" on="0"/>
      </contour>
      <contour>
        <pt x="287" y="137" on="1"/>
        <pt x="309" y="137" on="0"/>
        <pt x="345" y="169" on="0"/>
        <pt x="371" y="220" on="0"/>
        <pt x="387" y="285" on="0"/>
        <pt x="389" y="318" on="1"/>
        <pt x="247" y="155" on="1"/>
        <pt x="254" y="146" on="0"/>
        <pt x="275" y="137" on="0"/>
      </contour>
      <contour>
        <pt x="263" y="-13" on="1"/>
        <pt x="229" y="-13" on="0"/>
        <pt x="168" y="1" on="0"/>
        <pt x="142" y="14" on="1"/>
        <pt x="93" y="-41" on="1"/>
        <pt x="5" y="28" on="1"/>
        <pt x="61" y="92" on="1"/>
        <pt x="45" y="119" on="0"/>
        <pt x="28" y="186" on="0"/>
        <pt x="28" y="225" on="1"/>
        <pt x="28" y="294" on="0"/>
        <pt x="77" y="418" on="0"/>
        <pt x="164" y="511" on="0"/>
        <pt x="284" y="565" on="0"/>
        <pt x="354" y="565" on="1"/>
        <pt x="388" y="565" on="0"/>
        <pt x="449" y="550" on="0"/>
        <pt x="474" y="537" on="1"/>
        <pt x="524" y="593" on="1"/>
        <pt x="612" y="524" on="1"/>
        <pt x="556" y="461" on="1"/>
        <pt x="572" y="434" on="0"/>
        <pt x="589" y="367" on="0"/>
        <pt x="589" y="328" on="1"/>
        <pt x="589" y="259" on="0"/>
        <pt x="540" y="134" on="0"/>
        <pt x="453" y="41" on="0"/>
        <pt x="333" y="-13" on="0"/>
      </contour>
    </TTGlyph>
    <TTGlyph name="Oslashacute" xMin="5" yMin="-38" xMax="653" yMax="920">
      <contour>
        <pt x="266" y="745" on="1"/>
        <pt x="330" y="781" on="0"/>
        <pt x="465" y="873" on="0"/>
        <pt x="522" y="920" on="1"/>
        <pt x="616" y="774" on="1"/>
        <pt x="544" y="731" on="0"/>
        <pt x="369" y="678" on="0"/>
        <pt x="291" y="666" on="1"/>
      </contour>
      <contour>
        <pt x="358" y="471" on="1"/>
        <pt x="332" y="471" on="0"/>
        <pt x="289" y="434" on="0"/>
        <pt x="259" y="376" on="0"/>
        <pt x="240" y="302" on="0"/>
        <pt x="238" y="265" on="1"/>
        <pt x="403" y="451" on="1"/>
        <pt x="394" y="461" on="0"/>
        <pt x="371" y="471" on="0"/>
      </contour>
      <contour>
        <pt x="305" y="149" on="1"/>
        <pt x="331" y="149" on="0"/>
        <pt x="375" y="188" on="0"/>
        <pt x="405" y="250" on="0"/>
        <pt x="423" y="328" on="0"/>
        <pt x="424" y="367" on="1"/>
        <pt x="255" y="176" on="1"/>
        <pt x="264" y="163" on="0"/>
        <pt x="289" y="149" on="0"/>
      </contour>
      <contour>
        <pt x="279" y="-14" on="1"/>
        <pt x="242" y="-14" on="0"/>
        <pt x="176" y="3" on="0"/>
        <pt x="148" y="19" on="1"/>
        <pt x="98" y="-38" on="1"/>
        <pt x="5" y="36" on="1"/>
        <pt x="66" y="105" on="1"/>
        <pt x="50" y="134" on="0"/>
        <pt x="34" y="206" on="0"/>
        <pt x="34" y="247" on="1"/>
        <pt x="34" y="326" on="0"/>
        <pt x="87" y="467" on="0"/>
        <pt x="181" y="572" on="0"/>
        <pt x="309" y="634" on="0"/>
        <pt x="384" y="634" on="1"/>
        <pt x="419" y="634" on="0"/>
        <pt x="482" y="619" on="0"/>
        <pt x="509" y="605" on="1"/>
        <pt x="560" y="662" on="1"/>
        <pt x="653" y="588" on="1"/>
        <pt x="594" y="521" on="1"/>
        <pt x="611" y="491" on="0"/>
        <pt x="629" y="416" on="0"/>
        <pt x="629" y="373" on="1"/>
        <pt x="629" y="294" on="0"/>
        <pt x="576" y="153" on="0"/>
        <pt x="482" y="48" on="0"/>
        <pt x="354" y="-14" on="0"/>
      </contour>
    </TTGlyph>
    <TTGlyph name="Oslashacute.sc" xMin="5" yMin="-41" xMax="612" yMax="856">
      <contour>
        <pt x="236" y="681" on="1"/>
        <pt x="300" y="717" on="0"/>
        <pt x="435" y="809" on="0"/>
        <pt x="492" y="856" on="1"/>
        <pt x="586" y="710" on="1"/>
        <pt x="514" y="667" on="0"/>
        <pt x="339" y="614" on="0"/>
        <pt x="261" y="602" on="1"/>
      </contour>
      <contour>
        <pt x="331" y="415" on="1"/>
        <pt x="309" y="415" on="0"/>
        <pt x="272" y="384" on="0"/>
        <pt x="246" y="334" on="0"/>
        <pt x="230" y="269" on="0"/>
        <pt x="228" y="237" on="1"/>
        <pt x="371" y="398" on="1"/>
        <pt x="363" y="407" on="0"/>
        <pt x="343" y="415" on="0"/>
      </contour>
      <contour>
        <pt x="287" y="137" on="1"/>
        <pt x="309" y="137" on="0"/>
        <pt x="345" y="169" on="0"/>
        <pt x="371" y="220" on="0"/>
        <pt x="387" y="285" on="0"/>
        <pt x="389" y="318" on="1"/>
        <pt x="247" y="155" on="1"/>
        <pt x="254" y="146" on="0"/>
        <pt x="275" y="137" on="0"/>
      </contour>
      <contour>
        <pt x="263" y="-13" on="1"/>
        <pt x="229" y="-13" on="0"/>
        <pt x="168" y="1" on="0"/>
        <pt x="142" y="14" on="1"/>
        <pt x="93" y="-41" on="1"/>
        <pt x="5" y="28" on="1"/>
        <pt x="61" y="92" on="1"/>
        <pt x="45" y="119" on="0"/>
        <pt x="28" y="186" on="0"/>
        <pt x="28" y="225" on="1"/>
        <pt x="28" y="294" on="0"/>
        <pt x="77" y="418" on="0"/>
        <pt x="164" y="511" on="0"/>
        <pt x="284" y="565" on="0"/>
        <pt x="354" y="565" on="1"/>
        <pt x="388" y="565" on="0"/>
        <pt x="449" y="550" on="0"/>
        <pt x="474" y="537" on="1"/>
        <pt x="524" y="593" on="1"/>
        <pt x="612" y="524" on="1"/>
        <pt x="556" y="461" on="1"/>
        <pt x="572" y="434" on="0"/>
        <pt x="589" y="367" on="0"/>
        <pt x="589" y="328" on="1"/>
        <pt x="589" y="259" on="0"/>
        <pt x="540" y="134" on="0"/>
        <pt x="453" y="41" on="0"/>
        <pt x="333" y="-13" on="0"/>
      </contour>
    </TTGlyph>
    <TTGlyph name="Otilde" xMin="34" yMin="-14" xMax="658" yMax="888">
      <contour>
        <pt x="507" y="818" on="1"/>
        <pt x="518" y="818" on="0"/>
        <pt x="549" y="851" on="0"/>
        <pt x="571" y="885" on="1"/>
        <pt x="658" y="834" on="1"/>
        <pt x="618" y="762" on="0"/>
        <pt x="533" y="676" on="0"/>
        <pt x="486" y="676" on="1"/>
        <pt x="461" y="676" on="0"/>
        <pt x="417" y="698" on="0"/>
        <pt x="380" y="723" on="0"/>
        <pt x="350" y="745" on="0"/>
        <pt x="339" y="745" on="1"/>
        <pt x="328" y="745" on="0"/>
        <pt x="298" y="712" on="0"/>
        <pt x="275" y="678" on="1"/>
        <pt x="189" y="729" on="1"/>
        <pt x="227" y="800" on="0"/>
        <pt x="311" y="888" on="0"/>
        <pt x="358" y="888" on="1"/>
        <pt x="383" y="888" on="0"/>
        <pt x="427" y="866" on="0"/>
        <pt x="465" y="840" on="0"/>
        <pt x="496" y="818" on="0"/>
      </contour>
      <contour>
        <pt x="384" y="634" on="1"/>
        <pt x="492" y="634" on="0"/>
        <pt x="629" y="496" on="0"/>
        <pt x="629" y="373" on="1"/>
        <pt x="629" y="294" on="0"/>
        <pt x="576" y="153" on="0"/>
        <pt x="482" y="48" on="0"/>
        <pt x="354" y="-14" on="0"/>
        <pt x="279" y="-14" on="1"/>
        <pt x="171" y="-14" on="0"/>
        <pt x="34" y="124" on="0"/>
        <pt x="34" y="247" on="1"/>
        <pt x="34" y="326" on="0"/>
        <pt x="87" y="467" on="0"/>
        <pt x="181" y="572" on="0"/>
        <pt x="309" y="634" on="0"/>
      </contour>
      <contour>
        <pt x="306" y="159" on="1"/>
        <pt x="330" y="159" on="0"/>
        <pt x="371" y="198" on="0"/>
        <pt x="399" y="259" on="0"/>
        <pt x="415" y="336" on="0"/>
        <pt x="415" y="374" on="1"/>
        <pt x="415" y="420" on="0"/>
        <pt x="381" y="462" on="0"/>
        <pt x="357" y="462" on="1"/>
        <pt x="332" y="462" on="0"/>
        <pt x="291" y="423" on="0"/>
        <pt x="263" y="362" on="0"/>
        <pt x="247" y="285" on="0"/>
        <pt x="247" y="248" on="1"/>
        <pt x="247" y="202" on="0"/>
        <pt x="281" y="159" on="0"/>
      </contour>
    </TTGlyph>
    <TTGlyph name="Otilde.sc" xMin="28" yMin="-13" xMax="629" yMax="819">
      <contour>
        <pt x="478" y="749" on="1"/>
        <pt x="489" y="749" on="0"/>
        <pt x="520" y="782" on="0"/>
        <pt x="542" y="816" on="1"/>
        <pt x="629" y="765" on="1"/>
        <pt x="589" y="693" on="0"/>
        <pt x="504" y="607" on="0"/>
        <pt x="457" y="607" on="1"/>
        <pt x="432" y="607" on="0"/>
        <pt x="388" y="629" on="0"/>
        <pt x="351" y="654" on="0"/>
        <pt x="321" y="676" on="0"/>
        <pt x="310" y="676" on="1"/>
        <pt x="299" y="676" on="0"/>
        <pt x="269" y="643" on="0"/>
        <pt x="246" y="609" on="1"/>
        <pt x="160" y="660" on="1"/>
        <pt x="198" y="731" on="0"/>
        <pt x="282" y="819" on="0"/>
        <pt x="329" y="819" on="1"/>
        <pt x="354" y="819" on="0"/>
        <pt x="398" y="797" on="0"/>
        <pt x="436" y="771" on="0"/>
        <pt x="467" y="749" on="0"/>
      </contour>
      <contour>
        <pt x="354" y="565" on="1"/>
        <pt x="405" y="565" on="0"/>
        <pt x="492" y="532" on="0"/>
        <pt x="554" y="472" on="0"/>
        <pt x="589" y="383" on="0"/>
        <pt x="589" y="328" on="1"/>
        <pt x="589" y="259" on="0"/>
        <pt x="540" y="134" on="0"/>
        <pt x="453" y="41" on="0"/>
        <pt x="333" y="-13" on="0"/>
        <pt x="263" y="-13" on="1"/>
        <pt x="159" y="-13" on="0"/>
        <pt x="28" y="114" on="0"/>
        <pt x="28" y="225" on="1"/>
        <pt x="28" y="294" on="0"/>
        <pt x="77" y="418" on="0"/>
        <pt x="164" y="511" on="0"/>
        <pt x="284" y="565" on="0"/>
      </contour>
      <contour>
        <pt x="287" y="144" on="1"/>
        <pt x="309" y="144" on="0"/>
        <pt x="344" y="178" on="0"/>
        <pt x="369" y="231" on="0"/>
        <pt x="383" y="297" on="0"/>
        <pt x="383" y="328" on="1"/>
        <pt x="383" y="371" on="0"/>
        <pt x="353" y="408" on="0"/>
        <pt x="331" y="408" on="1"/>
        <pt x="309" y="408" on="0"/>
        <pt x="273" y="374" on="0"/>
        <pt x="248" y="321" on="0"/>
        <pt x="234" y="256" on="0"/>
        <pt x="234" y="224" on="1"/>
        <pt x="234" y="182" on="0"/>
        <pt x="265" y="144" on="0"/>
      </contour>
    </TTGlyph>
    <TTGlyph name="P" xMin="6" yMin="0" xMax="592" yMax="629">
      <contour>
        <pt x="210" y="0" on="1"/>
        <pt x="6" y="0" on="1"/>
        <pt x="125" y="615" on="1"/>
        <pt x="172" y="622" on="0"/>
        <pt x="257" y="629" on="0"/>
        <pt x="294" y="629" on="1"/>
        <pt x="452" y="629" on="0"/>
        <pt x="592" y="517" on="0"/>
        <pt x="592" y="430" on="1"/>
        <pt x="592" y="320" on="0"/>
        <pt x="403" y="170" on="0"/>
        <pt x="237" y="139" on="1"/>
      </contour>
      <contour>
        <pt x="288" y="296" on="1"/>
        <pt x="341" y="296" on="0"/>
        <pt x="395" y="359" on="0"/>
        <pt x="395" y="399" on="1"/>
        <pt x="395" y="431" on="0"/>
        <pt x="356" y="468" on="0"/>
        <pt x="319" y="468" on="1"/>
        <pt x="315" y="468" on="0"/>
        <pt x="305" y="468" on="0"/>
        <pt x="300" y="467" on="1"/>
        <pt x="268" y="297" on="1"/>
        <pt x="273" y="297" on="0"/>
        <pt x="284" y="296" on="0"/>
      </contour>
    </TTGlyph>
    <TTGlyph name="P.sc" xMin="4" yMin="0" xMax="556" yMax="559">
      <contour>
        <pt x="200" y="0" on="1"/>
        <pt x="4" y="0" on="1"/>
        <pt x="110" y="547" on="1"/>
        <pt x="155" y="553" on="0"/>
        <pt x="235" y="559" on="0"/>
        <pt x="270" y="559" on="1"/>
        <pt x="421" y="559" on="0"/>
        <pt x="556" y="458" on="0"/>
        <pt x="556" y="379" on="1"/>
        <pt x="556" y="282" on="0"/>
        <pt x="380" y="149" on="0"/>
        <pt x="224" y="122" on="1"/>
      </contour>
      <contour>
        <pt x="271" y="264" on="1"/>
        <pt x="319" y="264" on="0"/>
        <pt x="367" y="319" on="0"/>
        <pt x="367" y="353" on="1"/>
        <pt x="367" y="382" on="0"/>
        <pt x="331" y="414" on="0"/>
        <pt x="297" y="414" on="1"/>
        <pt x="293" y="414" on="0"/>
        <pt x="284" y="414" on="0"/>
        <pt x="280" y="413" on="1"/>
        <pt x="252" y="265" on="1"/>
        <pt x="256" y="265" on="0"/>
        <pt x="267" y="264" on="0"/>
      </contour>
    </TTGlyph>
    <TTGlyph name="Q" xMin="42" yMin="-157" xMax="617" yMax="634">
      <contour>
        <pt x="487" y="-157" on="1"/>
        <pt x="78" y="-49" on="1"/>
        <pt x="110" y="81" on="1"/>
        <pt x="76" y="135" on="0"/>
        <pt x="42" y="250" on="0"/>
        <pt x="42" y="305" on="1"/>
        <pt x="42" y="371" on="0"/>
        <pt x="87" y="491" on="0"/>
        <pt x="171" y="580" on="0"/>
        <pt x="294" y="634" on="0"/>
        <pt x="370" y="634" on="1"/>
        <pt x="431" y="634" on="0"/>
        <pt x="524" y="598" on="0"/>
        <pt x="586" y="537" on="0"/>
        <pt x="617" y="451" on="0"/>
        <pt x="617" y="402" on="1"/>
        <pt x="617" y="341" on="0"/>
        <pt x="575" y="234" on="0"/>
        <pt x="502" y="145" on="0"/>
        <pt x="403" y="72" on="0"/>
        <pt x="347" y="46" on="1"/>
        <pt x="529" y="8" on="1"/>
      </contour>
      <contour>
        <pt x="250" y="317" on="1"/>
        <pt x="250" y="286" on="0"/>
        <pt x="265" y="215" on="0"/>
        <pt x="282" y="179" on="1"/>
        <pt x="341" y="225" on="0"/>
        <pt x="404" y="337" on="0"/>
        <pt x="404" y="388" on="1"/>
        <pt x="404" y="425" on="0"/>
        <pt x="370" y="462" on="0"/>
        <pt x="342" y="462" on="1"/>
        <pt x="302" y="462" on="0"/>
        <pt x="250" y="380" on="0"/>
      </contour>
    </TTGlyph>
    <TTGlyph name="Q.sc" xMin="34" yMin="-140" xMax="577" yMax="565">
      <contour>
        <pt x="461" y="-140" on="1"/>
        <pt x="70" y="-46" on="1"/>
        <pt x="99" y="74" on="1"/>
        <pt x="66" y="123" on="0"/>
        <pt x="34" y="226" on="0"/>
        <pt x="34" y="275" on="1"/>
        <pt x="34" y="333" on="0"/>
        <pt x="76" y="439" on="0"/>
        <pt x="154" y="518" on="0"/>
        <pt x="269" y="565" on="0"/>
        <pt x="341" y="565" on="1"/>
        <pt x="399" y="565" on="0"/>
        <pt x="488" y="532" on="0"/>
        <pt x="547" y="476" on="0"/>
        <pt x="577" y="398" on="0"/>
        <pt x="577" y="354" on="1"/>
        <pt x="577" y="301" on="0"/>
        <pt x="538" y="207" on="0"/>
        <pt x="472" y="129" on="0"/>
        <pt x="381" y="66" on="0"/>
        <pt x="330" y="42" on="1"/>
        <pt x="499" y="10" on="1"/>
      </contour>
      <contour>
        <pt x="233" y="285" on="1"/>
        <pt x="233" y="257" on="0"/>
        <pt x="248" y="195" on="0"/>
        <pt x="264" y="163" on="1"/>
        <pt x="317" y="203" on="0"/>
        <pt x="372" y="298" on="0"/>
        <pt x="372" y="343" on="1"/>
        <pt x="372" y="376" on="0"/>
        <pt x="341" y="408" on="0"/>
        <pt x="316" y="408" on="1"/>
        <pt x="280" y="408" on="0"/>
        <pt x="233" y="339" on="0"/>
      </contour>
    </TTGlyph>
    <TTGlyph name="R" xMin="6" yMin="-10" xMax="589" yMax="628">
      <contour>
        <pt x="341" y="-10" on="1"/>
        <pt x="256" y="259" on="1"/>
        <pt x="206" y="0" on="1"/>
        <pt x="6" y="0" on="1"/>
        <pt x="124" y="611" on="1"/>
        <pt x="178" y="619" on="0"/>
        <pt x="273" y="628" on="0"/>
        <pt x="313" y="628" on="1"/>
        <pt x="392" y="628" on="0"/>
        <pt x="499" y="599" on="0"/>
        <pt x="562" y="550" on="0"/>
        <pt x="589" y="485" on="0"/>
        <pt x="589" y="450" on="1"/>
        <pt x="589" y="390" on="0"/>
        <pt x="515" y="294" on="0"/>
        <pt x="455" y="255" on="1"/>
        <pt x="557" y="10" on="1"/>
      </contour>
      <contour>
        <pt x="309" y="466" on="1"/>
        <pt x="306" y="466" on="0"/>
        <pt x="300" y="466" on="0"/>
        <pt x="296" y="466" on="1"/>
        <pt x="264" y="299" on="1"/>
        <pt x="330" y="324" on="0"/>
        <pt x="389" y="378" on="0"/>
        <pt x="389" y="409" on="1"/>
        <pt x="389" y="436" on="0"/>
        <pt x="349" y="466" on="0"/>
      </contour>
    </TTGlyph>
    <TTGlyph name="R.sc" xMin="4" yMin="-9" xMax="553" yMax="559">
      <contour>
        <pt x="320" y="-9" on="1"/>
        <pt x="240" y="227" on="1"/>
        <pt x="196" y="0" on="1"/>
        <pt x="4" y="0" on="1"/>
        <pt x="109" y="544" on="1"/>
        <pt x="161" y="551" on="0"/>
        <pt x="252" y="559" on="0"/>
        <pt x="290" y="559" on="1"/>
        <pt x="366" y="559" on="0"/>
        <pt x="467" y="533" on="0"/>
        <pt x="528" y="489" on="0"/>
        <pt x="553" y="430" on="0"/>
        <pt x="553" y="398" on="1"/>
        <pt x="553" y="345" on="0"/>
        <pt x="485" y="261" on="0"/>
        <pt x="430" y="227" on="1"/>
        <pt x="527" y="9" on="1"/>
      </contour>
      <contour>
        <pt x="287" y="413" on="1"/>
        <pt x="285" y="413" on="0"/>
        <pt x="279" y="413" on="0"/>
        <pt x="276" y="413" on="1"/>
        <pt x="248" y="267" on="1"/>
        <pt x="308" y="289" on="0"/>
        <pt x="362" y="335" on="0"/>
        <pt x="362" y="363" on="1"/>
        <pt x="362" y="385" on="0"/>
        <pt x="324" y="413" on="0"/>
      </contour>
    </TTGlyph>
</ttFont>
